<?xml version="1.0" encoding="utf-8"?>
<!-- Generator: Adobe Illustrator 16.0.0, SVG Export Plug-In . SVG Version: 6.00 Build 0)  -->
<!DOCTYPE svg PUBLIC "-//W3C//DTD SVG 1.1//EN" "http://www.w3.org/Graphics/SVG/1.1/DTD/svg11.dtd">
<svg version="1.1" id="Layer_1" xmlns="http://www.w3.org/2000/svg" xmlns:xlink="http://www.w3.org/1999/xlink" x="0px" y="0px"
	 width="512px" height="512px" viewBox="0 0 512 512" enable-background="new 0 0 512 512" xml:space="preserve">
<g id="species_x5F_02">
	<g id="species_x5F_04_1_">
		<path fill="#C0C0C0" d="M402.009,236.332c-2.034,3.454-4.062,6.908-6.096,10.362c-4.839,4.508-13.819-13.14-16.476,3.076
			c-4.724,0.115-8.088-1.745-9.48-6.482c11.008-15.415,7.041-25.463-11.469-29.048c3.631-6.865,7.507-13.842-5.816-13.269
			c-0.829-3.479-1.666-6.961-2.502-10.443c9.523,0.547,3.346-13.584,12.5-13.374c2.544,5.941,2.83,14.076,12.618,12.973
			c6.233-1.359,11.291-0.613,12.502,6.998c0.269,1.977,0.539,3.954,0.81,5.921c-0.123,1.929-0.252,3.864-0.379,5.798
			c-3.096,8.187-1.764,15.293,5.137,21.041C396.24,232.033,399.12,234.182,402.009,236.332z M367.725,210.096
			c-0.103-0.345-0.125-0.753-0.341-1.005c-0.089-0.102-0.579,0.14-0.887,0.224c0.106,0.347,0.144,0.751,0.354,1.01
			C366.934,210.421,367.423,210.183,367.725,210.096z"/>
		<path fill="#C0C0C0" d="M350.406,347.268c3.378,6.347-4.792,6.053-5.703,9.93c-2.244-0.104-4.496-0.202-6.748-0.305
			c-8.727-0.396-16.745,0.615-20.419,10.27c-1.36,1.588-2.726,3.176-4.086,4.766c-5.298,4.943-7.481-15.61-13.872-1.688
			c-0.814-0.283-1.626-0.565-2.438-0.848c-5.492-9.424-13.523-5.019-20.957-3.849c2.354-4.253,4.905-8.468,2.42-13.583
			c0.233-0.467,0.436-0.95,0.595-1.451c0.706,0.032,1.372-0.121,1.985-0.473c6.34,3.221,10.873,0.491,14.735-4.457
			c2.922,3.352,5.854,6.7,9.515,10.897c0.277-4.896,0.479-8.468,0.687-12.036c7.646,1.771,14.208-0.099,19.589-5.87
			c4.637,6.516,11.458,2.404,17.2,3.536C345.4,343.827,347.904,345.548,350.406,347.268z"/>
		<path fill="#C0C0C0" d="M396.576,277.828c-1.084,3.795-2.17,7.59-3.256,11.388c-7.229,6.747-16.354,12.582-11.94,24.909
			c-0.019,1.789-0.037,3.578-0.06,5.366c-1.031,0.841-2.062,1.68-3.088,2.52c-3.565,6.389-6.143-17.106-10.056-0.333
			c-1.536-0.043-3.069-0.084-4.608-0.126c-0.303-0.806-0.855-1.365-1.656-1.674c-0.547-1.7-1.088-3.4-1.629-5.096
			c2.857-1.394,1.471-2.265-0.375-3.076c-1.36-1.377-2.721-2.755-4.077-4.131c0.228-1.115,0.459-2.229,0.694-3.343
			c18.641-8.819,23.556-16.959-1.104-23.828c-0.928-0.258-1.472-1.9-2.192-2.9c8.459-0.305,16.506-1.455,20.938-10.102
			c4.594,0.176,9.188,0.354,13.774,0.533c0.351,3.039,0.076,6.765,5.112,4.652c1.866,0.337,3.737,0.675,5.604,1.012
			C397.965,275.008,397.27,276.417,396.576,277.828z M362.562,304.098c-0.265,0.062-0.65,0.039-0.752,0.204
			c-0.168,0.253-0.146,0.634-0.194,0.962c0.437-0.092,0.868-0.182,1.303-0.267C362.799,304.695,362.684,304.395,362.562,304.098z"/>
		<path fill="#B7B7B7" d="M127.597,182.203c5.389,0.253,10.78,0.535,16.171,0.758c15.701,0.646,12.473-7.358,7.382-16.199
			c10.737-6.914-1.846-11.365-1.811-17.149c2.26,0.739,4.518,1.479,6.778,2.219l0.019-0.096c-0.397,4.813,2.036,7.313,6.596,8.081
			c0.372,0.694,0.565,1.434,0.577,2.22c-1.12,5.541,1.47,9.575,5.325,13.094c0.09,0.464,0.214,0.918,0.372,1.361
			c-3.058,1.159-8.345-1.147-8.375,4.717c-0.02,3.825,2.698,5.733,6.529,5.865c4.544,0.997,9.082,1.998,13.622,2.997
			c0.021,1.757,0.043,3.514,0.063,5.267c0.01,3.04,0.022,6.082,0.034,9.125c-7.899,2.002-2.766,4.255-0.195,6.659
			c7.286,6.816,16.54,12.215,17.453,23.727c-14.255,7.039-13.217-6.206-17.117-12.906c-1.79-2.507-3.578-5.015-5.369-7.521
			c-2.539-2.436-5.077-4.873-7.617-7.31c-2.601-5.898,13.54-9.141,3.51-13.849c-6.172-2.896-15.603-5.843-23.789-1.481
			C141.034,188.589,134.315,185.396,127.597,182.203z"/>
		<path fill="#7C7C7C" d="M317.536,367.163c3.674-9.652,11.692-10.665,20.405-10.271c-3.309,19.367,12.344,32.008,16.459,56.729
			c1.009-11.115,1.27-13.979,1.522-16.844c6.979,4.312,7.069,12.414,10.083,18.849c1.854,3.956,0.812,4.064-3.75,2.841
			c-11.171-2.998-13.919-13.679-20.98-20.29c-0.477-5.217-3.025-8.89-7.982-10.782l-0.025-0.015
			C331.432,377.988,323.585,373.276,317.536,367.163z"/>
		<path fill="#7C7C7C" d="M381.382,314.125c-4.413-12.327,4.712-18.162,11.941-24.909c11.411,12.584,25.271,21.921,39.991,30.132
			c4.651,9.927-2.43,4.622-5.312,3.923C412.597,319.531,397.951,311.966,381.382,314.125z"/>
		<path fill="#C0C0C0" d="M234.385,382.358c-2.073-0.426-4.144-0.848-6.215-1.265c0.002,0.005,0.164-0.14,0.164-0.14
			c2.98-2.048,5.96-4.093,11.764-8.077c-9.403,0.633-15.542,1.046-21.685,1.464c-0.653-0.641-1.306-1.278-1.96-1.919
			c1.041-2.896,1.438-5.541-2.535-6.472c3.412-6.812,13.447-7.602,14.791-16.283c2.459,0.844,4.918,1.688,7.379,2.533
			c-3.673,1.826-6.63,4.522-2.604,8.09c4.249,3.767,9.437,6.621,14.625,0.797c2.719,2.751,5.442,5.499,8.16,8.249
			c0.844,3.251,1.689,6.5,2.536,9.753c-0.88,2.091-1.763,4.178-2.638,6.27c-4.443-0.905-8.883-1.812-13.325-2.729
			C240.021,382.544,237.203,382.452,234.385,382.358z"/>
		<path fill="#B7B7B7" d="M376.275,334.547c8.063,9.735,16.205,19.412,24.139,29.26c1.56,1.938,2.3,4.53,3.422,6.822
			c-2.746-0.14-5.494-0.279-8.234-0.422c0.252-4.361-2.727-2.949-4.994-2.793c0,0,0.228,0.211,0.224,0.211
			c-9.644-17.637-21.394-32.933-42.265-38.112c-6.242-6.393-18.601,5.243-22.629-7.676c0.037-0.757,0.17-1.494,0.41-2.21
			c3.196-0.729,6.396-1.456,9.584-2.185c2.471,0.09,4.942,0.178,7.406,0.268c0.918,0.646,1.837,1.289,2.754,1.939
			c2.391,1.035,4.785,2.083,7.176,3.122c2.27,7.415,6.621,3.145,10.44,1.86c3.312,2.474,6.621,4.942,9.933,7.409l-0.041,0.013
			C374.486,332.888,375.381,333.717,376.275,334.547z"/>
		<path fill="#7C7C7C" d="M203.773,112.383c0.758-7.865-6.979-14.906-2.257-23.158c6.25,10.276,8.872,22.794,18.946,30.71
			c0.967,0.717,1.931,1.437,2.896,2.156l-0.046-0.06c0.755,0.915,1.513,1.831,2.269,2.746l0.033-0.039
			c0.83,0.865,1.66,1.73,2.488,2.595l-0.016-0.094c0.834,1.165,1.666,2.329,2.5,3.491c-0.305,0.481-0.201,0.847,0.307,1.101
			c0.11,1.738,0.22,3.479,0.33,5.219c-5.768,6.272-11.832,11.91-21.424,9.956C208.057,135.42,209.655,123.249,203.773,112.383z"/>
		<path fill="#7C7C7C" d="M137.181,327.156c-3.511,1.087-6.961,2.466-10.546,3.19c-7.752,1.574-18.461,11.146-21.7,5.416
			c-3.661-6.475,10.742-9.082,14.956-15.676c5.273-0.484,8.984-2.988,10.624-8.18c0,0-0.076-0.021-0.075-0.021
			c5.068-1.312,10.136-2.629,15.204-3.942c6.262,2.469,7.246,7.83,7.471,13.607c-0.598,0.285-1.02,0.736-1.261,1.354
			C146.961,324.322,142.07,325.738,137.181,327.156z"/>
		<path fill="#D7D7D7" d="M124.855,269.172c2.609-5.613,9.813-9.298,7.169-17.112c4.352,0.945,8.714,1.893,13.076,2.843
			c1.009,0.761,2.015,1.52,3.025,2.279c4.029,5.019,5.848,10.744,5.54,17.159c-5.453,6.293-11.32,11.91-20.311,12.418
			C130.075,281.111,134.166,271.904,124.855,269.172z"/>
		<path fill="#727272" d="M348.562,329.506c20.869,5.18,32.621,20.479,42.263,38.113c-15.399-2.958-24.156-19.107-40.416-20.354
			c-2.505-1.72-5.005-3.438-7.502-5.153C344.691,337.864,339.562,330.515,348.562,329.506z"/>
		<path fill="#7C7C7C" d="M218.61,88.482c-0.129-7.197-0.26-14.393-0.388-21.588c7.378,4.644,6.093,13.543,9.788,20.036
			c3.746,6.58,6.805,13.553,10.163,20.353c0.915,5.688,1.83,11.377,2.744,17.068c-0.864,0.185-1.726,0.366-2.588,0.55
			c-4.583-1.535-9.165-3.069-13.746-4.604c-1.072,0.104-1.495,0.684-1.27,1.737c0,0,0.046,0.06,0.048,0.06
			c0.411-0.786,0.825-1.573,1.239-2.361c-0.479-1.702-0.957-3.407-1.434-5.109C221.646,105.909,220.128,97.194,218.61,88.482z"/>
		<path fill="#898989" d="M124.855,269.172c9.31,2.73,5.219,11.941,8.499,17.589c-0.866,0.205-1.734,0.41-2.601,0.616
			c-12.411,1.583-24.821,3.162-37.23,4.75c-6.151,0-12.304,0-20.863,0c15.565-6.395,29.053-11.936,42.537-17.477
			c-0.002,0,0.325-0.156,0.325-0.156c1.549-0.803,3.099-1.61,4.644-2.413c-0.003,0,0.313-0.185,0.313-0.185
			C121.94,270.986,123.399,270.079,124.855,269.172z"/>
		<path fill="#7C7C7C" d="M393.355,229.884c-6.901-5.748-8.229-12.854-5.141-21.04c14.259,2.739,27.973-0.114,41.565-4.111
			c5.396,0.009,11.229-2.862,15.827,2.406C427.807,213.836,408.457,216.979,393.355,229.884z"/>
		<path fill="#B7B7B7" d="M188.523,385.723c-4.113-5.32,9.402-24.709-12.583-15.771c-2.545-0.021-5.091-0.032-7.635-0.052
			c3.579-4.258,7.158-8.515,10.731-12.772c7.776,4.613,14.234,5.227,16.688-5.681c1.053-4.686,1.892-9.419,2.828-14.129
			l-0.186,0.056c0.837-0.216,1.676-0.422,2.515-0.635c0.81,0.041,1.619,0.078,2.43,0.106c5.226,6.164-2.662,12.503,0.244,18.699
			c0.044,0.457-0.079,0.854-0.371,1.204c-4.735,1.424-5.905,4.049-2.751,8.138c4.861,8.189-4.074,12.958-4.9,19.738l0.064-0.146
			C193.24,384.895,190.883,385.31,188.523,385.723z"/>
		<path fill="#ADADAD" d="M362.672,177.153c-9.156-0.21-2.979,13.921-12.502,13.374c-0.596-0.305-1.189-0.602-1.789-0.891
			c-0.079-1.851-0.161-3.7-0.24-5.55c0.318-0.511,0.655-1.012,1.006-1.502c4.725-5,7.826-10.774,8.488-17.718
			c0.663-1.503,1.326-3.007,1.993-4.51c10.199-2.286,7.606-17.139,18.457-18.783c0.028,0.412,0.235,0.936,0.062,1.222
			c-10.062,16.444-6.194,22.082,12.554,16.236C384.257,169.564,367.896,164.746,362.672,177.153z"/>
		<path fill="#ADADAD" d="M393.059,272.585c-5.039,2.106-4.766-1.617-5.106-4.655c0.952-4.037-1.188-6.492-4.312-8.453
			c-0.117-0.717-0.23-1.429-0.354-2.146c5.883-1.424,11.63,5.342,17.578,0.305c4.646,0.91,9.291,1.817,13.938,2.728
			c1.241,0.386,2.483,0.771,3.729,1.154c0.811,0.195,1.624,0.394,2.437,0.588c5.075,0.155,10.15,0.312,15.226,0.471
			c-3.254,2.162-11.643,0.792-6.188,8.966c-3.814,1.701-7.63,3.396-11.438,5.091c-3.363,0.127-6.731,0.256-10.1,0.385
			c-1.662-2.451-3.313-4.898-4.974-7.353c1.583-0.201,3.171-0.399,4.758-0.604c-0.248-0.504-0.495-1.006-0.743-1.506
			c-1.339,0.7-2.68,1.4-4.022,2.103C400.143,271.092,394.775,265.35,393.059,272.585z"/>
		<path fill="#7C7C7C" d="M163.308,162.038c-0.011-0.788-0.205-1.527-0.577-2.222c-2.198-2.694-4.397-5.386-6.596-8.078
			c0,0-0.019,0.096-0.019,0.097c-3.19-5.705-6.379-11.408-9.569-17.109c4.642,2.273,9.283,4.545,13.929,6.819
			c3.122,4.555,7.024,7.846,12.866,8.03l-0.062-0.042c2.919,6.414,8.797,8.374,14.945,9.922c0.336,0.809,0.669,1.616,1.003,2.427
			c-4.396,4.305-8.078,9.63-14.933,10.399C170.636,168.865,166.972,165.451,163.308,162.038z"/>
		<path fill="#727272" d="M362.672,177.153c5.229-12.407,21.589-7.589,28.025-18.121c0.002-0.003,0.169,0.469,0.169,0.469
			c4.329,0.068,8.659,0.138,12.982,0.208c-1.753,2.293-3.501,4.593-5.255,6.893c-1.711,1.04-3.419,2.078-5.121,3.115l0.141-0.145
			c-1.692,1.723-3.389,3.444-5.084,5.166l0.117-0.124c-4.451,5.17-8.905,10.341-13.359,15.512
			C365.501,191.229,365.215,183.095,362.672,177.153z"/>
		<path fill="#898989" d="M378.085,141.575c-10.851,1.643-8.261,16.498-18.466,18.781c-2.961-1.02-5.917-2.039-8.873-3.059
			c1.674-1.691,3.35-3.386,5.021-5.076c7.52-10.101,15.043-20.197,22.562-30.295c3.94,6.194,11.971-5.875,12.657,1.235
			C391.708,130.619,384.027,136.455,378.085,141.575z"/>
		<path fill="#ADADAD" d="M375.286,190.126c4.454-5.17,8.903-10.342,13.358-15.512c4.141,11.469,10.348,1.449,15.555,1.411
			c4.527-0.035,9.715-7.399,12.98-1.565c2.484,4.426-4.872,6.706-8.29,8.69c-7.342,4.263-10.125,15.384-21.09,14
			C386.576,189.513,381.521,188.767,375.286,190.126z"/>
		<path fill="#7C7C7C" d="M378.33,121.927c-7.52,10.098-15.043,20.195-22.562,30.295c-2.479-2.529-4.963-5.058-7.447-7.586
			c8.425-9.43,16.851-18.862,25.271-28.292c5.471-5.101,10.936-10.202,18.32-17.096C389.77,110.655,383.283,115.802,378.33,121.927z
			"/>
		<path fill="#ADADAD" d="M355.926,396.777c-0.261,2.862-0.517,5.729-1.523,16.844c-4.114-24.724-19.766-37.365-16.459-56.729
			c2.267,0.103,4.515,0.202,6.763,0.305C356.292,368.158,350.18,384.149,355.926,396.777z"/>
		<path fill="#7C7C7C" d="M149.339,149.614c-0.034,5.783,12.548,10.236,1.811,17.149c-11.014-13.953-22.026-27.907-36.589-46.361
			c9.222,5.869,13.841,8.808,18.462,11.749C138.462,137.972,143.901,143.792,149.339,149.614z"/>
		<path fill="#ADADAD" d="M393.355,229.884c15.102-12.906,34.448-16.047,52.255-22.745c3.289,1.621,6.578,3.239,9.864,4.862
			c-4.511,0.074-9.491-1.076-13.43,0.464c-8.758,3.426-20.247,3.082-23.871,14.877c-5.387,2.999-10.77,5.996-16.16,8.991
			C399.12,234.182,396.24,232.033,393.355,229.884z"/>
		<path fill="#727272" d="M75.584,229.918c-0.833-0.109-1.665-0.218-2.498-0.326c12.248-6.218,25.222-0.915,37.764-2.392
			l-0.043-0.21c-1.644,1.621-3.287,3.241-4.931,4.862c1.868,8.757,8.392,4.426,13.271,4.723c6.353,0.141,12.704,0.281,19.056,0.42
			c3.623,4.208,14.176,2.97,10.285,13.086c-0.723,0.842-1.443,1.682-2.166,2.523c-8.661-7.865-20.662-6.768-30.54-11.372
			c-1.157-0.379-2.313-0.76-3.468-1.14c-3.037-0.092-6.073-0.187-9.109-0.279l0.167-0.458c-1.02-2.351-2.042-4.699-3.063-7.048
			C92.462,227.455,83.768,231.332,75.584,229.918z"/>
		<path fill="#7C7C7C" d="M148.66,379.683c-6.023,5.319-12.044,10.64-18.066,15.955c-0.59-0.604-1.182-1.21-1.774-1.812
			c6.627-8.78,13.257-17.562,19.887-26.345c7.269-6.94,14.537-13.884,21.804-20.82c1.978,2.582,3.955,5.161,5.931,7.744
			C167.18,362.828,157.919,371.253,148.66,379.683z"/>
		<path fill="#7C7C7C" d="M276.184,365.542c7.434-1.17,15.461-5.572,20.95,3.849c-0.721,4.721-1.442,9.438-2.163,14.157
			c-0.562,0.347-1.094,0.737-1.591,1.165c-1.134-5.521,1.524-15.219-7.356-13.903c-9.188,1.359-3.898,9.739-2.737,15.275
			c1.509,7.166,3.401,14.257,5.135,21.375c-0.016,0.899-0.022,1.805-0.028,2.705c-3.209-5.654-6.41-11.312-9.619-16.971
			C278.814,383.89,271.719,375.258,276.184,365.542z"/>
		<path fill="#B7B7B7" d="M295.35,117.615c4.192-2.951,8.393-5.902,12.586-8.852c0.213,2.046,0.422,4.088,0.633,6.13
			c-0.139,1.545-0.274,3.093-0.414,4.641c-5.141,9.41-10.287,18.821-15.438,28.232c-1.517-1.274-3.037-2.551-4.555-3.827
			c-8.848-11.239,13.49-14.689,6.365-25.498L295.35,117.615z"/>
		<path fill="#ADADAD" d="M308.566,114.896c-0.211-2.044-0.418-4.087-0.631-6.133c0.875-1.473,1.75-2.946,2.627-4.417
			c1.869-0.862,3.736-1.721,5.606-2.583c0.832,1.744,1.658,3.486,2.487,5.229c-0.121,8.562-0.245,17.127-0.366,25.691
			c-0.694,6.458-1.39,12.912-2.086,19.368c-1.763,0.83-3.522,1.659-5.283,2.489c-0.819-0.793-1.64-1.586-2.457-2.38
			c0.966-8.153,1.929-16.304,2.892-24.458c0.522-1.082,1.054-2.161,1.576-3.242c0.139-1.615,0.276-3.23,0.416-4.847
			c-0.234-2.201-0.473-4.4-0.703-6.603C311.283,113.639,309.924,114.268,308.566,114.896z"/>
		<path fill="#B7B7B7" d="M317.536,367.163c6.049,6.113,13.896,10.829,15.729,20.221c-15.535-7.245-24.76-5.186-22.354,14.836
			c0.407,3.391,1.664,7.556-2.694,9.882c-0.511-10.642,1.047-21.596-4.617-31.484c3.186-3.009,9.353-2.631,9.852-8.688
			C314.812,370.339,316.176,368.751,317.536,367.163z"/>
		<path fill="#727272" d="M420.963,262.102c-0.811-0.193-1.624-0.393-2.438-0.588c-1.243-0.382-2.485-0.771-3.729-1.154
			c-4.646-0.906-9.294-1.814-13.938-2.728c-7.14-2.62-14.277-5.241-21.415-7.861c2.648-16.219,11.631,1.429,16.469-3.079
			c6.638,2.048,13.278,4.098,19.912,6.146c1.665,0.605,3.322,1.211,4.979,1.818l0.29,0.064
			C424.321,257.239,424.636,259.706,420.963,262.102z"/>
		<path fill="#9D9D9D" d="M381.382,314.125c16.571-2.158,31.215,5.406,46.623,9.146c2.885,0.699,9.964,6.005,5.312-3.926
			c4.239,1.89,7.35,4.691,7.74,9.671c-3.587-0.372-7.427-0.048-10.714-1.232c-15.872-5.729-32.549-6.294-49.018-8.28
			C381.343,317.703,381.363,315.914,381.382,314.125z"/>
		<path fill="#8F8F8F" d="M234.385,382.358c2.817,0.094,5.635,0.186,8.459,0.275c1.232,15.684-7.243,31.857,2.399,47.114
			l1.016-0.029c-1.981,7.771-3.963,15.545-5.944,23.32C239.514,429.077,237.912,405.652,234.385,382.358z"/>
		<path fill="#D7D7D7" d="M348.32,144.636c2.484,2.528,4.966,5.057,7.447,7.586c-1.672,1.691-3.351,3.385-5.02,5.077
			c-3.141,0.763-6.271,1.529-9.42,2.296c-0.979-10.286-16.188-13.37-13.03-25.747c1.552,0.216,3.101,0.431,4.646,0.646
			c3.228,1.592,6.451,3.185,9.676,4.777C344.523,141.06,346.42,142.847,348.32,144.636z"/>
		<path fill="#ADADAD" d="M276.184,365.542c-4.465,9.716,2.629,18.348,2.586,27.652c-10.354-15.374-8.5,2.434-12.41,4.57
			c-0.825-5.741-1.654-11.485-2.481-17.235c0.267-0.832,0.532-1.656,0.797-2.481c3.739-2.3,5.029-4.994,1.354-8.473
			c2.507-5.136,5.009-10.271,7.512-15.403c0.82-0.704,1.641-1.406,2.463-2.105c0.866-0.032,1.734-0.071,2.6-0.105
			C281.09,357.074,278.534,361.29,276.184,365.542z"/>
		<path fill="#898989" d="M176.334,111.522c-2.007-4.762-4.111-9.486-5.966-14.307c-0.625-1.628-0.622-3.499-0.907-5.259
			c2.058,0.938,4.118,1.876,6.175,2.813c0.692,4.856,3.809,7.681,8.028,9.58l-0.086-0.145c1.219,5.887,3.079,11.263,10.029,12.58
			c0,0-0.005-0.045-0.007-0.045c-0.634,6.838-1.305,13.702,8.97,13.032c0.133,0.445,0.324,0.865,0.57,1.258
			c-4.107,1.421-8.213,2.84-12.323,4.26C186.898,126.817,184.332,117.516,176.334,111.522z"/>
		<path fill="#7C7C7C" d="M272.984,85.059c1.035-4.877,2.072-9.755,3.104-14.641c10.537,5.013,2.218,14.435,4.968,21.275
			c-1.699,7.48-3.4,14.96-5.104,22.441c-1.638,0.12-3.271,0.241-4.905,0.36C271.697,104.684,272.341,94.873,272.984,85.059z"/>
		<path fill="#ADADAD" d="M135.905,210.208c-6.747-6.008-13.494-12.024-20.241-18.037c2.568-0.835,5.136-1.669,7.703-2.507
			c10.804-0.799,15.761,10.104,24.977,12.479c0.83,0.777,1.66,1.556,2.487,2.333c0.153,1.628,0.305,3.254,0.454,4.881
			c-1.445-0.699-2.889-1.394-4.333-2.092C140.51,197.896,139.068,207.284,135.905,210.208z"/>
		<path fill="#ADADAD" d="M260.958,404.465c-2.399,7.292-6.187,13.823-4.641,22.545c0.828,4.67-6.705,1.057-10.057,2.712
			l-1.016,0.029c2.539-10.057,5.077-20.112,7.617-30.168c0.767-1.728,1.532-3.449,2.298-5.179l-0.036-0.354
			C257.066,397.524,259.014,400.995,260.958,404.465z"/>
		<path fill="#D7D7D7" d="M190.819,135.291c4.108-1.42,8.214-2.839,12.323-4.26c1.06,5.309,2.12,10.617,3.178,15.925
			c-4.764,5.148-13.853,0.425-17.671,7.739c-1.274-1.171-2.547-2.341-3.823-3.51c-0.143-3.122-0.286-6.244-0.433-9.367
			C186.533,139.64,188.677,137.467,190.819,135.291z"/>
		<path fill="#B7B7B7" d="M105.877,231.851c1.645-1.619,3.288-3.238,4.932-4.859c8.423-1.588,16.847-3.177,25.269-4.765
			c2.46,0.252,4.923,0.506,7.382,0.752c0.727,1.298,1.456,2.603,2.187,3.909c-9.164,2.57-18.324,5.14-27.486,7.71
			C114.065,233.68,109.97,232.765,105.877,231.851z"/>
		<path fill="#8F8F8F" d="M123.367,189.664c-2.567,0.837-5.135,1.672-7.703,2.507l0.061,0.027c-2.639-1.688-5.279-3.377-7.917-5.066
			c-3.612-3.229-13.924-5.95-10.075-9.089c7.652-6.24,17.37,0.425,25.862,3.878C119.313,184.379,122.416,187.055,123.367,189.664z"
			/>
		<path fill="#9D9D9D" d="M303.602,380.611c5.662,9.892,4.106,20.845,4.617,31.486c-8.979,2.792-2.012-14.889-12.709-9.896
			c-0.52-0.003-1.039,0.015-1.559,0.053c-0.191-5.85-0.387-11.697-0.574-17.542c0.5-0.428,1.029-0.815,1.596-1.157
			c0.49,3.738,0.979,7.472,1.743,13.301c1.746-6.95,2.964-11.801,4.179-16.641C301.8,380.346,302.698,380.479,303.602,380.611z"/>
		<path fill="#727272" d="M318.658,106.992c-0.831-1.742-1.658-3.485-2.487-5.229c-0.014-0.736-0.218-1.415-0.618-2.031
			c5.797-9.437,2.947-23.079,14.463-29.73c1.836,10.771-3.979,19.961-6.057,29.926c-0.264,1.26,1.195,2.879,1.857,4.333
			c-0.871,1.622-1.748,3.242-2.621,4.866C321.684,108.418,320.17,107.704,318.658,106.992z"/>
		<path fill="#727272" d="M418.174,227.343c3.625-11.796,15.114-11.452,23.872-14.877c3.935-1.541,8.919-0.39,13.43-0.464
			C444.689,221.123,430.447,221.842,418.174,227.343z"/>
		<path fill="#898989" d="M168.303,369.902c2.545,0.017,5.09,0.027,7.637,0.049c-8.217,7.925-15.675,16.922-24.903,23.403
			c-6.724,4.724-2.929-1.854-2.351-3.987c0.642-2.365,1.672-4.624,2.533-6.936c3.223-2.452,6.446-4.914,9.669-7.368
			c2.513-1.763,5.025-3.521,7.54-5.277L168.303,369.902z"/>
		<path fill="#ADADAD" d="M115.786,241.231c9.878,4.604,21.879,3.505,30.541,11.369c-0.409,0.764-0.817,1.533-1.226,2.301
			c-4.362-0.949-8.724-1.896-13.076-2.843c-7.754-8.425-22.505-0.407-28.815-12.247c3.036,0.093,6.073,0.188,9.111,0.279
			C113.479,240.472,114.632,240.853,115.786,241.231z"/>
		<path fill="#ADADAD" d="M137.181,327.156c4.889-1.418,9.78-2.834,14.672-4.238c0.343,0.711,0.82,1.301,1.433,1.781
			c-0.059,2.188-0.117,4.376-0.177,6.562c1.761-0.602,3.525-1.203,5.288-1.806c0.639,1.185,1.279,2.37,1.922,3.553
			c-4.153,1.884-8.255,3.886-12.471,5.622c-5.226,2.152-10.544,4.084-15.821,6.113c1.3-6.813,8.058-8.279,12.126-12.38
			c1.048-1.06,2.066-2.146,3.096-3.212C143.892,328.488,140.537,327.822,137.181,327.156z"/>
		<path fill="#727272" d="M188.523,385.723c2.359-0.413,4.717-0.828,7.074-1.238c0.775,1.896,1.548,3.795,2.322,5.688
			c-3.32,4.582-6.216,9.568-10.088,13.627c-3.503,3.666-4.29,12.426-10.125,10.21c-2.441-0.926,0.748-10.351,4.845-15.296
			C185.489,395.167,186.6,390.107,188.523,385.723z"/>
		<path fill="#7C7C7C" d="M123.367,189.664c-0.951-2.609-4.053-5.285,0.228-7.744c1.339,0.095,2.675,0.19,4.007,0.283
			c6.714,3.191,13.433,6.386,20.153,9.579c1.096,0.262,2.189,0.523,3.283,0.784c-0.899,3.193-1.796,6.385-2.695,9.577
			C139.128,199.768,134.17,188.865,123.367,189.664z"/>
		<path fill="#ADADAD" d="M93.525,292.126c12.409-1.585,24.819-3.166,37.229-4.751c-0.944,8.986-9.893,8.48-14.947,12.598
			l-0.188-1.102C108.254,296.623,100.89,294.375,93.525,292.126z"/>
		<path fill="#9D9D9D" d="M213.709,407.904c-0.851,1.309-1.573,3.624-2.576,3.749c-4.288,0.544-2.854-2.855-2.714-4.962
			c0.548-8.243,1.268-16.479,1.927-24.717l0.365,0.139c4.164-0.79,8.325-1.577,12.488-2.368l0.148,0.082
			c-1.806,6.356-3.612,12.721-5.417,19.083c0,0-0.235,0.732-0.234,0.73C216.367,402.399,215.037,405.152,213.709,407.904z"/>
		<path fill="#ADADAD" d="M429.783,204.734c-13.592,3.997-27.308,6.85-41.565,4.111c0.128-1.935,0.255-3.871,0.38-5.799
			C402.325,203.613,416.053,204.172,429.783,204.734z"/>
		<path fill="#B7B7B7" d="M293.133,92.07c-6.062,9.104,4.771,16.739,2.219,25.542c-0.002,0.004-0.822,0.831-0.812,0.825
			c-2.021-0.484-4.049-0.962-6.077-1.441c-1.65-6.668-3.299-13.339-4.943-20.008c-0.076-1.584-0.156-3.165-0.229-4.747
			c0.129-3.57,0.262-7.141,0.396-10.712c1.539-0.792,3.08-1.585,4.623-2.377c0.078,3.395,0.159,6.785,0.239,10.178
			c-0.438,1.29-0.88,2.578-1.317,3.867c1.278-0.439,2.567-0.878,3.853-1.316C291.771,91.879,292.455,91.942,293.133,92.07z"/>
		<path fill="#9D9D9D" d="M332.948,134.493c-1.55-0.214-3.099-0.43-4.647-0.641c0.002,0.003,0.12-0.844,0.12-0.844
			c-0.067-2.967-0.128-5.935-0.188-8.903c5.641-7.275,11.279-14.55,16.918-21.823c0.854,0.503,1.715,1.011,2.564,1.515
			C342.794,114.03,337.87,124.261,332.948,134.493z"/>
		<path fill="#ADADAD" d="M218.61,88.482c1.519,8.713,3.036,17.427,4.556,26.14c-0.589,1.461-1.176,2.925-1.764,4.387
			c-0.315,0.308-0.627,0.616-0.939,0.928c-10.073-7.916-12.695-20.434-18.945-30.71c3.123-2.148,3.151,1.215,4.386,2.444
			c4.192,4.184,4.415,11.61,11.189,13.681C217.597,99.728,218.104,94.103,218.61,88.482z"/>
		<path fill="#9D9D9D" d="M160.889,375.06c-3.223,2.458-6.445,4.917-9.669,7.373c-0.853-0.914-1.708-1.829-2.56-2.749
			c9.26-8.431,18.521-16.854,27.781-25.28c0.866,0.907,1.734,1.815,2.603,2.729c-3.579,4.258-7.158,8.518-10.737,12.77
			c-0.001,0.002,0.123-0.118,0.123-0.118C164.793,369.937,159.932,368.34,160.889,375.06z"/>
		<path fill="#ADADAD" d="M272.984,85.059c-0.646,9.813-1.287,19.623-1.938,29.435c-0.354,0.766-0.709,1.534-1.062,2.297
			c-3.521,2.165-7.006,4.152-8.84-1.826C265.094,104.998,269.042,95.028,272.984,85.059z"/>
		<path fill="#8F8F8F" d="M348.32,144.636c-1.9-1.79-3.797-3.576-5.698-5.365c10.326-7.64,20.646-15.282,30.969-22.925
			C365.168,125.774,356.742,135.207,348.32,144.636z"/>
		<path fill="#D7D7D7" d="M160.317,333.013c-0.641-1.184-1.283-2.37-1.922-3.553c3.66-1.05,7.325-2.1,10.987-3.149
			c-6.489,4.66,20.579,12.634-1.551,15.757c-1.907-0.61-3.815-1.225-5.722-1.833C161.511,337.827,160.915,335.421,160.317,333.013z"
			/>
		<path fill="#B7B7B7" d="M240.917,124.347c-0.915-5.688-1.831-11.377-2.745-17.065c4.34,2.518,4.511-9.091,9.925-2.93
			c-0.144,6.655-0.289,13.309-0.429,19.965C245.42,124.328,243.167,124.337,240.917,124.347z"/>
		<path fill="#8F8F8F" d="M260.958,404.465c-1.944-3.47-3.888-6.938-5.835-10.407c0.353-2.896,0.697-5.799,1.041-8.692
			c0.879-2.088,1.761-4.179,2.641-6.263c1.689,0.484,3.385,0.963,5.077,1.438c0.823,5.742,1.652,11.485,2.478,17.228
			C264.561,400.001,262.761,402.233,260.958,404.465z"/>
		<path fill="#9D9D9D" d="M190.819,135.291c-2.143,2.176-4.286,4.347-6.425,6.525c-2.683-10.095-5.369-20.192-8.057-30.291
			C184.332,117.516,186.898,126.817,190.819,135.291z"/>
		<path fill="#8F8F8F" d="M162.11,340.233c1.907,0.609,3.814,1.222,5.726,1.835c0.894,1.526,1.786,3.062,2.674,4.591
			c-7.267,6.938-14.536,13.88-21.804,20.82C153.173,358.397,157.642,349.316,162.11,340.233z"/>
		<path fill="#B7B7B7" d="M206.321,146.957c-1.061-5.309-2.121-10.616-3.18-15.925c-0.247-0.393-0.438-0.813-0.568-1.257
			c-0.74-2.982-1.483-5.962-2.225-8.947c1.141-2.817,2.28-5.633,3.422-8.449c5.885,10.87,4.287,23.04,6.033,34.625
			c-0.604-0.021-1.12,0.186-1.545,0.619C207.649,147.296,207.004,147.072,206.321,146.957z"/>
		<path fill="#ADADAD" d="M149.339,149.614c-5.438-5.821-10.877-11.642-16.315-17.463c0.974-1.744,1.95-3.489,2.926-5.233
			l-0.125,0.135c6.242-1.169,7.123,5.145,10.718,7.674c3.194,5.701,6.384,11.404,9.575,17.107
			C153.857,151.093,151.6,150.354,149.339,149.614z"/>
		<path fill="#898989" d="M118.295,307.364c-7.076,1.313-14.151,2.63-21.226,3.943c-0.343-0.825-0.685-1.652-1.027-2.482
			c6.525-3.318,13.052-6.636,19.577-9.955l0.188,1.101c1.844,0.902,3.686,1.81,5.529,2.709
			C120.322,304.241,119.309,305.805,118.295,307.364z"/>
		<path fill="#898989" d="M288.384,410.168c0.009-0.9,0.021-1.807,0.034-2.707c1.59-0.796,3.182-1.594,4.773-2.387
			c0.738,2.377,1.472,4.752,2.205,7.124c0.352,7.734,0.699,15.465,1.396,31.055C291.277,427.469,287.241,419.523,288.384,410.168z"
			/>
		<path fill="#D7D7D7" d="M261.15,114.967c1.836,5.978,5.316,3.99,8.843,1.824c3.437,6.69,11.282,3.301,16.651,6.926
			c-8.598,3.958-21.324-4.925-25.377,9.355c-1.051-1.85-2.1-3.688-3.148-5.525c-0.814-3.744-1.625-7.488-2.439-11.231l-0.145-0.418
			l0.906-0.604C258.009,115.184,259.578,115.074,261.15,114.967z"/>
		<path fill="#CCCCCC" d="M293.133,92.07c-0.678-0.126-1.359-0.191-2.056-0.19c-0.845-0.849-1.688-1.7-2.532-2.551
			c-0.08-3.393-0.16-6.784-0.24-10.178c0.689-6.455,1.383-12.908,2.075-19.363c0.918,0.03,1.836,0.061,2.753,0.091
			C293.133,70.609,293.133,81.341,293.133,92.07z"/>
		<path fill="#898989" d="M403.851,159.709c-4.324-0.072-8.659-0.14-12.982-0.208c4.812-2.707,9.434-5.891,14.504-7.961
			c3.676-1.498,8.479-7.923,11.164-2.662c1.953,3.835-4.13,7.681-9.468,8.142c-1.171,0.915-2.343,1.829-3.512,2.742L403.851,159.709
			z"/>
		<path fill="#7C7C7C" d="M420.963,262.102c3.673-2.396,3.355-4.859,0.132-7.377c5.166,0.548,10.327,1.123,15.501,1.643
			c3.61,0.361,7.269,0.588,8.893,4.693c-3.102,0.504-6.2,1.008-9.3,1.515C431.113,262.414,426.038,262.257,420.963,262.102z"/>
		<path fill="#ADADAD" d="M118.295,307.364c1.013-1.562,2.026-3.123,3.04-4.685c1.443-0.01,2.887-0.021,4.333-0.027
			c10.242,2.93,20.433,3.764,30.501-0.691c1.358,0.375,2.711,0.751,4.067,1.128c-1.996,10.241-9.845,2.886-14.594,4.854
			c-5.067,1.313-10.136,2.634-15.204,3.945C129.022,303.316,122.169,309.343,118.295,307.364z"/>
		<path fill="#ADADAD" d="M110.852,227.2c-12.544,1.478-25.518-3.825-37.764,2.392c-4.169-1.051-8.334-2.103-12.502-3.155
			C77.497,226.053,94.315,222.039,110.852,227.2z"/>
		<path fill="#8F8F8F" d="M247.667,124.316c0.141-6.656,0.286-13.31,0.43-19.965c0.376-2.734,0.748-5.471,1.124-8.205
			c1.361,2.52,3.04,4.925,4,7.592c1.354,3.748,2.171,7.686,3.219,11.549c0,0.004-0.906,0.61-0.909,0.598
			c-9.564-0.187,0.594,10.561-6.516,11.744C248.563,126.525,248.115,125.419,247.667,124.316z"/>
		<path fill="#D7D7D7" d="M143.464,222.984c-2.464-0.253-4.926-0.507-7.386-0.759c-0.056-4.005-0.113-8.013-0.172-12.018
			c3.163-2.919,4.605-12.312,11.038-2.947C140.868,211.415,144.41,217.697,143.464,222.984z"/>
		<path fill="#B7B7B7" d="M418.562,276.631c3.81-1.695,7.618-3.395,11.438-5.093c3.682-0.544,7.643-4.226,10.808,0.878
			c0.602,0.963,0.812,2.164,1.203,3.257c-3.373,0.517-6.729,1.359-10.118,1.466C427.461,277.273,423.009,276.827,418.562,276.631z"
			/>
		<path fill="#9D9D9D" d="M75.584,229.918c8.184,1.414,16.877-2.463,24.728,2.389c-4.499,0.819-8.999,1.637-13.498,2.455
			C82.321,234.89,77.007,236.915,75.584,229.918z"/>
		<path fill="#ADADAD" d="M283.68,81.528c-0.132,3.571-0.264,7.142-0.393,10.71c-0.732-0.222-1.475-0.404-2.229-0.548
			c-2.75-6.838,5.568-16.26-4.969-21.273c-0.302-3.27,0.051-8.659,3.598-7.043C287.682,67.019,281.875,75.454,283.68,81.528z"/>
		<path fill="#B7B7B7" d="M328.229,124.106c0.062,2.967,0.123,5.935,0.187,8.896c-1.771,0.215-3.547,0.438-5.326,0.66
			c0.035-8.178,0.071-16.357,0.104-24.534c0.873-1.624,1.75-3.244,2.619-4.866C327.77,110.737,322.799,118.053,328.229,124.106z"/>
		<path fill="#ADADAD" d="M184.826,151.185c1.275,1.169,2.549,2.34,3.819,3.493c-0.141,1.582-0.277,3.18-0.417,4.777
			c-6.149-1.547-12.026-3.508-14.945-9.922C177.129,150.083,180.979,150.632,184.826,151.185z"/>
		<path fill="#ADADAD" d="M217.929,398.914c1.806-6.358,3.611-12.721,5.417-19.082c1.662,0.373,3.325,0.75,4.988,1.126
			c0,0-0.161,0.146-0.164,0.14C224.756,387.03,221.343,392.972,217.929,398.914z"/>
		<path fill="#B7B7B7" d="M393.059,272.585c1.719-7.235,7.084-1.493,10.435-2.929l0.009,0.005c1.654,2.45,3.309,4.899,4.971,7.353
			c-3.788,2.832-7.736,3.447-11.896,0.834c0.699-1.427,1.396-2.838,2.093-4.25C396.791,273.26,394.925,272.922,393.059,272.585z"/>
		<path fill="#9D9D9D" d="M200.348,120.829c0.741,2.983,1.485,5.965,2.225,8.947c-10.277,0.668-9.605-6.196-8.972-13.034
			C195.851,118.104,198.098,119.467,200.348,120.829z"/>
		<path fill="#D7D7D7" d="M368.182,321.675c3.914-16.772,6.487,6.72,10.053,0.335c-1.77,2.559-3.533,5.113-5.301,7.672
			C371.354,327.012,369.768,324.345,368.182,321.675z"/>
		<path fill="#9D9D9D" d="M193.608,116.786c-6.949-1.319-8.809-6.693-10.029-12.581
			C189.105,106.659,192.318,110.955,193.608,116.786z"/>
		<path fill="#7C7C7C" d="M86.815,234.761c4.499-0.819,8.999-1.638,13.498-2.455c1.021,2.348,2.042,4.698,3.062,7.047
			C97.212,240.138,91.797,238.235,86.815,234.761z"/>
		<path fill="#CCCCCC" d="M368.182,321.675c1.586,2.671,3.168,5.335,4.752,8.007c0.307,0.768,0.541,1.558,0.701,2.361
			c-3.31-2.473-6.621-4.943-9.934-7.409c-0.045-1.029-0.09-2.058-0.133-3.087C365.107,321.59,366.643,321.633,368.182,321.675z"/>
		<path fill="#9D9D9D" d="M183.665,104.349c-4.22-1.9-7.336-4.724-8.028-9.58C181.979,94.891,182.542,99.854,183.665,104.349z"/>
		<path fill="#ADADAD" d="M173.345,149.574c-5.842-0.184-9.745-3.475-12.867-8.03C164.763,144.219,169.054,146.896,173.345,149.574z
			"/>
		<path fill="#898989" d="M197.919,390.172c-0.773-1.896-1.547-3.794-2.322-5.688l-0.064,0.146c3.005-0.406,6.01-0.81,9.014-1.218
			c0.314,0.326,0.646,0.639,0.997,0.928C203.002,386.285,200.46,388.229,197.919,390.172z"/>
		<path fill="#B7B7B7" d="M333.293,387.396c4.953,1.896,7.505,5.567,7.982,10.782C337.652,395.303,333.154,393.062,333.293,387.396z
			"/>
		<path fill="#ADADAD" d="M130.516,311.906c-1.64,5.189-5.351,7.698-10.624,8.18C123.43,317.362,126.972,314.633,130.516,311.906z"
			/>
		<path fill="#ADADAD" d="M107.808,187.133c2.638,1.688,5.278,3.377,7.917,5.066C113.086,190.509,110.448,188.821,107.808,187.133z"
			/>
		<path fill="#898989" d="M210.345,381.98c-1.6,0.785-3.202,1.569-4.8,2.357c-0.352-0.293-0.683-0.603-0.992-0.926
			c1.809-2.099,3.612-4.201,5.415-6.31c0.249,1.673,0.496,3.343,0.742,5.011L210.345,381.98z"/>
		<path fill="#ADADAD" d="M213.709,407.904c1.328-2.752,2.658-5.505,3.986-8.264C216.366,402.399,215.036,405.152,213.709,407.904z"
			/>
		<path fill="#ADADAD" d="M295.398,412.197c-0.735-2.374-1.469-4.752-2.203-7.129c0.255-0.94,0.509-1.877,0.759-2.813
			c0.517-0.038,1.036-0.056,1.556-0.053C295.473,405.536,295.438,408.868,295.398,412.197z"/>
		<path fill="#B7B7B7" d="M315.549,99.732c0.4,0.616,0.604,1.295,0.62,2.031c-1.867,0.862-3.739,1.722-5.606,2.581
			C312.223,102.808,313.885,101.269,315.549,99.732z"/>
		<path fill="#ADADAD" d="M388.533,174.738c1.693-1.722,3.391-3.443,5.082-5.166C393.825,173.168,392.229,174.988,388.533,174.738z"
			/>
		<path fill="#727272" d="M390.604,367.41c2.271-0.155,5.246-1.567,4.994,2.793c-1.587,0.243-3.168,0.477-4.752,0.716
			C390.766,369.748,390.686,368.578,390.604,367.41z"/>
		<path fill="#ADADAD" d="M393.473,169.717c1.704-1.038,3.413-2.075,5.123-3.115C396.886,167.638,395.178,168.677,393.473,169.717z"
			/>
		<path fill="#7C7C7C" d="M420.809,254.657c-1.655-0.607-3.312-1.212-4.979-1.818C417.487,253.445,419.15,254.05,420.809,254.657z"
			/>
		<polygon fill="#D7D7D7" points="120.482,271.896 120.168,272.081 120.064,271.543 		"/>
		<polygon fill="#D7D7D7" points="115.523,274.494 115.199,274.65 115.136,274.117 		"/>
		<path fill="#727272" d="M403.557,159.763c1.17-0.914,2.343-1.829,3.512-2.742C405.9,157.935,404.727,158.849,403.557,159.763z"/>
		<path fill="#ADADAD" d="M135.949,126.918c-0.289-0.059-0.576-0.121-0.864-0.18c0.243,0.106,0.489,0.212,0.736,0.315
			C135.824,127.053,135.949,126.918,135.949,126.918z"/>
		<path fill="#CCCCCC" d="M376.275,334.547c-0.896-0.83-1.789-1.659-2.678-2.49C374.486,332.886,375.381,333.717,376.275,334.547z"
			/>
		<path fill="#9D9D9D" d="M352.672,200.965c13.327-0.57,9.448,6.407,5.818,13.272c0,0-0.404,0.222-0.402,0.221
			c-2.436,1.44-4.869,2.881-7.311,4.321c-6.461,5.686-12.918,11.373-19.379,17.06c-2.213-6.451,2.896-10.848,4.543-16.218
			c0.619-0.857,1.24-1.716,1.855-2.574c-0.314-0.221-0.636-0.441-0.954-0.661c-0.308,1.074-0.608,2.149-0.917,3.225
			c-6.037-3.429-12.07-6.855-18.109-10.284c1.013-2.419,2.017-4.839,3.024-7.261c10.896,3.602,21.786,5.332,32.655-0.099
			l-0.78-0.197L352.672,200.965z"/>
		<path fill="#8A8A8A" d="M350.17,190.527c0.839,3.482,1.676,6.964,2.503,10.443c-0.001-0.003,0.054,0.8,0.054,0.8l0.779,0.197
			c-1.6-0.113-3.203-0.225-4.802-0.337c-8.233-3.033-15.845-8.218-25.224-7.259c-1.58-6.552-3.16-13.105-4.742-19.659
			c-0.092-1.795-0.18-3.589-0.271-5.38c2.172,0.135,4.338,0.268,6.506,0.401c0.324,0.995,0.652,1.99,0.98,2.985
			c1.955,9.566,10.736,11.968,17.4,16.591c1.676,0.11,3.349,0.219,5.022,0.329C348.979,189.925,349.574,190.222,350.17,190.527z"/>
		<path fill="#A7A7A7" d="M358.49,214.237c18.51,3.584,22.478,13.633,11.474,29.047c0.007-0.001,0.37-0.604,0.37-0.604
			c0.628-3.232,1.609-6.565-2.457-8.431c-0.836,2.523-1.672,5.044-2.511,7.568c-2.427,0.261-4.854,0.522-7.28,0.782
			c-0.768-0.256-1.564-0.394-2.387-0.407c5.537-8.836,11.178-17.665,2.387-27.732L358.49,214.237z"/>
		<path fill="#B7B7B7" d="M358.086,242.599c2.432-0.262,4.855-0.523,7.294-0.783c1.657,0.289,3.304,0.576,4.957,0.864
			c0,0-0.36,0.603-0.37,0.604c1.389,4.739,4.754,6.599,9.479,6.484c7.146,2.623,14.281,5.244,21.423,7.865
			c-5.948,5.038-11.694-1.729-17.575-0.306C374.032,253.884,361.989,255.203,358.086,242.599z"/>
		<path fill="#A7A7A7" d="M367.725,210.096c-0.302,0.087-0.791,0.325-0.873,0.228c-0.211-0.258-0.246-0.663-0.354-1.01
			c0.307-0.084,0.796-0.326,0.886-0.224C367.596,209.342,367.622,209.751,367.725,210.096z"/>
		<path fill="#9D9D9D" d="M306.115,344.445c-0.204,3.568-0.407,7.14-0.688,12.038c-3.661-4.199-6.588-7.556-9.514-10.905
			c-0.037-6.539-5.062-9.604-9.231-13.265c-6.967-3.989-14.492-7.318-18.07-15.309c1.755-3.16,3.506-6.323,5.256-9.479
			c8.729-3.438,17.451-6.873,26.18-10.309c1.896,1.664,3.787,3.327,5.682,4.991c-3.295,13.316-7.791,26.62-0.44,40.054
			C305.572,342.984,305.85,343.711,306.115,344.445z"/>
		<path fill="#9E9E9E" d="M305.729,302.204c-1.894-1.664-3.785-3.327-5.668-4.991c2.131-3.259,4.258-6.518,6.391-9.773
			c2.939,3.365,5.883,6.731,8.822,10.103c0.22,3.216,0.432,6.433,0.649,9.644c2.084,6.404-8.485,14.229,2.207,19.663
			c2.528,3.912,5.052,7.82,7.577,11.731c-5.382,5.771-11.941,7.645-19.589,5.868c-0.265-0.734-0.543-1.461-0.828-2.193
			C302.1,328.865,316.857,315.677,305.729,302.204z"/>
		<path fill="#A7A7A7" d="M325.704,338.573c-2.526-3.91-5.048-7.818-7.574-11.728c2.604-1.671,5.205-3.346,7.804-5.019
			c4.029,12.918,16.387,1.283,22.629,7.676c-8.998,1.009-3.869,8.358-5.658,12.605C337.158,340.98,330.341,345.09,325.704,338.573z"
			/>
		<path fill="#929292" d="M276.003,352.067c-0.823,0.699-1.644,1.402-2.463,2.104c-0.851-4.429,2.042-10.301-4.8-12.421
			c1.691-2.486,3.386-4.974,5.078-7.462c3.976,0.561,7.953,1.124,11.933,1.686c5.233,6.885-5.687,8.518-4.567,14.062
			c-0.615,0.35-1.277,0.508-1.992,0.469C278.127,351.023,277.064,351.545,276.003,352.067z"/>
		<path fill="#9E9E9E" d="M281.18,350.038c-1.117-5.546,9.805-7.175,4.564-14.064c0.314-1.226,0.624-2.439,0.938-3.663
			c4.17,3.661,9.191,6.729,9.231,13.269C292.051,350.53,287.52,353.258,281.18,350.038z"/>
		<path fill="#D7D7D7" d="M303.602,380.611c-0.898-0.136-1.802-0.269-2.703-0.399c-0.441-3.323-0.883-6.646-1.321-9.975
			c6.396-13.928,8.575,6.634,13.873,1.688C312.951,377.979,306.784,377.602,303.602,380.611z"/>
		<path fill="#ADADAD" d="M299.574,370.237c0.439,3.322,0.88,6.648,1.322,9.975c-1.217,4.847-2.438,9.691-4.184,16.645
			c-0.766-5.829-1.253-9.562-1.743-13.301c0.72-4.726,1.44-9.44,2.161-14.164C297.948,369.672,298.759,369.955,299.574,370.237z"/>
		<path fill="#9E9E9E" d="M276.003,352.067c1.062-0.521,2.124-1.041,3.188-1.562c-0.154,0.505-0.354,0.989-0.59,1.455
			C277.736,351.996,276.869,352.031,276.003,352.067z"/>
		<path fill="#A7A7A7" d="M353.225,277.498c0.725,0.999,1.27,2.643,2.195,2.898c24.66,6.869,19.744,15.01,1.104,23.832
			c-1.012-1.942-2.021-3.893-3.029-5.838c-0.771-1.072-1.535-2.146-2.309-3.224c-1.024-2.815-2.047-5.631-3.064-8.442
			c0.863-3.301-4.946-6.844,0.359-9.977C350.061,276.998,351.643,277.247,353.225,277.498z"/>
		<path fill="#8F8F8F" d="M383.635,259.477c3.12,1.957,5.27,4.416,4.314,8.453c-4.596-0.178-9.19-0.355-13.783-0.533
			c-8.927-0.638-17.283,1.443-25.273,5.264c-0.39-0.171-0.742-0.404-1.045-0.698c-0.636-7.619,15.674-3.288,10.133-14.369
			C366.527,258.219,375.08,258.848,383.635,259.477z"/>
		<path fill="#B7B7B7" d="M348.887,272.662c7.993-3.822,16.352-5.903,25.277-5.266c-4.432,8.646-12.479,9.795-20.939,10.101
			c-1.582-0.248-3.164-0.497-4.748-0.746C348.615,275.389,348.751,274.023,348.887,272.662z"/>
		<path fill="#CCCCCC" d="M351.186,295.173c0.771,1.072,1.537,2.147,2.312,3.22c0.778,3.062,1.558,6.117,2.339,9.178
			c1.357,1.375,2.723,2.754,4.08,4.13c0.128,1.022,0.251,2.051,0.371,3.077c0.541,1.697,1.085,3.396,1.617,5.091
			c-1.141-0.146-2.278-0.28-3.411-0.416c-5.435-8.331-11.956-16.142-12.785-26.681c0-0.002,0.781-0.394,0.781-0.394
			C348.053,293.311,349.617,294.241,351.186,295.173z"/>
		<path fill="#ADADAD" d="M358.49,319.453c1.133,0.138,2.271,0.271,3.412,0.417c0.809,0.312,1.365,0.873,1.666,1.679
			c0.043,1.026,0.088,2.053,0.133,3.083c-3.817,1.278-8.174,5.552-10.439-1.864C355.008,321.661,356.751,320.555,358.49,319.453z"/>
		<path fill="#D7D7D7" d="M355.831,307.568c-0.783-3.061-1.56-6.116-2.34-9.176c1.007,1.943,2.018,3.894,3.028,5.836
			C356.292,305.34,356.062,306.452,355.831,307.568z"/>
		<path fill="#A7A7A7" d="M362.562,304.098c0.121,0.297,0.233,0.598,0.354,0.896c-0.438,0.089-0.866,0.179-1.303,0.271
			c0.052-0.328,0.025-0.709,0.191-0.967C361.913,304.137,362.301,304.159,362.562,304.098z"/>
		<path fill="#A7A7A7" d="M360.284,314.774c-0.12-1.028-0.243-2.053-0.371-3.075C361.756,312.514,363.143,313.385,360.284,314.774z"
			/>
		<path fill="#A7A7A7" d="M188.228,159.453c0.14-1.597,0.277-3.195,0.417-4.777c3.821-7.296,12.91-2.572,17.674-7.721
			c0.684,0.116,1.331,0.339,1.939,0.668c7.74,8.712,15.438,10.481,23.065-0.134c0.603,4.86,1.205,9.72,1.807,14.578
			c-8.593,0.539-14.991,19.051-26.084,3.307c-0.333-0.473-5.328,5.792-3.335,9.22c5.471,9.41-4.915,10.453-8.023,13.604
			c-3.838,3.89-3.513-5.312-7.313-6.099c-8.54-4.583-14.798,0.546-21.224,4.975c-3.824-0.133-6.541-2.042-6.521-5.866
			c0.03-5.864,5.316-3.558,8.371-4.713c2.692,2.043,4.389,1.92,4.323-2.002l-0.102,0.06c10.789,2.662,17.215-0.19,16.011-12.675
			C188.897,161.071,188.563,160.262,188.228,159.453z"/>
		<path fill="#9E9E9E" d="M145.101,254.902c0.409-0.768,0.816-1.536,1.226-2.301c0.722-0.839,1.443-1.68,2.163-2.523
			c2.307-3.329,4.615-6.654,6.923-9.984c1.821-0.185,3.642-0.369,5.461-0.552c1.185,2.048,2.37,4.098,3.555,6.145
			c1.094-1.011,2.795-1.839,3.166-3.069c1.04-3.466-0.328-5.622-4.27-5.508c0.651-4.81,1.303-9.618,1.955-14.426
			c0.938,0.017,1.874,0.032,2.812,0.05c1.984,2.793,3.948,7.891,5.959,7.907c4.364,0.04,6.455-4.263,6.972-8.693
			c3.898,6.698,2.86,19.942,17.117,12.904c2.322-0.695,4.641-1.39,6.966-2.088c1.487,9.605-11.479,4.111-12.07,11.552
			c-14.5-2.523-14.503,9.106-17.444,17.866c-10.056,3.291-15.087-21.033-27.462-4.994
			C147.116,256.421,146.108,255.664,145.101,254.902z"/>
		<path fill="#9E9E9E" d="M188.375,182.102c3.802,0.786,3.475,9.988,7.313,6.099c3.109-3.152,13.494-4.194,8.023-13.604
			c-1.993-3.429,3.001-9.694,3.335-9.22c11.093,15.743,17.491-2.769,26.084-3.307c-0.32,9.329-0.499,18.726-11.237,22.953
			c-6.783-3.785-4.419,5.495-8.321,5.826c-3.142,1.122-6.285,2.242-9.425,3.363c-7.715,1.491-14.989,12.018-23.303,1.13
			c-0.023-1.755-0.045-3.512-0.066-5.269C183.309,187.413,185.842,184.758,188.375,182.102z"/>
		<path fill="#9D9D9D" d="M205.096,232.765c-2.318,0.693-4.638,1.387-6.959,2.082c-0.915-11.512-10.17-16.91-17.455-23.727
			c-2.572-2.404-7.703-4.655,0.194-6.659c10.162,2.455,20.33,5.465,30.377-0.413c2.207,2.853,4.416,5.705,6.624,8.554
			c-1.312,5.351-9.528,7.12-7.39,14.257c-0.471,0.525-0.586,1.116-0.349,1.78C208.458,230.017,206.777,231.392,205.096,232.765z"/>
		<path fill="#CCCCCC" d="M211.256,204.05c-10.048,5.878-20.217,2.87-30.378,0.413c-0.011-3.043-0.024-6.085-0.034-9.125
			c8.316,10.891,15.59,0.363,23.297-1.129c0.344,0.275,0.741,0.389,1.186,0.341C207.305,197.718,209.28,200.883,211.256,204.05z"/>
		<path fill="#727272" d="M148.343,202.143c0.897-3.19,1.796-6.384,2.692-9.579c5.007,5.618,14.712,5.75,16.997,14.548
			c2.54,2.437,5.078,4.874,7.619,7.311c-2.244,1.859-4.488,3.714-6.739,5.566c-5.333-5.983-9.472-13.354-18.081-15.513
			C150.002,203.698,149.172,202.921,148.343,202.143z"/>
		<path fill="#898989" d="M168.032,207.111c-2.285-8.798-11.99-8.93-16.998-14.548c-1.092-0.258-2.186-0.52-3.282-0.781
			c8.185-4.362,17.617-1.417,23.788,1.481C181.572,197.97,165.432,201.214,168.032,207.111z"/>
		<path fill="#929292" d="M168.917,219.991c2.246-1.855,4.49-3.709,6.734-5.569c1.789,2.506,3.578,5.013,5.368,7.521
			c-0.516,4.433-2.606,8.735-6.971,8.695c-2.01-0.016-3.975-5.114-5.957-7.909C168.369,221.815,168.643,220.905,168.917,219.991z"/>
		<path fill="#C0C0C0" d="M188.375,182.102c-2.533,2.656-5.065,5.312-7.596,7.97c-4.539-0.997-9.078-1.999-13.621-2.996
			C173.576,182.646,179.835,177.517,188.375,182.102z"/>
		<path fill="#ADADAD" d="M163.308,162.038c3.665,3.414,7.328,6.828,10.985,10.242c-0.361,0.759-0.717,1.517-1.072,2.275l0.102-0.06
			c-1.565,0.212-3.127,0.424-4.69,0.637C164.778,171.612,162.188,167.579,163.308,162.038z"/>
		<path fill="#ADADAD" d="M156.136,151.737c2.199,2.692,4.398,5.384,6.596,8.078C158.171,159.05,155.737,156.551,156.136,151.737z"
			/>
		<path fill="#929292" d="M168.633,175.131c1.562-0.213,3.126-0.425,4.69-0.637c0.066,3.923-1.63,4.046-4.323,2.002
			C168.846,176.049,168.722,175.596,168.633,175.131z"/>
		<path fill="#7C7C7C" d="M268.745,341.751c6.837,2.118,3.942,7.992,4.795,12.424c-2.502,5.134-5.008,10.271-7.513,15.405
			c-0.45,2.824-0.897,5.649-1.354,8.471c-0.265,0.825-0.528,1.65-0.796,2.48c-1.688-0.468-3.385-0.944-5.072-1.429
			c-0.849-3.26-1.689-6.51-2.536-9.764c-0.4-9.119-1.057-18.166-7.411-25.561c0.748-0.741,1.502-1.479,2.253-2.224
			C257.027,338.176,262.873,341.271,268.745,341.751z"/>
		<path fill="#727272" d="M256.164,385.362c-0.346,2.896-0.691,5.798-1.041,8.692c0,0,0.036,0.354,0.041,0.354
			c-0.767,1.723-1.537,3.449-2.304,5.175c-2.538,10.058-5.078,20.111-7.616,30.167c-9.643-15.255-1.168-31.433-2.4-47.113
			C247.281,383.548,251.721,384.455,256.164,385.362z"/>
		<path fill="#A7A7A7" d="M248.108,361.094c-5.189,5.821-10.376,2.967-14.625-0.796c-4.025-3.562-1.069-6.265,2.602-8.09
			c9.247-3.557-2.989-6.601-0.241-10.006c0.384-0.699,0.621-1.442,0.71-2.234c1.654-0.358,3.307-0.729,4.961-1.088
			c1.521,2.188,3.043,4.367,4.563,6.557C241.601,351.323,243.232,356.419,248.108,361.094z"/>
		<path fill="#ADADAD" d="M228.708,349.67c-1.344,8.688-11.379,9.474-14.777,16.265c-0.323,0.526-0.663,1.067-1,1.613
			c-7.211-14.323,9.1-14.981,13.201-22.74c0.487,0.442,1.062,0.701,1.717,0.785C228.136,346.953,228.424,348.31,228.708,349.67z"/>
		<path fill="#CCCCCC" d="M248.108,361.094c-4.875-4.674-6.508-9.771-2.03-15.657c0.929-0.555,1.856-1.103,2.785-1.654
			c6.351,7.396,7.007,16.44,7.406,25.562C253.551,366.592,250.828,363.844,248.108,361.094z"/>
		<path fill="#D7D7D7" d="M228.334,380.957c-1.663-0.374-3.326-0.751-4.988-1.126l-0.148-0.083
			c-1.595-1.805-3.191-3.604-4.785-5.404c6.142-0.417,12.282-0.831,21.685-1.464C234.294,376.864,231.313,378.909,228.334,380.957z"
			/>
		<path fill="#ADADAD" d="M218.412,374.344c1.595,1.8,3.191,3.603,4.786,5.404c-4.162,0.792-8.324,1.579-12.488,2.368
			c-0.247-1.668-0.493-3.338-0.739-5.01c1.273-1.402,2.546-2.809,3.817-4.208c0.888-0.158,1.775-0.316,2.663-0.477
			C217.105,373.062,217.759,373.703,218.412,374.344z"/>
		<path fill="#9E9E9E" d="M228.708,349.67c-0.285-1.363-0.572-2.72-0.86-4.082c2.664-1.133,5.33-2.262,7.994-3.389
			c-2.747,3.398,9.487,6.441,0.241,10.005C233.627,351.356,231.167,350.514,228.708,349.67z"/>
		<path fill="#898989" d="M216.452,372.425c-0.889,0.157-1.776,0.315-2.664,0.475c-0.286-1.783-0.572-3.566-0.857-5.352
			c0.337-0.546,0.675-1.086,1-1.613C217.89,366.884,217.492,369.527,216.452,372.425z"/>
		<path fill="#898989" d="M358.49,319.453c-1.739,1.102-3.482,2.208-5.229,3.312c-2.389-1.041-4.784-2.083-7.175-3.125
			c-0.038-0.747-0.132-1.489-0.277-2.229c-5.838-4.705-11.682-9.408-17.521-14.104c1.744-3.714,3.483-7.434,5.226-11.152
			c4.063,0.207,8.131,0.408,12.19,0.619C346.534,303.314,353.059,311.121,358.49,319.453z M335.258,301.154
			c0.338,0.121,0.674,0.242,1.01,0.363c0.104-0.295,0.369-0.771,0.28-0.851c-0.25-0.22-0.642-0.276-0.979-0.399
			C335.466,300.564,335.364,300.859,335.258,301.154z"/>
		<path fill="#929292" d="M325.934,321.83c-2.599,1.673-5.199,3.348-7.804,5.019c-10.698-5.438-0.127-13.263-2.212-19.667
			c1.67,0.001,3.343,0.001,5.012,0.001c0.771,0.027,1.538,0.057,2.309,0.082l0.272-0.354c0.816,2.521,1.634,5.041,2.449,7.558
			c0.126,1.715,0.255,3.437,0.378,5.146C326.104,320.336,325.971,321.073,325.934,321.83z"/>
		<path fill="#9D9D9D" d="M325.96,314.473c-0.815-2.521-1.633-5.04-2.449-7.559c1.595-1.203,3.188-2.406,4.778-3.612
			c5.839,4.704,11.682,9.406,17.52,14.111c-0.841-0.044-1.664,0.054-2.477,0.295c-2.465-0.088-4.938-0.178-7.406-0.271
			C332.607,316.446,329.282,315.459,325.96,314.473z"/>
		<path fill="#ADADAD" d="M325.96,314.473c3.319,0.987,6.644,1.977,9.964,2.962c-3.193,0.732-6.391,1.461-9.586,2.189
			C326.215,317.903,326.089,316.188,325.96,314.473z"/>
		<path fill="#ADADAD" d="M343.332,317.706c0.809-0.241,1.636-0.34,2.477-0.296c0.146,0.74,0.24,1.479,0.278,2.229
			C345.169,318.996,344.251,318.35,343.332,317.706z"/>
		<path fill="#929292" d="M231.325,147.491c-7.628,10.615-15.326,8.846-23.065,0.134c0.427-0.432,0.942-0.64,1.545-0.619
			c9.587,1.955,15.652-3.684,21.417-9.956c2.292-0.141,4.586-0.284,6.885-0.425c0.877,0.26,1.751,0.521,2.627,0.782
			c0.139,1.654,0.279,3.307,0.42,4.962c-0.218,0.655-0.361,1.326-0.434,2.012C237.587,145.418,234.456,146.454,231.325,147.491z"/>
		<path fill="#ADADAD" d="M238.1,136.625c-2.293,0.141-4.588,0.283-6.879,0.424c-0.106-1.74-0.218-3.48-0.324-5.219
			c4.454-0.191,7.42-1.978,7.431-6.932c0.863-0.184,1.724-0.365,2.588-0.55c2.251-0.012,4.505-0.022,6.752-0.033
			c0.447,1.103,0.895,2.208,1.341,3.309c-0.078,2.272-0.156,4.547-0.232,6.824c-1.101-0.174-2.201-0.346-3.302-0.519
			C241.416,130.442,239.265,132.181,238.1,136.625z"/>
		<path fill="#B7B7B7" d="M238.328,124.899c-0.012,4.953-2.978,6.741-7.431,6.932c-0.511-0.254-0.613-0.621-0.312-1.105
			c-0.835-1.166-1.665-2.326-2.498-3.487c0,0,0.017,0.094,0.017,0.093c-0.829-0.865-1.659-1.73-2.489-2.593l-0.033,0.039
			c-0.332-1.495-0.667-2.988-0.999-4.481C229.164,121.83,233.747,123.365,238.328,124.899z"/>
		<path fill="#ADADAD" d="M224.582,120.296c0.332,1.494,0.667,2.988,0.999,4.481c-0.757-0.915-1.513-1.831-2.269-2.746
			C223.088,120.98,223.511,120.4,224.582,120.296z"/>
		<path fill="#ADADAD" d="M225.615,124.739c0.83,0.863,1.66,1.728,2.489,2.593C227.274,126.47,226.445,125.604,225.615,124.739z"/>
		<path fill="#ADADAD" d="M224.6,119.73c-0.413,0.789-0.828,1.576-1.239,2.361c-0.967-0.719-1.93-1.438-2.898-2.156
			c0.312-0.312,0.623-0.621,0.936-0.923C222.461,119.253,223.529,119.493,224.6,119.73z"/>
		<path fill="#ADADAD" d="M228.087,127.24c0.832,1.16,1.663,2.322,2.498,3.488C229.753,129.567,228.921,128.404,228.087,127.24z"/>
		<path fill="#C0C0C0" d="M145.644,307.941c4.749-1.969,12.598,5.389,14.592-4.854c-0.002,0,0.347-0.053,0.347-0.053
			c-0.139,4.356,3.162,3.811,5.867,4.115c-3.609,4.701-7.218,9.405-10.827,14.111c-0.837,0.1-1.674,0.193-2.509,0.29
			C152.89,315.771,151.904,310.41,145.644,307.941z"/>
		<path fill="#ADADAD" d="M153.113,321.553c0.836-0.097,1.672-0.19,2.508-0.287c-0.78,1.146-1.559,2.292-2.337,3.437
			c-0.612-0.48-1.088-1.07-1.433-1.781C152.094,322.289,152.516,321.838,153.113,321.553z"/>
		<path fill="#A7A7A7" d="M148.125,257.182c12.376-16.037,17.407,8.286,27.464,4.993c0.922,3.396,1.844,6.787,2.762,10.183
			c1.463,0.729,2.925,1.449,4.388,2.178c0.232,0.688,0.264,1.378,0.096,2.086c-3.75,3.919-11.469,5.152-8.991,13.287
			c0,0-0.846-0.024-0.846-0.026c-8.294,0.237-5.547-5.188-3.951-8.806c4.001-9.053-1.524-7.079-6.493-6.079
			c-1.341,0.114-2.683,0.226-4.026,0.34c-1.621-0.33-3.241-0.655-4.865-0.987C153.974,267.926,152.154,262.197,148.125,257.182z"/>
		<path fill="#727272" d="M153.666,274.343c1.622,0.33,3.243,0.657,4.86,0.988c4.417,12.659,0.292,19.446-13.475,18.567
			c-4.867-0.312-4.323,2.229-4.284,5.145c-5.034,1.203-10.065,2.406-15.099,3.605c-1.445,0.011-2.89,0.021-4.333,0.026
			c-1.842-0.899-3.685-1.808-5.528-2.71c5.054-4.113,14.003-3.607,14.947-12.598c0.867-0.203,1.735-0.409,2.601-0.613
			C142.345,286.251,148.211,280.635,153.666,274.343z"/>
		<path fill="#B7B7B7" d="M224.6,119.73c-1.069-0.237-2.137-0.477-3.201-0.718c0.591-1.467,1.178-2.93,1.767-4.391
			C223.642,116.324,224.12,118.029,224.6,119.73z"/>
		<path fill="#C0C0C0" d="M170.51,346.659c-0.889-1.527-1.78-3.062-2.674-4.591c22.126-3.126-4.942-11.099,1.537-15.753
			c5.813-3.113,11.812-5.396,18.605-3.844c0.454,7.138,1.338,13.967,10.574,14.845c-0.936,4.71-1.775,9.44-2.828,14.128
			c-2.453,10.902-8.913,10.296-16.688,5.679c-0.863-0.904-1.731-1.812-2.598-2.728C174.465,351.82,172.488,349.24,170.51,346.659z
			 M181.908,348.02c0.286-0.157,0.727-0.258,0.821-0.49c0.111-0.285-0.069-0.688-0.123-1.037c-0.429,0.223-0.857,0.453-1.284,0.677
			C181.517,347.451,181.711,347.735,181.908,348.02z"/>
		<path fill="#7C7C7C" d="M212.931,367.548c0.286,1.782,0.572,3.565,0.857,5.352c-1.272,1.401-2.544,2.808-3.817,4.21
			c-1.806,2.104-3.609,4.21-5.418,6.309c-3.01,0.402-6.014,0.806-9.02,1.212c0.826-6.779,9.761-11.549,4.899-19.74
			c0.918-2.714,1.834-5.426,2.751-8.136c0.292-0.351,0.415-0.747,0.373-1.212c5.969-5.512,6.473-13.093,7.725-20.386
			c8.306-1.949,13.691,0.604,14.852,9.66C222.032,352.561,205.721,353.225,212.931,367.548z"/>
		<path fill="#A7A7A7" d="M198.552,337.316c-9.235-0.884-10.12-7.707-10.571-14.845c3.472-0.248,6.939-0.488,10.404-0.731
			c-0.55,5.562,1.768,8.386,7.542,7.92c0.06,0.813,0.182,1.624,0.365,2.425c-0.993,1.585-1.986,3.173-2.981,4.76
			c-0.812-0.026-1.62-0.067-2.433-0.107c-0.838,0.213-1.677,0.425-2.512,0.634L198.552,337.316z"/>
		<path fill="#9D9D9D" d="M203.312,336.845c0.994-1.587,1.987-3.175,2.976-4.759c1.666,1.023,3.332,2.044,5,3.065
			c-1.258,7.295-1.762,14.876-7.731,20.387C200.649,349.348,208.538,343.009,203.312,336.845z"/>
		<path fill="#9D9D9D" d="M203.184,356.751c-0.917,2.713-1.833,5.425-2.751,8.136C197.28,360.8,198.449,358.172,203.184,356.751z"/>
		<path fill="#C0C0C0" d="M198.367,337.369c0.836-0.21,1.675-0.422,2.512-0.635C200.042,336.947,199.204,337.157,198.367,337.369z"
			/>
		<path fill="#7C7C7C" d="M343.354,189.309c-6.664-4.623-15.449-7.024-17.4-16.592c5.029-4.433,14.884-3.048,15.47-12.834
			l-0.087-0.289c3.145-0.767,6.278-1.533,9.417-2.297c2.949,1.02,5.911,2.039,8.868,3.059c-0.653,1.504-1.321,3.009-1.995,4.506
			c-7.771,3.543-11.104,9.21-8.479,17.724c-0.352,0.49-0.688,0.99-1.006,1.505C346.546,185.832,344.949,187.57,343.354,189.309z"/>
		<path fill="#8F8F8F" d="M349.146,182.585c-2.625-8.514,0.707-14.18,8.478-17.724C356.973,171.81,353.868,177.583,349.146,182.585z
			"/>
		<path fill="#8F8F8F" d="M343.354,189.309c1.598-1.737,3.191-3.477,4.787-5.218c0.078,1.848,0.16,3.696,0.237,5.547
			C346.702,189.527,345.029,189.418,343.354,189.309z"/>
		<path fill="#9D9D9D" d="M383.635,259.477c-8.555-0.629-17.105-1.258-25.654-1.89c-0.688-0.038-1.354-0.176-2.002-0.422
			c-0.174-4.629-3.494-5.016-6.979-5.173c0.86-2.972,1.729-5.947,2.592-8.919c1.374-0.294,2.745-0.589,4.118-0.883
			c0.818,0.014,1.617,0.151,2.391,0.408c3.896,12.604,15.94,11.285,25.196,14.728C383.404,258.046,383.52,258.76,383.635,259.477z"
			/>
		<path fill="#B7B7B7" d="M403.49,269.656c1.341-0.699,2.682-1.4,4.021-2.098c0.247,0.502,0.495,1,0.743,1.504
			c-1.586,0.199-3.176,0.398-4.757,0.603L403.49,269.656z"/>
		<path fill="#7C7C7C" d="M414.801,260.357c1.241,0.386,2.483,0.771,3.729,1.156C417.284,261.13,416.042,260.743,414.801,260.357z"
			/>
		<path fill="#929292" d="M173.221,174.553c0.355-0.757,0.71-1.516,1.072-2.274c6.861-0.769,10.543-6.094,14.938-10.399
			C190.436,174.365,184.01,177.215,173.221,174.553z"/>
		<path fill="#9D9D9D" d="M118.159,234.596c9.164-2.57,18.324-5.14,27.486-7.708c0.879,1.034,1.757,2.064,2.632,3.096
			c0.974,8.56-8.151,2.611-10.072,7.01c-6.352-0.139-12.704-0.279-19.06-0.419C118.813,235.917,118.484,235.257,118.159,234.596z"/>
		<path fill="#7C7C7C" d="M138.205,236.994c1.922-4.399,11.046,1.55,10.072-7.011c1.508,0.877,3.015,1.753,4.524,2.63
			c-0.094,0.649,0.01,1.267,0.307,1.852c-2.91,3.388-1.294,4.845,2.328,5.445l-0.026,0.188c-2.306,3.328-4.615,6.652-6.921,9.982
			C152.381,239.963,141.83,241.202,138.205,236.994z"/>
		<path fill="#7C7C7C" d="M118.159,234.596c0.327,0.661,0.654,1.321,0.987,1.977c-4.875-0.296-11.399,4.034-13.267-4.722
			C109.97,232.765,114.065,233.68,118.159,234.596z"/>
		<path fill="#7C7C7C" d="M115.786,241.231c-1.154-0.379-2.307-0.76-3.465-1.14C113.474,240.472,114.629,240.853,115.786,241.231z"
			/>
		<path fill="#727272" d="M293.954,402.255c-0.252,0.938-0.507,1.869-0.759,2.813c-1.594,0.797-3.188,1.595-4.777,2.392
			c-1.73-7.118-3.626-14.209-5.135-21.375c-1.161-5.536-6.448-13.919,2.738-15.275c8.883-1.312,6.225,8.386,7.355,13.903
			C293.566,390.561,293.762,396.408,293.954,402.255z"/>
		<path fill="#C0C0C0" d="M261.266,133.084c4.053-14.292,16.784-5.408,25.377-9.367c-5.367-3.625-13.217-0.236-16.646-6.926
			c0.348-0.763,0.697-1.531,1.057-2.295c1.637-0.12,3.271-0.241,4.902-0.36c2.763,0.942,5.521,1.886,8.289,2.83
			c1.4,0.012,2.809,0.023,4.22,0.031c2.028,0.479,4.056,0.957,6.077,1.441c7.111,10.814-15.227,14.265-6.38,25.511
			c-5.901,5.101-4.147-4.174-7.455-3.966c-6.731,0.424-3.252,3.428-1.845,6.377c1.134,2.363,2.849,6.198,1.849,7.503
			c-3.508,4.596-6.002-2.361-9.506-1.692C267.889,145.807,264.581,139.444,261.266,133.084z"/>
		<path fill="#A7A7A7" d="M271.203,152.169c3.504-0.668,5.997,6.29,9.507,1.692c0.999-1.306-0.716-5.142-1.847-7.503
			c-1.408-2.949-4.897-5.955,1.842-6.377c3.305-0.208,1.555,9.067,7.454,3.966c1.521,1.271,3.039,2.545,4.562,3.819
			c0.199,0.587,0.236,1.186,0.11,1.794c-3.156,2.042-5.778,5.406-1.968,7.811c4.707,2.973,10.513,5.132,16.035,5.654
			c5.996,0.564,2.959-5.428,4.023-8.484c1.764-0.83,3.525-1.659,5.282-2.486c5.396,4.255,3.576,9.65,2.354,14.949
			c-1.062,0.439-2.117,0.879-3.178,1.319c1.065,0.378,2.133,0.756,3.198,1.134l-0.116-0.122c0.096,1.793,0.186,3.586,0.273,5.381
			c-15.6,5.02-25.383-13.438-40.571-10.041c-2.483-1.65-4.979-3.299-7.465-4.949C270.866,157.206,271.034,154.685,271.203,152.169z"
			/>
		<path fill="#7C7C7C" d="M292.83,149.559c0.127-0.607,0.088-1.207-0.109-1.794c5.141-9.409,10.289-18.82,15.438-28.232
			c1.729,0.027,3.461,0.053,5.188,0.08c-0.137,1.617-0.273,3.232-0.408,4.848c-0.527,1.081-1.06,2.161-1.58,3.242
			c-0.965,8.153-1.928,16.304-2.895,24.458C302.312,156.929,297.729,152.305,292.83,149.559z"/>
		<path fill="#898989" d="M313.348,119.612c-1.729-0.026-3.462-0.052-5.189-0.08c0.136-1.546,0.271-3.094,0.41-4.639
			c1.355-0.626,2.718-1.254,4.078-1.883C312.878,115.212,313.113,117.41,313.348,119.612z"/>
		<path fill="#C0C0C0" d="M318.559,167.001c1.228-5.299,3.045-10.692-2.352-14.949c0.697-6.457,1.389-12.912,2.088-19.357
			c1.602,0.33,3.199,0.65,4.798,0.967c1.777-0.221,3.55-0.444,5.325-0.66c0.005,0.005-0.111,0.853-0.113,0.85
			c-3.158,12.375,12.051,15.458,13.029,25.743c0.004,0,0.091,0.289,0.091,0.289c-6.843,1.012-13.348,2.588-16.448,9.85
			c-2.17-0.132-4.334-0.267-6.504-0.401c-0.004-0.001,0.113,0.121,0.109,0.121C318.797,168.632,318.79,167.814,318.559,167.001z"/>
		<path fill="#8A8A8A" d="M292.83,149.559c4.898,2.746,9.482,7.372,15.631,2.6c0.82,0.796,1.639,1.587,2.46,2.38
			c-1.067,3.056,1.97,9.048-4.026,8.483c-5.521-0.521-11.324-2.679-16.033-5.654C287.05,154.964,289.675,151.6,292.83,149.559z"/>
		<path fill="#898989" d="M323.09,133.662c-1.599-0.317-3.197-0.638-4.8-0.967c0.121-8.576,0.247-17.141,0.364-25.703
			c1.516,0.712,3.025,1.426,4.537,2.137C323.162,117.305,323.125,125.483,323.09,133.662z"/>
		<path fill="#898989" d="M311.354,127.702c0.522-1.082,1.055-2.161,1.58-3.242C312.404,125.54,311.876,126.62,311.354,127.702z"/>
		<path fill="#8F8F8F" d="M264.676,378.051c0.454-2.823,0.901-5.646,1.354-8.471C269.704,373.061,268.416,375.752,264.676,378.051z"
			/>
		<path fill="#8F8F8F" d="M284.244,116.963c-2.766-0.943-5.529-1.886-8.289-2.829c1.701-7.481,3.402-14.959,5.104-22.441
			c0.752,0.141,1.496,0.322,2.229,0.545c0.071,1.583,0.149,3.165,0.226,4.749C283.756,103.647,283.999,110.306,284.244,116.963z"/>
		<path fill="#C0C0C0" d="M152.802,232.612c-1.508-0.876-3.016-1.752-4.524-2.629c-0.876-1.032-1.753-2.061-2.632-3.094
			c-0.729-1.307-1.458-2.611-2.187-3.91c0.95-5.281-2.59-11.562,3.485-15.718c1.452,0.702,2.896,1.398,4.34,2.096
			c4.663,4.441,9.33,8.882,13.995,13.326c-0.653,4.809-1.304,9.617-1.955,14.426l0.031-0.034c-0.862,0.864-1.725,1.727-2.589,2.589
			l0.106-0.122c-1.819,0.183-3.64,0.367-5.461,0.553c-0.001,0.001,0.025-0.186,0.025-0.186c0.195-1.742,0.389-3.482,0.583-5.222
			c1-1.268,1.997-2.536,2.995-3.804C156.944,231.458,154.873,232.037,152.802,232.612z"/>
		<path fill="#898989" d="M165.278,222.681c-4.665-4.442-9.332-8.884-13.995-13.325c-0.148-1.628-0.3-3.254-0.453-4.881
			c8.61,2.159,12.747,9.529,18.081,15.513c-0.269,0.916-0.544,1.826-0.821,2.741C167.151,222.713,166.216,222.698,165.278,222.681z"
			/>
		<path fill="#8F8F8F" d="M252.859,399.583c0.767-1.728,1.536-3.449,2.303-5.175C254.393,396.13,253.627,397.855,252.859,399.583z"
			/>
		<path fill="#B7B7B7" d="M160.889,375.06c-0.958-6.72,3.904-5.123,7.54-5.271C165.914,371.543,163.401,373.304,160.889,375.06z"/>
		<path fill="#9D9D9D" d="M198.388,321.738c-3.47,0.245-6.937,0.485-10.408,0.733c-6.795-1.552-12.795,0.729-18.608,3.844
			c-3.651,1.04-7.316,2.094-10.976,3.144c-1.762,0.602-3.525,1.203-5.288,1.805c0.06-2.188,0.118-4.375,0.177-6.562
			c0.778-1.144,1.556-2.287,2.337-3.437c3.61-4.708,7.219-9.409,10.827-14.113c7.121-3.885,9.476-9.572,6.551-17.271
			c0,0,0.847,0.025,0.845,0.025c4.734-0.74,9.467-1.479,14.203-2.221c0.776,3.131,1.552,6.262,2.325,9.395
			c-0.515,0.889-1.033,1.777-1.551,2.667c-1.027,0.267-2.053,0.53-3.082,0.796c-0.778-0.564-1.56-1.137-2.341-1.708
			c-0.754,1.985-1.511,3.972-2.266,5.96c-2.216,3.182-7.459,5.616-5.085,10.145c2.931,5.585,7.034-0.266,10.624-0.426
			c5.619-0.255,11.172-1.914,16.752-2.979c0.207,0.701,0.586,1.29,1.137,1.768C202.507,316.111,200.447,318.925,198.388,321.738z
			 M170.517,317.52c0.477,0.489,0.952,0.979,1.428,1.472c-0.202-0.77-0.407-1.531-0.611-2.298c-0.726-0.174-1.452-0.354-2.18-0.527
			C169.605,316.612,170.057,317.07,170.517,317.52z"/>
		<path fill="#ADADAD" d="M284.244,116.963c-0.245-6.658-0.488-13.317-0.732-19.976c1.65,6.669,3.297,13.34,4.946,20.008
			C287.055,116.986,285.648,116.976,284.244,116.963z"/>
		<path fill="#ADADAD" d="M288.545,89.329c0.846,0.85,1.688,1.703,2.532,2.551c-1.277,0.438-2.567,0.877-3.849,1.316
			C287.665,91.906,288.105,90.618,288.545,89.329z"/>
		<path fill="#7C7C7C" d="M271.203,152.169c-0.169,2.518-0.337,5.037-0.502,7.553c-0.859,0.043-1.721,0.086-2.582,0.13
			c-2.104-5.166-3.873-11.169-10.938-10.663c-7.75,0.555-6.91,7.819-8.75,12.874c-0.909,0.793-1.817,1.588-2.726,2.382
			c-0.775-1.619-1.55-3.241-2.323-4.859c0.085-2.469,0.169-4.934,0.254-7.403c0.186-0.665,0.338-1.336,0.458-2.016
			c5.962-3.928,9-8.727,4.683-15.717c0.076-2.275,0.152-4.551,0.231-6.824c7.114-1.18-3.044-11.928,6.52-11.741
			c0.003,0.012,0.148,0.431,0.148,0.439c0.814,3.746,1.627,7.484,2.441,11.223c1.046,1.836,2.098,3.675,3.146,5.525
			C264.581,139.444,267.889,145.807,271.203,152.169z"/>
		<path fill="#8F8F8F" d="M258.119,127.547c-0.814-3.739-1.628-7.479-2.442-11.223C256.491,120.06,257.305,123.802,258.119,127.547z
			"/>
		<path fill="#7C7C7C" d="M140.767,299.045c-0.039-2.916-0.581-5.455,4.284-5.143c13.767,0.88,17.892-5.91,13.475-18.568
			c1.347-0.116,2.689-0.223,4.034-0.341c-1.093,9.315,4.761,19.126-1.978,28.042c0,0-0.349,0.054-0.347,0.054
			c-1.353-0.373-2.706-0.748-4.066-1.126C152.405,293.736,144.868,305.467,140.767,299.045z"/>
		<path fill="#9D9D9D" d="M140.767,299.045c4.102,6.422,11.639-5.309,15.403,2.918c-10.067,4.458-20.26,3.621-30.5,0.694
			C130.701,301.452,135.732,300.248,140.767,299.045z"/>
		<path fill="#9E9E9E" d="M278.167,164.672c15.19-3.394,24.976,15.061,40.571,10.041c1.58,6.553,3.158,13.108,4.742,19.661
			c-0.605,1.834-1.221,3.667-1.828,5.501c-0.264,0.732-0.532,1.462-0.803,2.191c-1.013,2.421-2.019,4.842-3.024,7.261
			c-0.621,0.147-1.24,0.312-1.855,0.498c0.628-12.559-12.479-14.446-17.544-22.581c-2.123-14.894-23.466-2.718-25.322-17.981
			C274.789,167.732,276.48,166.201,278.167,164.672z M295.27,173.044c-0.295,0.717-0.929,1.526-0.731,1.993
			c0.196,0.479,1.203,0.626,1.856,0.917c0.285-0.651,0.938-1.441,0.756-1.917C296.967,173.555,295.966,173.381,295.27,173.044z"/>
		<path fill="#898989" d="M315.968,209.825c0.61-0.187,1.229-0.351,1.854-0.498c6.035,3.429,12.068,6.856,18.107,10.285l0.014,0.012
			c-1.646,5.368-6.756,9.766-4.532,16.208c-0.464,0.518-0.851,1.093-1.154,1.722c-0.659,0.034-1.305,0.176-1.927,0.421
			c-2.514-2.838-5.021-5.677-7.533-8.514C319.184,222.916,317.576,216.37,315.968,209.825z"/>
		<path fill="#9E9E9E" d="M355.703,242.191c-1.372,0.293-2.745,0.587-4.12,0.876c-1.067-1.266-2.14-2.523-3.208-3.781
			c0.904-5.046,1.812-10.097,2.725-15.146c0.741-1.835,3.479-3.789-0.313-5.359c2.438-1.44,4.876-2.881,7.312-4.32
			C366.879,224.527,361.239,233.355,355.703,242.191z"/>
		<path fill="#CCCCCC" d="M350.779,218.78c3.794,1.57,1.059,3.524,0.312,5.364c-6.034,5.891-9.467,15.831-20.844,13.413
			c0.312-0.63,0.7-1.207,1.163-1.724C337.861,230.152,344.318,224.466,350.779,218.78z"/>
		<path fill="#CCCCCC" d="M320.846,202.066c0.271-0.729,0.543-1.459,0.801-2.189c9.018,0.585,18.033,1.169,27.057,1.752
			c1.6,0.112,3.199,0.224,4.801,0.337C342.636,207.397,331.745,205.667,320.846,202.066z"/>
		<path fill="#898989" d="M335.932,219.611c0.309-1.075,0.608-2.15,0.916-3.225c0.319,0.22,0.639,0.44,0.955,0.661
			c-0.617,0.858-1.24,1.717-1.859,2.574C335.943,219.624,335.932,219.611,335.932,219.611z"/>
		<path fill="#C0C0C0" d="M348.704,201.63c-9.021-0.583-18.04-1.166-27.054-1.752c0.611-1.836,1.225-3.669,1.83-5.504
			C332.859,193.412,340.471,198.597,348.704,201.63z"/>
		<path fill="#B7B7B7" d="M324.973,169.734c3.103-7.262,9.604-8.838,16.448-9.85c-0.586,9.786-10.442,8.401-15.47,12.834
			C325.625,171.723,325.297,170.728,324.973,169.734z"/>
		<path fill="#C0C0C0" d="M370.337,242.68c-1.653-0.289-3.303-0.576-4.957-0.864c0.829-2.523,1.664-5.044,2.499-7.567
			C371.943,236.115,370.966,239.448,370.337,242.68z"/>
		<path fill="#848484" d="M210.138,228.643c-0.237-0.664-0.12-1.255,0.35-1.776c7.455-6.61,20.09-4.432,25.275-14.894
			c6.453-10.958,20.895,0.37,27.594-9.892c2.539-0.02,5.08-0.042,7.617-0.063c-0.022,0.87-0.043,1.74-0.065,2.61
			c-6.49,3.558-1.929,4.787,1.327,6.29c-1.127,2.126-2.254,4.253-3.383,6.379c-3.724,3.333-3.148,7.672-2.811,11.958
			c-2.982,11.013,3.686,12.797,12.229,12.79l0.229,0.143c0.159,6.025,4.207,6.808,9.12,7.542
			c16.044,2.398,30.609,6.188,18.479,27.608c0.111,3.368,0.228,6.732,0.34,10.102c-2.129,3.26-4.256,6.519-6.392,9.774
			c-8.733,3.437-17.461,6.873-26.188,10.306c-3.51,2.384-7.021,4.756-10.528,7.138c-9.245-4.729-21.001-4.896-27.288-15.013
			c-3.406-2.401-3.773-4.879-0.173-7.451c2.509,0.816,5.02,1.634,7.528,2.445c0.064,0.805,0.084,1.609,0.066,2.418
			c0.801,0.043,1.603,0.086,2.407,0.129c22.429,13.306,31.197-8.771,45.143-17.437c4.844-1.396,11.631-4.308,7.713-9.179
			c-4.244-5.282-8.213-15.55-19.093-10.723l-0.646-0.072c-1.848-0.827-3.691-1.65-5.537-2.48l-0.235-0.107
			c-10.266-3.042-20.894-10.394-29.827,2.498c-1.633,5.869-3.263,11.748-4.896,17.621c-3.383-0.688-8.705,1.535-9.437-3.564
			C226.651,256.986,227.812,238.938,210.138,228.643z"/>
		<path fill="#A7A7A7" d="M286.684,332.31c-0.312,1.224-0.625,2.438-0.938,3.663c-3.979-0.557-7.95-1.12-11.934-1.679
			c-1.832-0.604-3.664-1.215-5.498-1.825c-8.353-2.951-7.019-9.043-4.986-15.357c1.762-0.035,3.521-0.072,5.281-0.105
			C272.193,324.99,279.719,328.32,286.684,332.31z"/>
		<path fill="#CCCCCC" d="M305.729,302.204c11.131,13.473-3.629,26.657-0.438,40.048
			C297.936,328.823,302.434,315.521,305.729,302.204z"/>
		<path fill="#929292" d="M268.613,317.003c-1.762,0.033-3.521,0.07-5.28,0.105c-0.03-0.816-0.026-1.638,0.004-2.451
			c3.511-2.381,7.021-4.758,10.529-7.135C272.115,310.682,270.364,313.844,268.613,317.003z"/>
		<path fill="#929292" d="M306.445,287.438c-0.114-3.367-0.229-6.73-0.344-10.102c12.312,3.712,21.92-4.139,32.541-7.645
			c1.51,7.095,7.205-2.834,9.198,2.263c0.312,0.294,0.655,0.526,1.048,0.7c-0.141,1.367-0.273,2.729-0.412,4.094
			c-5.31,3.133,0.506,6.678-0.36,9.975c-0.543,1.883-1.086,3.77-1.628,5.65c0,0-0.782,0.393-0.782,0.395
			c-4.063-0.205-8.13-0.41-12.19-0.617c3.782-5.914,1.162-12.364-4.043-12.424c-10.438-0.121-13.438,8.617-14.201,17.81
			C312.328,294.174,309.387,290.805,306.445,287.438z"/>
		<path fill="#848484" d="M315.27,297.539c0.766-9.189,3.766-17.924,14.201-17.809c5.204,0.059,7.822,6.508,4.043,12.426
			c-1.74,3.722-3.479,7.439-5.225,11.154c-1.594,1.194-3.184,2.399-4.778,3.604c0-0.002-0.272,0.351-0.272,0.351
			c-0.769-0.056-1.536-0.084-2.309-0.081c-1.669,0-3.342,0-5.012-0.001C315.699,303.969,315.486,300.755,315.27,297.539z
			 M328.031,285.078c-0.621,0.926-1.036,1.542-1.447,2.158c0.648,0.134,1.303,0.369,1.953,0.354
			c0.243-0.006,0.743-0.705,0.664-0.888C328.954,286.143,328.489,285.682,328.031,285.078z"/>
		<path fill="#848484" d="M268.316,332.469c1.834,0.61,3.666,1.224,5.498,1.825c-1.688,2.486-3.383,4.977-5.074,7.46
			c-5.867-0.479-11.713-3.582-17.629-0.192c-0.088-3.11-0.173-6.229-0.261-9.348c0.838-2.465,1.674-4.927,2.509-7.391
			c0.793-0.026,1.58,0.037,2.357,0.192C257.402,331.752,261.213,334.894,268.316,332.469z"/>
		<path fill="#C0C0C0" d="M346.486,292.38c0.543-1.884,1.087-3.771,1.627-5.651c1.021,2.812,2.045,5.625,3.066,8.442
			C349.617,294.241,348.053,293.311,346.486,292.38z"/>
		<path fill="#7C7C7C" d="M347.844,271.958c-1.998-5.101-7.693,4.834-9.199-2.265c-0.763-6.354,0.021-11.928,7.215-14.255
			c0.746-0.082,1.48-0.232,2.197-0.448c2.639,0.724,5.277,1.45,7.916,2.174c0.65,0.246,1.32,0.384,2.004,0.419
			C363.52,268.67,347.209,264.34,347.844,271.958z"/>
		<path fill="#CCCCCC" d="M231.325,147.491c3.131-1.037,6.263-2.073,9.395-3.11c-0.198,2.287-0.396,4.575-0.591,6.867
			c-5.231,2.585-5.054,7.583-4.155,11.85c2.746,13.031,0.653,25.208-4.954,37.014c-2.665-2.72-5.328-5.438-7.991-8.157
			c-0.25-1.625-0.5-3.25-0.748-4.875c-0.078-0.696-0.208-1.381-0.387-2.058c10.738-4.228,10.915-13.624,11.237-22.953
			C232.529,157.209,231.926,152.35,231.325,147.491z"/>
		<path fill="#8A8A8A" d="M210.138,228.643c17.675,10.297,16.514,28.345,18.921,45.105c0.731,5.102,6.054,2.879,9.435,3.562
			c1.635,5.774,3.273,11.557,4.909,17.332c-2.509-0.815-5.019-1.629-7.528-2.443c-1.714-3.403-3.429-6.811-5.144-10.215
			c-4.218-3.346-5.039-7.928-5.12-12.979c-0.126-7.866-2.26-14.039-12.223-12.194c-2.935-5.964-7.654-5.596-12.826-3.605
			c-2.368-0.228-4.739-0.457-7.109-0.686c-0.139-2.734-0.279-5.468-0.421-8.202c0.591-7.441,13.558-1.945,12.07-11.552
			C206.777,231.392,208.458,230.017,210.138,228.643z"/>
		<path fill="#929292" d="M193.032,244.312c0.142,2.734,0.282,5.468,0.421,8.2c-0.887,1.567-1.773,3.135-2.658,4.704
			c-0.309-0.178-0.619-0.36-0.928-0.539c0.347,0.14,0.695,0.278,1.042,0.417c-0.37,3.279-0.74,6.559-1.11,9.84
			c-4.358,0.662-10.43-2.285-11.447,5.43c-0.918-3.396-1.84-6.785-2.762-10.184C178.529,253.417,178.534,241.789,193.032,244.312z"
			/>
		<path fill="#C0C0C0" d="M163.323,237.109c3.942-0.114,5.31,2.043,4.27,5.508c-0.371,1.23-2.071,2.059-3.166,3.069
			c-1.185-2.046-2.371-4.096-3.556-6.145l-0.106,0.122c0.864-0.863,1.727-1.726,2.589-2.59L163.323,237.109z"/>
		<path fill="#C0C0C0" d="M221.895,185.022c0.179,0.676,0.309,1.362,0.376,2.054c-2.83,1.388-5.65,2.782-8.471,4.176l-0.224-0.406
			C217.475,190.516,215.111,181.237,221.895,185.022z"/>
		<path fill="#929292" d="M205.322,194.549c-0.442,0.049-0.839-0.065-1.183-0.339c3.148-1.121,6.291-2.24,9.433-3.362
			c0.001,0,0.226,0.405,0.224,0.414c-0.121,1.058-0.235,2.106-0.351,3.155C210.739,194.462,208.032,194.506,205.322,194.549z"/>
		<path fill="#8A8A8A" d="M235.763,211.971c-5.185,10.463-17.819,8.286-25.275,14.894c-2.138-7.141,6.077-8.911,7.392-14.261
			c0.206-0.967,0.409-1.935,0.612-2.904C224.265,210.338,231.25,201.756,235.763,211.971z"/>
		<path fill="#9E9E9E" d="M218.493,209.701c-0.204,0.968-0.408,1.936-0.613,2.903c-2.21-2.85-4.419-5.702-6.626-8.554
			c-1.974-3.166-3.95-6.332-5.928-9.5c2.704-0.045,5.412-0.089,8.12-0.132c0.713,0.246,1.447,0.367,2.203,0.359
			C216.597,199.751,217.544,204.726,218.493,209.701z"/>
		<path fill="#929292" d="M250.851,332.214c0.088,3.115,0.173,6.235,0.261,9.348c-0.75,0.738-1.504,1.479-2.252,2.222
			c-0.924,0.551-1.853,1.101-2.78,1.65c-1.52-2.188-3.041-4.367-4.567-6.55c-1.368-3.55-3.088-6.892-7.647-6.298
			c-1.308,0.168-2.437,1.712-3.649,2.627c2.112,1.584,4.228,3.172,6.34,4.755c-0.09,0.792-0.327,1.532-0.711,2.234
			c-2.665,1.128-5.332,2.255-7.994,3.39c-0.654-0.075-1.228-0.338-1.716-0.777c-1.159-9.05-6.543-11.605-14.85-9.658
			c-1.663-1.023-3.331-2.044-4.995-3.064c-0.18-0.799-0.301-1.607-0.361-2.427c7.486-5.317,13.393-17.419,24.728-4.207
			c2.554,2.974,10.12,5.646,12.445-2.989c0.919-0.09,1.839-0.179,2.757-0.268l0.016,0.015
			C245.631,326.489,246.395,330.271,250.851,332.214z"/>
		<path fill="#9E9E9E" d="M236.554,339.965c-2.112-1.584-4.228-3.171-6.34-4.756c1.213-0.915,2.342-2.456,3.649-2.627
			c4.561-0.595,6.28,2.747,7.647,6.298C239.861,339.239,238.208,339.603,236.554,339.965z"/>
		<path fill="#848484" d="M335.258,301.154c0.108-0.295,0.211-0.59,0.314-0.887c0.337,0.123,0.729,0.18,0.979,0.399
			c0.088,0.078-0.177,0.556-0.279,0.851C335.932,301.396,335.596,301.275,335.258,301.154z"/>
		<path fill="#9E9E9E" d="M320.93,307.185c0.771-0.003,1.541,0.025,2.309,0.081C322.468,307.237,321.697,307.212,320.93,307.185z"/>
		<path fill="#8F8F8F" d="M248.778,134.449c4.318,6.99,1.28,11.789-4.685,15.714c-0.981-2.602-1.961-5.198-2.939-7.794
			c-0.142-1.654-0.282-3.308-0.421-4.962c1.58-1.159,3.162-2.318,4.745-3.476C246.577,134.103,247.677,134.275,248.778,134.449z"/>
		<path fill="#B7B7B7" d="M245.477,133.931c-1.581,1.158-3.165,2.317-4.744,3.476c-0.875-0.262-1.75-0.521-2.627-0.781
			C239.265,132.181,241.416,130.442,245.477,133.931z"/>
		<path fill="#ADADAD" d="M241.153,142.369c0.979,2.597,1.958,5.192,2.939,7.794c-0.117,0.682-0.268,1.354-0.456,2.018
			c-0.903-0.016-1.804-0.034-2.704-0.049l-0.808-0.89c0.198-2.288,0.396-4.576,0.594-6.863
			C240.793,143.695,240.935,143.025,241.153,142.369z"/>
		<path fill="#9E9E9E" d="M160.582,303.032c6.739-8.918,0.885-18.726,1.978-28.042c4.964-0.998,10.489-2.973,6.488,6.08
			c-1.596,3.615-4.342,9.046,3.951,8.809c2.925,7.695,0.571,13.389-6.551,17.271C163.745,306.844,160.443,307.394,160.582,303.032z"
			/>
		<path fill="#B7B7B7" d="M188.044,287.689c-4.732,0.736-9.465,1.478-14.199,2.217c-2.478-8.133,5.242-9.367,8.996-13.288
			c1.674-0.052,3.348-0.101,5.022-0.147c2.391,9.125,10.196,4.198,15.428,5.944c-0.904,0.737-1.808,1.476-2.712,2.212
			C196.402,285.646,192.222,286.668,188.044,287.689z"/>
		<path fill="#9E9E9E" d="M178.353,272.355c1.017-7.711,7.089-4.765,11.448-5.426c0.375,0.692,0.5,1.43,0.377,2.209
			c-2.479,1.797-4.959,3.594-7.438,5.396C181.278,273.809,179.816,273.083,178.353,272.355z"/>
		<path fill="#C0C0C0" d="M182.74,274.535c2.479-1.803,4.958-3.598,7.441-5.395l0.586,0.457c-0.969,2.291-1.937,4.582-2.906,6.873
			c-1.673,0.047-3.346,0.098-5.02,0.146C183.004,275.914,182.972,275.221,182.74,274.535z"/>
		<path fill="#D7D7D7" d="M181.908,348.02c-0.197-0.278-0.392-0.565-0.587-0.853c0.427-0.224,0.855-0.452,1.284-0.677
			c0.053,0.351,0.235,0.751,0.123,1.037C182.635,347.764,182.194,347.861,181.908,348.02z"/>
		<path fill="#9E9E9E" d="M243.101,322.463c-2.326,8.636-9.892,5.964-12.445,2.99c-11.337-13.212-17.243-1.11-24.728,4.207
			c-5.773,0.466-8.093-2.358-7.542-7.92c2.062-2.815,4.122-5.629,6.177-8.432C219.321,308.305,229.633,322.039,243.101,322.463z"/>
		<path fill="#929292" d="M348.057,254.992c-0.717,0.217-1.455,0.366-2.197,0.441c-0.297-4.233,0.805-10.253-6.741-6.125
			c-2.134,1.167-3.149,6.16-6.388,2.718c-3.703-3.941,1.645-6.249,2.941-9.304c4.234-1.145,8.469-2.292,12.703-3.438
			c1.07,1.259,2.143,2.516,3.208,3.783c-0.864,2.979-1.728,5.953-2.591,8.926C348.68,252.992,348.368,253.993,348.057,254.992z"/>
		<path fill="#8F8F8F" d="M348.057,254.992c0.312-0.998,0.62-1.999,0.938-2.999c3.489,0.157,6.81,0.544,6.979,5.174
			C353.334,256.441,350.699,255.716,348.057,254.992z"/>
		<path fill="#A7A7A7" d="M152.802,232.612c2.071-0.577,4.142-1.153,6.212-1.729c-0.998,1.268-1.997,2.536-2.996,3.803
			c-0.971-0.074-1.939-0.147-2.911-0.221C152.812,233.88,152.708,233.262,152.802,232.612z"/>
		<path fill="#9E9E9E" d="M153.108,234.464c0.972,0.074,1.94,0.147,2.911,0.221c-0.193,1.74-0.388,3.48-0.582,5.223
			C151.814,239.31,150.199,237.854,153.108,234.464z"/>
		<path fill="#848484" d="M278.167,164.672c-1.687,1.529-3.378,3.061-5.063,4.591c-7.521-1.407-14.896-2.258-20.144,5.18
			c-2.416-3.334-4.834-6.667-7.252-10c0.909-0.795,1.817-1.59,2.725-2.381c6.562-0.736,13.543,2.245,19.69-2.212
			c0.857-0.045,1.72-0.088,2.579-0.131C273.189,161.373,275.68,163.022,278.167,164.672z"/>
		<path fill="#9E9E9E" d="M318.559,167.001c0.231,0.815,0.238,1.632,0.021,2.453c-1.064-0.377-2.129-0.757-3.194-1.133
			C316.439,167.878,317.499,167.439,318.559,167.001z"/>
		<path fill="#A7A7A7" d="M163.354,237.074c-0.862,0.864-1.725,1.727-2.589,2.59C161.629,238.802,162.493,237.938,163.354,237.074z"
			/>
		<path fill="#8A8A8A" d="M243.101,322.463c-13.468-0.424-23.78-14.16-38.539-9.151c-0.548-0.487-0.927-1.076-1.134-1.774
			c-0.043-8.061-4.146-11.975-12.15-11.907c-0.301-0.851-0.604-1.694-0.905-2.543c-0.773-3.135-1.548-6.269-2.325-9.396
			c4.174-1.02,8.353-2.039,12.533-3.062c7.936,6.59,12.327,18.278,25.32,17.583c3.382-0.853,6.766-1.707,10.147-2.56
			c6.287,10.111,18.043,10.28,27.289,15.012c-0.03,0.813-0.034,1.635-0.004,2.452c-2.031,6.313-3.367,12.407,4.983,15.357
			c-7.104,2.43-10.914-0.716-12.597-7.455c0.312-0.604,0.626-1.21,0.94-1.812c-1.103,0.542-2.198,1.083-3.303,1.623
			c-0.835,2.464-1.671,4.926-2.51,7.39c-4.456-1.94-5.22-5.725-4.979-10.007c1.25-1.021,2.498-2.042,3.749-3.062
			c-0.272-0.268-0.544-0.531-0.818-0.8c-0.981,1.281-1.962,2.564-2.945,3.849C244.939,322.284,244.021,322.374,243.101,322.463z"/>
		<path fill="#7C7C7C" d="M191.278,299.624c8.005-0.063,12.107,3.853,12.15,11.908c-5.58,1.062-11.134,2.727-16.752,2.979
			c-3.59,0.163-7.694,6.01-10.624,0.426c-2.376-4.524,2.869-6.962,5.082-10.145c1.537-1.42,3.072-2.832,4.609-4.252
			c1.029-0.267,2.053-0.529,3.076-0.797c-0.004,0,1.234,0.051,1.234,0.051L191.278,299.624z"/>
		<path fill="#898989" d="M185.741,300.543c-1.538,1.418-3.073,2.83-4.609,4.249c0.758-1.985,1.515-3.976,2.27-5.959
			C184.181,299.402,184.963,299.973,185.741,300.543z"/>
		<path fill="#7C7C7C" d="M170.51,317.523c-0.454-0.453-0.905-0.908-1.358-1.363c0.728,0.175,1.454,0.354,2.18,0.523L170.51,317.523
			z"/>
		<path fill="#7C7C7C" d="M171.333,316.687c0.204,0.77,0.409,1.531,0.611,2.301c-0.476-0.488-0.953-0.979-1.431-1.47
			C170.51,317.523,171.333,316.687,171.333,316.687z"/>
		<path fill="#898989" d="M191.278,299.624l-1.227,0.173c0,0-1.238-0.051-1.234-0.051c0.524-0.891,1.041-1.779,1.556-2.669
			C190.674,297.932,190.977,298.775,191.278,299.624z"/>
		<path fill="#ADADAD" d="M245.708,164.444c2.418,3.333,4.835,6.666,7.254,10c3.202,1.619,6.399,3.236,9.595,4.854
			c1.236,1.241,2.479,2.479,3.713,3.719c0,0,0.198,0.708,0.198,0.715c-0.096,2.776-0.194,5.547-0.292,8.317l-0.1,0.625
			c-0.631,0.018-1.219,0.183-1.762,0.503c-11.371-3.475-24.587-10.719-23.354,11.471c-3.313-1.514-6.625-3.025-9.939-4.537
			c5.608-11.807,7.7-23.983,4.954-37.014c-0.9-4.267-1.077-9.264,4.155-11.85c-0.004-0.002,0.803,0.885,0.803,0.884
			c0.817,2.485,1.634,4.969,2.451,7.454C244.158,161.204,244.933,162.825,245.708,164.444z"/>
		<path fill="#727272" d="M268.122,159.851c-6.146,4.457-13.127,1.475-19.69,2.212c1.843-5.056,1-12.321,8.75-12.875
			C264.249,148.682,266.018,154.685,268.122,159.851z"/>
		<path fill="#8F8F8F" d="M243.384,159.584c-0.818-2.485-1.635-4.969-2.451-7.454c0.899,0.017,1.8,0.035,2.704,0.051
			C243.553,154.651,243.469,157.116,243.384,159.584z"/>
		<path fill="#8A8A8A" d="M315.968,209.825c1.608,6.545,3.212,13.091,4.822,19.64c-4.722,0.932-9.445,1.863-14.17,2.793
			c-1.438-7.615-2.882-15.231-4.317-22.847c0.268-0.569,0.393-1.169,0.377-1.793c-2.183-1.162-4.365-2.329-6.545-3.495
			c6.184-4.89-2.691-11.824,2.291-16.88C303.486,195.379,316.594,197.266,315.968,209.825z"/>
		<path fill="#929292" d="M298.422,187.243c-4.979,5.055,3.895,11.99-2.29,16.882c-4.795-1.293-5.405-5.007-5.29-9.142
			c-2.297-8.374-9.545-6.836-15.556-7.769c-2.94-1.163-5.882-2.324-8.818-3.486c0,0-0.198-0.708-0.202-0.713
			c2.273-1.08,7.438-0.574,5.814-4.035c-2.037-4.352-6.255-0.313-9.525,0.321c-3.197-1.618-6.394-3.236-9.596-4.855
			c5.247-7.438,12.619-6.587,20.141-5.18C274.958,184.525,296.3,172.349,298.422,187.243z M288.984,184.877
			c-0.174,0.583-0.336,1.123-0.498,1.663c0.389,0.106,0.873,0.415,1.146,0.282c0.589-0.285,1.066-0.791,1.591-1.207
			C290.501,185.378,289.781,185.141,288.984,184.877z"/>
		<path fill="#A7A7A7" d="M295.27,173.044c0.699,0.337,1.697,0.51,1.881,0.993c0.183,0.478-0.469,1.266-0.756,1.917
			c-0.648-0.292-1.66-0.438-1.854-0.917C294.34,174.57,294.975,173.761,295.27,173.044z"/>
		<path fill="#848484" d="M306.62,232.259c4.726-0.931,9.448-1.863,14.17-2.794c2.515,2.834,5.022,5.673,7.54,8.506
			c0.212,0.479,0.309,0.981,0.287,1.506c-7.365-0.065-14.676,6.772-22.102,0.186C306.55,237.193,306.586,234.726,306.62,232.259z"/>
		<path fill="#C0C0C0" d="M328.617,239.477c0.021-0.525-0.075-1.027-0.287-1.506c0.62-0.241,1.266-0.383,1.925-0.417
			c11.366,2.42,14.8-7.521,20.835-13.411c-0.902,5.045-1.811,10.096-2.719,15.142c-4.232,1.145-8.469,2.292-12.703,3.436
			C333.323,241.642,330.973,240.56,328.617,239.477z"/>
		<path fill="#8A8A8A" d="M328.617,239.477c2.351,1.083,4.705,2.166,7.055,3.246c-1.3,3.055-6.645,5.363-2.941,9.304
			c3.235,3.441,4.254-1.551,6.388-2.718c7.551-4.127,6.444,1.892,6.741,6.125c-7.193,2.333-7.979,7.906-7.215,14.261
			c-10.621,3.504-20.228,11.354-32.543,7.643c12.135-21.421-2.431-25.21-18.477-27.607c-4.912-0.733-8.962-1.517-9.119-7.542
			c5.543,0.883,11.086,1.765,16.627,2.647c3.795-1.724,7.594-3.449,11.387-5.171C313.941,246.248,321.252,239.412,328.617,239.477z"
			/>
		<path fill="#929292" d="M243.403,294.643c-1.635-5.774-3.274-11.555-4.909-17.332c1.635-5.871,3.265-11.748,4.896-17.621
			c3.42-0.014,6.842-0.026,10.262-0.043c-3.473,5.347-11.581,9.067-6.129,17.533c-2.75,7.068-1.98,15.258,5.602,16.063
			c12.743,1.354,22.794-6.28,30.702-16.166c0.756-2.525,1.517-5.048,2.272-7.574c1.637,3.416,3.279,6.835,4.922,10.253
			c-13.948,8.66-22.713,30.738-45.146,17.436c-0.803-0.037-1.605-0.078-2.406-0.129
			C243.488,296.254,243.468,295.449,243.403,294.643z"/>
		<path fill="#CCCCCC" d="M302.672,207.612c0.023,0.63-0.104,1.23-0.367,1.796c-7.635,9.734,3.258,21.66-3.714,31.475
			c-5.747-13.115-17.911-18.135-29.735-23.587c1.127-2.126,2.256-4.253,3.385-6.379c0,0,0.021-0.299,0.003-0.305
			c-0.019-0.005,0.997,0.008,0.997,0.008l0.478-0.898C282.852,201.919,293.064,208.928,302.672,207.612z"/>
		<path fill="#B7B7B7" d="M286.1,269.504c-0.756,2.525-1.517,5.049-2.271,7.578c-12.111-3.876-24.229-9.619-36.305,0.098
			c-5.452-8.467,2.657-12.188,6.129-17.533c6.52-0.814,13.046-1.635,19.568-2.453l0.233,0.107c1.846,0.827,3.69,1.65,5.538,2.48
			l0.646,0.072C281.792,263.072,283.943,266.286,286.1,269.504z"/>
		<path fill="#ADADAD" d="M268.855,217.296c11.82,5.452,23.985,10.472,29.74,23.577c-1.152,1.313-2.308,2.638-3.462,3.961
			c-5.542-0.883-11.084-1.765-16.628-2.647l-0.229-0.143c-4.077-4.265-8.152-8.527-12.229-12.79
			C265.706,224.968,265.134,220.628,268.855,217.296z"/>
		<path fill="#929292" d="M231.021,200.111c3.313,1.513,6.625,3.025,9.939,4.537c10.168,1.027,18.388-1.909,23.354-11.471
			c0.545-0.318,1.131-0.485,1.763-0.503c-0.909,3.135-1.812,6.27-2.722,9.406c-6.696,10.262-21.144-1.067-27.598,9.892
			c-4.514-10.216-11.499-1.634-17.273-2.272c-0.946-4.974-1.894-9.948-2.842-14.926c2.461-0.94,4.92-1.882,7.379-2.82
			C225.692,194.674,228.355,197.391,231.021,200.111z"/>
		<path fill="#8A8A8A" d="M263.357,202.081c0.906-3.136,1.81-6.271,2.719-9.406c0,0,0.1-0.625,0.1-0.624
			c3.035-1.611,6.072-3.224,9.11-4.838c6.011,0.933,13.259-0.605,15.562,7.765c-5.588,0.501-7.166,10.432-14.738,6.264
			c-1.006-1.002-2.008-2.002-3.014-3.001c-0.707,1.258-1.414,2.518-2.121,3.777C268.438,202.039,265.896,202.061,263.357,202.081z"
			/>
		<path fill="#8A8A8A" d="M286.1,269.504c-2.149-3.218-4.308-6.432-6.459-9.648c10.881-4.828,14.851,5.438,19.094,10.725
			c3.914,4.871-2.868,7.781-7.715,9.178C289.381,276.339,287.736,272.92,286.1,269.504z"/>
		<path fill="#929292" d="M236.048,299.646c-3.381,0.854-6.765,1.705-10.147,2.559c-7.706-5.623-2.12-11.393-0.19-17.121
			c1.672-1.034,3.347-2.066,5.019-3.102c1.715,3.406,3.43,6.811,5.144,10.217C232.274,294.768,232.642,297.242,236.048,299.646z"/>
		<path fill="#8A8A8A" d="M273.221,257.193c-6.521,0.815-13.051,1.637-19.568,2.453c-3.42,0.016-6.843,0.026-10.262,0.043
			C252.325,246.801,262.953,254.149,273.221,257.193z"/>
		<path fill="#8A8A8A" d="M266.047,229.254c4.075,4.264,8.15,8.527,12.227,12.79C269.729,242.051,263.062,240.267,266.047,229.254z"
			/>
		<path fill="#929292" d="M270.975,202.018c0.707-1.259,1.414-2.519,2.121-3.777c1,1,2.008,2.002,3.014,3.005
			c-1.564,1.273-3.133,2.536-4.698,3.806l-0.499-0.423C270.932,203.758,270.952,202.887,270.975,202.018z"/>
		<path fill="#929292" d="M272.236,210.917c-3.256-1.503-7.813-2.731-1.327-6.29c0,0,0.501,0.423,0.498,0.42
			c-0.265,0.53-0.433,1.088-0.509,1.675c0.457,1.299,0.902,2.596,1.365,3.895L272.236,210.917z"/>
		<path fill="#8A8A8A" d="M278.995,259.779c-1.847-0.825-3.693-1.651-5.539-2.479C275.305,258.128,277.148,258.954,278.995,259.779z
			"/>
		<path fill="#8A8A8A" d="M243.469,297.061c0.801,0.051,1.603,0.094,2.407,0.129C245.071,297.146,244.27,297.104,243.469,297.061z"
			/>
		<path fill="#929292" d="M328.031,285.078c0.458,0.604,0.923,1.064,1.17,1.625c0.074,0.184-0.421,0.882-0.664,0.888
			c-0.65,0.015-1.305-0.221-1.953-0.354C326.995,286.62,327.41,286.004,328.031,285.078z"/>
		<path fill="#929292" d="M253.361,324.823c1.103-0.542,2.198-1.083,3.302-1.623c-0.313,0.604-0.63,1.208-0.94,1.812
			C254.939,324.859,254.155,324.797,253.361,324.823z"/>
		<path fill="#8A8A8A" d="M223.029,191.955c-2.46,0.939-4.919,1.879-7.38,2.82c-0.756,0.01-1.49-0.111-2.203-0.357
			c0.116-1.05,0.229-2.098,0.351-3.156c2.823-1.403,5.644-2.797,8.473-4.186C222.53,188.705,222.779,190.33,223.029,191.955z"/>
		<path fill="#9D9D9D" d="M230.731,281.98c-1.672,1.035-3.347,2.066-5.019,3.101c-0.824-0.208-1.648-0.416-2.471-0.624
			c-5.049-7.459-10.1-14.915-15.15-22.373c1.767-1.76,3.532-3.52,5.298-5.275c9.962-1.844,12.096,4.328,12.223,12.193
			C225.691,274.057,226.513,278.641,230.731,281.98z"/>
		<path fill="#CCCCCC" d="M213.387,256.809c-1.765,1.76-3.532,3.52-5.295,5.275c-4.613,2.834-9.225,5.67-13.837,8.5
			c-0.503-0.505-0.992-1.021-1.472-1.547c-0.994-7.041,3.789-11.246,7.778-15.835C205.734,251.211,210.453,250.84,213.387,256.809z"
			/>
		<path fill="#C0C0C0" d="M200.561,253.199c-3.989,4.592-8.771,8.797-7.776,15.838c-0.685,0.143-1.357,0.33-2.019,0.557
			l-0.586-0.457c0.121-0.781-0.005-1.519-0.38-2.209c0.37-3.281,0.739-6.561,1.109-9.84l-0.116,0.122
			c0.885-1.568,1.771-3.136,2.658-4.704C195.823,252.742,198.193,252.971,200.561,253.199z"/>
		<path fill="#C0C0C0" d="M190.91,257.091c-0.347-0.139-0.695-0.278-1.042-0.417c0.31,0.182,0.619,0.362,0.928,0.541L190.91,257.091
			z"/>
		<path fill="#A7A7A7" d="M223.238,284.457c0.823,0.208,1.648,0.416,2.473,0.624c-1.93,5.729-7.516,11.499,0.19,17.124
			c-12.993,0.697-17.385-10.99-25.32-17.581c0.9-0.737,1.807-1.474,2.713-2.21c0.003-0.004,0.688-0.25,0.688-0.25
			C210.362,283.266,215.974,290.797,223.238,284.457z"/>
		<path fill="#CCCCCC" d="M190.767,269.598c0.662-0.229,1.332-0.416,2.019-0.559c0.479,0.525,0.968,1.041,1.465,1.542
			c-4.367,10.251,6.037,8.099,9.732,11.583c0,0-0.685,0.248-0.688,0.252c-5.234-1.75-13.04,3.182-15.431-5.945
			C188.83,274.18,189.797,271.889,190.767,269.598z"/>
		<path fill="#929292" d="M245.858,322.196c0.983-1.283,1.964-2.565,2.945-3.849c0.273,0.268,0.545,0.533,0.817,0.798
			c-1.25,1.021-2.499,2.039-3.749,3.062L245.858,322.196z"/>
		<path fill="#8F8F8F" d="M264.312,193.178c-4.965,9.562-13.188,12.498-23.354,11.471
			C239.725,182.458,252.944,189.703,264.312,193.178z"/>
		<path fill="#A7A7A7" d="M275.286,187.212c-3.038,1.614-6.075,3.228-9.11,4.838c0.1-2.771,0.196-5.542,0.295-8.318
			C269.404,184.888,272.348,186.05,275.286,187.212z"/>
		<path fill="#A7A7A7" d="M262.557,179.298c3.27-0.634,7.486-4.672,9.524-0.32c1.619,3.461-3.542,2.956-5.815,4.034
			C265.032,181.778,263.794,180.54,262.557,179.298z"/>
		<path fill="#9E9E9E" d="M270.895,206.723c0.078-0.587,0.248-1.145,0.51-1.675c1.57-1.265,3.14-2.529,4.705-3.802
			c7.57,4.165,9.146-5.766,14.735-6.267c-0.118,4.139,0.496,7.854,5.287,9.146c2.183,1.164,4.365,2.331,6.544,3.493
			c-9.615,1.31-19.828-5.699-28.967,2.105C272.773,208.724,271.834,207.725,270.895,206.723z"/>
		<path fill="#A7A7A7" d="M295.133,244.834c1.158-1.324,2.312-2.65,3.463-3.961c6.965-9.805-3.929-21.73,3.704-31.465
			c1.437,7.619,2.878,15.235,4.319,22.848c-0.034,2.468-0.071,4.937-0.105,7.406C302.727,241.385,298.93,243.11,295.133,244.834z"/>
		<path fill="#8A8A8A" d="M288.984,184.877c0.798,0.264,1.521,0.501,2.236,0.739c-0.521,0.417-0.996,0.923-1.592,1.207
			c-0.27,0.132-0.753-0.176-1.141-0.282C288.648,186,288.809,185.46,288.984,184.877z"/>
		<path fill="#CCCCCC" d="M247.523,277.18c12.077-9.717,24.194-3.974,36.305-0.098c-7.909,9.881-17.96,17.518-30.703,16.161
			C245.543,292.438,244.774,284.247,247.523,277.18z"/>
		<path fill="#848484" d="M270.895,206.723c0.939,1,1.879,2.001,2.821,3c0.003,0-0.475,0.896-0.475,0.896s-1.015-0.013-0.995-0.009
			C271.802,209.319,271.35,208.022,270.895,206.723z"/>
		<path fill="#ADADAD" d="M203.982,282.164c-3.695-3.484-14.099-1.335-9.733-11.583c4.618-2.828,9.229-5.665,13.843-8.495
			c5.048,7.455,10.099,14.914,15.147,22.37C215.974,290.797,210.362,283.266,203.982,282.164z"/>
	</g>
</g>
</svg>
