<?xml version="1.0" encoding="utf-8"?>
<!-- Generator: Adobe Illustrator 16.0.0, SVG Export Plug-In . SVG Version: 6.00 Build 0)  -->
<!DOCTYPE svg PUBLIC "-//W3C//DTD SVG 1.1//EN" "http://www.w3.org/Graphics/SVG/1.1/DTD/svg11.dtd">
<svg version="1.1" xmlns="http://www.w3.org/2000/svg" xmlns:xlink="http://www.w3.org/1999/xlink" x="0px" y="0px" width="512px"
	 height="512px" viewBox="0 0 512 512" enable-background="new 0 0 512 512" xml:space="preserve">
<g id="Layer_1">
	<ellipse fill="#961B1E" cx="252.939" cy="387.204" rx="54.36" ry="101.533"/>
	<g>
		<g>
			<g>
				<defs>
					<path id="SVGID_1_" d="M445.062,235.429c0,3.806-3.171,8.613-3.351,12.369c-4.099,85.539-54.274,150.136-123.134,177.356
						c-19.188,7.585-40.852,11.71-62.344,11.71c-28.348,0-54.179-7.176-78.185-20C124.064,388.026,84.5,337.802,74.823,269.217
						c-0.855-6.064-3.347-13.325-3.724-19.551c-0.287-4.731,1.438-8.398,1.437-13.211c0-4.817,0.146-9.596,0.433-14.331
						C79.523,114.16,159.53,28.865,257.264,28.865c92.236,0,168.688,75.973,182.496,175.272
						C441.225,214.668,445.062,224.436,445.062,235.429z"/>
				</defs>
				<clipPath id="SVGID_2_">
					<use xlink:href="#SVGID_1_"  overflow="visible"/>
				</clipPath>
				<rect x="51.794" y="29.273" clip-path="url(#SVGID_2_)" fill="#1DB24B" width="424.594" height="424.594"/>
			</g>
		</g>
	</g>
	<g>
		<g>
			<g>
				<defs>
					<path id="SVGID_3_" d="M445.062,235.429c0,3.806-3.171,8.613-3.351,12.369c-4.099,85.539-54.274,150.136-123.134,177.356
						c-19.188,7.585-40.852,11.71-62.344,11.71c-28.348,0-54.179-7.176-78.185-20C124.064,388.026,84.5,337.802,74.823,269.217
						c-0.855-6.064-3.347-13.325-3.724-19.551c-0.287-4.731,1.438-8.398,1.437-13.211c0-4.817,0.146-9.596,0.433-14.331
						C79.523,114.16,159.53,28.865,257.264,28.865c92.236,0,168.688,75.973,182.496,175.272
						C441.225,214.668,445.062,224.436,445.062,235.429z"/>
				</defs>
				<clipPath id="SVGID_4_">
					<use xlink:href="#SVGID_3_"  overflow="visible"/>
				</clipPath>
				<ellipse clip-path="url(#SVGID_4_)" fill="#11933E" cx="130.281" cy="252.062" rx="50.95" ry="73.654"/>
			</g>
		</g>
	</g>
	<g>
		<g>
			<g>
				<defs>
					<path id="SVGID_5_" d="M445.062,235.429c0,3.806-3.171,8.613-3.351,12.369c-4.099,85.539-54.274,150.136-123.134,177.356
						c-19.188,7.585-40.852,11.71-62.344,11.71c-28.348,0-54.179-7.176-78.185-20C124.064,388.026,84.5,337.802,74.823,269.217
						c-0.855-6.064-3.347-13.325-3.724-19.551c-0.287-4.731,1.438-8.398,1.437-13.211c0-4.817,0.146-9.596,0.433-14.331
						C79.523,114.16,159.53,28.865,257.264,28.865c92.236,0,168.688,75.973,182.496,175.272
						C441.225,214.668,445.062,224.436,445.062,235.429z"/>
				</defs>
				<clipPath id="SVGID_6_">
					<use xlink:href="#SVGID_5_"  overflow="visible"/>
				</clipPath>
				<circle clip-path="url(#SVGID_6_)" fill="#FFDD00" cx="249.808" cy="225.475" r="104.117"/>
			</g>
		</g>
	</g>
	<g>
		<g>
			<g>
				<defs>
					<path id="SVGID_7_" d="M445.062,235.429c0,3.806-3.171,8.613-3.351,12.369c-4.099,85.539-54.274,150.136-123.134,177.356
						c-19.188,7.585-40.852,11.71-62.344,11.71c-28.348,0-54.179-7.176-78.185-20C124.064,388.026,84.5,337.802,74.823,269.217
						c-0.855-6.064-3.347-13.325-3.724-19.551c-0.287-4.731,1.438-8.398,1.437-13.211c0-4.817,0.146-9.596,0.433-14.331
						C79.523,114.16,159.53,28.865,257.264,28.865c92.236,0,168.688,75.973,182.496,175.272
						C441.225,214.668,445.062,224.436,445.062,235.429z"/>
				</defs>
				<clipPath id="SVGID_8_">
					<use xlink:href="#SVGID_7_"  overflow="visible"/>
				</clipPath>
				<circle clip-path="url(#SVGID_8_)" fill="#C7DA2C" cx="152.917" cy="118.429" r="57.576"/>
			</g>
		</g>
	</g>
	<g>
		<g>
			<g>
				<defs>
					<path id="SVGID_9_" d="M445.062,235.429c0,3.806-3.171,8.613-3.351,12.369c-4.099,85.539-54.274,150.136-123.134,177.356
						c-19.188,7.585-40.852,11.71-62.344,11.71c-28.348,0-54.179-7.176-78.185-20C124.064,388.026,84.5,337.802,74.823,269.217
						c-0.855-6.064-3.347-13.325-3.724-19.551c-0.287-4.731,1.438-8.398,1.437-13.211c0-4.817,0.146-9.596,0.433-14.331
						C79.523,114.16,159.53,28.865,257.264,28.865c92.236,0,168.688,75.973,182.496,175.272
						C441.225,214.668,445.062,224.436,445.062,235.429z"/>
				</defs>
				<clipPath id="SVGID_10_">
					<use xlink:href="#SVGID_9_"  overflow="visible"/>
				</clipPath>
				<circle clip-path="url(#SVGID_10_)" fill="#1DB24B" cx="268.035" cy="267.819" r="8.462"/>
			</g>
		</g>
	</g>
	<g>
		<g>
			<g>
				<defs>
					<path id="SVGID_11_" d="M445.062,235.429c0,3.806-3.171,8.613-3.351,12.369c-4.099,85.539-54.274,150.136-123.134,177.356
						c-19.188,7.585-40.852,11.71-62.344,11.71c-28.348,0-54.179-7.176-78.185-20C124.064,388.026,84.5,337.802,74.823,269.217
						c-0.855-6.064-3.347-13.325-3.724-19.551c-0.287-4.731,1.438-8.398,1.437-13.211c0-4.817,0.146-9.596,0.433-14.331
						C79.523,114.16,159.53,28.865,257.264,28.865c92.236,0,168.688,75.973,182.496,175.272
						C441.225,214.668,445.062,224.436,445.062,235.429z"/>
				</defs>
				<clipPath id="SVGID_12_">
					<use xlink:href="#SVGID_11_"  overflow="visible"/>
				</clipPath>
				<circle clip-path="url(#SVGID_12_)" fill="#11933E" cx="451.661" cy="270.781" r="8.462"/>
			</g>
		</g>
	</g>
	<g>
		<g>
			<g>
				<defs>
					<path id="SVGID_13_" d="M445.062,235.429c0,3.806-3.171,8.613-3.351,12.369c-4.099,85.539-54.274,150.136-123.134,177.356
						c-19.188,7.585-40.852,11.71-62.344,11.71c-28.348,0-54.179-7.176-78.185-20C124.064,388.026,84.5,337.802,74.823,269.217
						c-0.855-6.064-3.347-13.325-3.724-19.551c-0.287-4.731,1.438-8.398,1.437-13.211c0-4.817,0.146-9.596,0.433-14.331
						C79.523,114.16,159.53,28.865,257.264,28.865c92.236,0,168.688,75.973,182.496,175.272
						C441.225,214.668,445.062,224.436,445.062,235.429z"/>
				</defs>
				<clipPath id="SVGID_14_">
					<use xlink:href="#SVGID_13_"  overflow="visible"/>
				</clipPath>
				<circle clip-path="url(#SVGID_14_)" fill="#77C043" cx="343.348" cy="152.735" r="4.231"/>
			</g>
		</g>
	</g>
	<g>
		<g>
			<g>
				<defs>
					<path id="SVGID_15_" d="M445.062,235.429c0,3.806-3.171,8.613-3.351,12.369c-4.099,85.539-54.274,150.136-123.134,177.356
						c-19.188,7.585-40.852,11.71-62.344,11.71c-28.348,0-54.179-7.176-78.185-20C124.064,388.026,84.5,337.802,74.823,269.217
						c-0.855-6.064-3.347-13.325-3.724-19.551c-0.287-4.731,1.438-8.398,1.437-13.211c0-4.817,0.146-9.596,0.433-14.331
						C79.523,114.16,159.53,28.865,257.264,28.865c92.236,0,168.688,75.973,182.496,175.272
						C441.225,214.668,445.062,224.436,445.062,235.429z"/>
				</defs>
				<clipPath id="SVGID_16_">
					<use xlink:href="#SVGID_15_"  overflow="visible"/>
				</clipPath>
				<circle clip-path="url(#SVGID_16_)" fill="#77C043" cx="357.154" cy="175.303" r="4.231"/>
			</g>
		</g>
	</g>
	<g>
		<g>
			<g>
				<defs>
					<path id="SVGID_17_" d="M445.062,235.429c0,3.806-3.171,8.613-3.351,12.369c-4.099,85.539-54.274,150.136-123.134,177.356
						c-19.188,7.585-40.852,11.71-62.344,11.71c-28.348,0-54.179-7.176-78.185-20C124.064,388.026,84.5,337.802,74.823,269.217
						c-0.855-6.064-3.347-13.325-3.724-19.551c-0.287-4.731,1.438-8.398,1.437-13.211c0-4.817,0.146-9.596,0.433-14.331
						C79.523,114.16,159.53,28.865,257.264,28.865c92.236,0,168.688,75.973,182.496,175.272
						C441.225,214.668,445.062,224.436,445.062,235.429z"/>
				</defs>
				<clipPath id="SVGID_18_">
					<use xlink:href="#SVGID_17_"  overflow="visible"/>
				</clipPath>
				<circle clip-path="url(#SVGID_18_)" fill="#DC2726" cx="365.611" cy="200.372" r="4.231"/>
			</g>
		</g>
	</g>
	<g>
		<g>
			<g>
				<defs>
					<path id="SVGID_19_" d="M445.062,235.429c0,3.806-3.171,8.613-3.351,12.369c-4.099,85.539-54.274,150.136-123.134,177.356
						c-19.188,7.585-40.852,11.71-62.344,11.71c-28.348,0-54.179-7.176-78.185-20C124.064,388.026,84.5,337.802,74.823,269.217
						c-0.855-6.064-3.347-13.325-3.724-19.551c-0.287-4.731,1.438-8.398,1.437-13.211c0-4.817,0.146-9.596,0.433-14.331
						C79.523,114.16,159.53,28.865,257.264,28.865c92.236,0,168.688,75.973,182.496,175.272
						C441.225,214.668,445.062,224.436,445.062,235.429z"/>
				</defs>
				<clipPath id="SVGID_20_">
					<use xlink:href="#SVGID_19_"  overflow="visible"/>
				</clipPath>
				<circle clip-path="url(#SVGID_20_)" fill="#77C043" cx="368.295" cy="226.692" r="4.231"/>
			</g>
		</g>
	</g>
	<g>
		<g>
			<g>
				<defs>
					<path id="SVGID_21_" d="M445.062,235.429c0,3.806-3.171,8.613-3.351,12.369c-4.099,85.539-54.274,150.136-123.134,177.356
						c-19.188,7.585-40.852,11.71-62.344,11.71c-28.348,0-54.179-7.176-78.185-20C124.064,388.026,84.5,337.802,74.823,269.217
						c-0.855-6.064-3.347-13.325-3.724-19.551c-0.287-4.731,1.438-8.398,1.437-13.211c0-4.817,0.146-9.596,0.433-14.331
						C79.523,114.16,159.53,28.865,257.264,28.865c92.236,0,168.688,75.973,182.496,175.272
						C441.225,214.668,445.062,224.436,445.062,235.429z"/>
				</defs>
				<clipPath id="SVGID_22_">
					<use xlink:href="#SVGID_21_"  overflow="visible"/>
				</clipPath>
				<circle clip-path="url(#SVGID_22_)" fill="#77C043" cx="365.07" cy="252.951" r="4.231"/>
			</g>
		</g>
	</g>
	<g>
		<g>
			<g>
				<defs>
					<path id="SVGID_23_" d="M445.062,235.429c0,3.806-3.171,8.613-3.351,12.369c-4.099,85.539-54.274,150.136-123.134,177.356
						c-19.188,7.585-40.852,11.71-62.344,11.71c-28.348,0-54.179-7.176-78.185-20C124.064,388.026,84.5,337.802,74.823,269.217
						c-0.855-6.064-3.347-13.325-3.724-19.551c-0.287-4.731,1.438-8.398,1.437-13.211c0-4.817,0.146-9.596,0.433-14.331
						C79.523,114.16,159.53,28.865,257.264,28.865c92.236,0,168.688,75.973,182.496,175.272
						C441.225,214.668,445.062,224.436,445.062,235.429z"/>
				</defs>
				<clipPath id="SVGID_24_">
					<use xlink:href="#SVGID_23_"  overflow="visible"/>
				</clipPath>
				<circle clip-path="url(#SVGID_24_)" fill="#77C043" cx="356.102" cy="277.841" r="4.232"/>
			</g>
		</g>
	</g>
	<g>
		<g>
			<g>
				<defs>
					<path id="SVGID_25_" d="M445.062,235.429c0,3.806-3.171,8.613-3.351,12.369c-4.099,85.539-54.274,150.136-123.134,177.356
						c-19.188,7.585-40.852,11.71-62.344,11.71c-28.348,0-54.179-7.176-78.185-20C124.064,388.026,84.5,337.802,74.823,269.217
						c-0.855-6.064-3.347-13.325-3.724-19.551c-0.287-4.731,1.438-8.398,1.437-13.211c0-4.817,0.146-9.596,0.433-14.331
						C79.523,114.16,159.53,28.865,257.264,28.865c92.236,0,168.688,75.973,182.496,175.272
						C441.225,214.668,445.062,224.436,445.062,235.429z"/>
				</defs>
				<clipPath id="SVGID_26_">
					<use xlink:href="#SVGID_25_"  overflow="visible"/>
				</clipPath>
				<circle clip-path="url(#SVGID_26_)" fill="#77C043" cx="341.834" cy="300.12" r="4.231"/>
			</g>
		</g>
	</g>
	<g>
		<g>
			<g>
				<defs>
					<path id="SVGID_27_" d="M445.062,235.429c0,3.806-3.171,8.613-3.351,12.369c-4.099,85.539-54.274,150.136-123.134,177.356
						c-19.188,7.585-40.852,11.71-62.344,11.71c-28.348,0-54.179-7.176-78.185-20C124.064,388.026,84.5,337.802,74.823,269.217
						c-0.855-6.064-3.347-13.325-3.724-19.551c-0.287-4.731,1.438-8.398,1.437-13.211c0-4.817,0.146-9.596,0.433-14.331
						C79.523,114.16,159.53,28.865,257.264,28.865c92.236,0,168.688,75.973,182.496,175.272
						C441.225,214.668,445.062,224.436,445.062,235.429z"/>
				</defs>
				<clipPath id="SVGID_28_">
					<use xlink:href="#SVGID_27_"  overflow="visible"/>
				</clipPath>
				<circle clip-path="url(#SVGID_28_)" fill="#77C043" cx="322.979" cy="318.678" r="4.231"/>
			</g>
		</g>
	</g>
	<g>
		<g>
			<g>
				<defs>
					<path id="SVGID_29_" d="M445.062,235.429c0,3.806-3.171,8.613-3.351,12.369c-4.099,85.539-54.274,150.136-123.134,177.356
						c-19.188,7.585-40.852,11.71-62.344,11.71c-28.348,0-54.179-7.176-78.185-20C124.064,388.026,84.5,337.802,74.823,269.217
						c-0.855-6.064-3.347-13.325-3.724-19.551c-0.287-4.731,1.438-8.398,1.437-13.211c0-4.817,0.146-9.596,0.433-14.331
						C79.523,114.16,159.53,28.865,257.264,28.865c92.236,0,168.688,75.973,182.496,175.272
						C441.225,214.668,445.062,224.436,445.062,235.429z"/>
				</defs>
				<clipPath id="SVGID_30_">
					<use xlink:href="#SVGID_29_"  overflow="visible"/>
				</clipPath>
				<circle clip-path="url(#SVGID_30_)" fill="#77C043" cx="300.475" cy="332.59" r="4.231"/>
			</g>
		</g>
	</g>
	<g>
		<g>
			<g>
				<defs>
					<path id="SVGID_31_" d="M445.062,235.429c0,3.806-3.171,8.613-3.351,12.369c-4.099,85.539-54.274,150.136-123.134,177.356
						c-19.188,7.585-40.852,11.71-62.344,11.71c-28.348,0-54.179-7.176-78.185-20C124.064,388.026,84.5,337.802,74.823,269.217
						c-0.855-6.064-3.347-13.325-3.724-19.551c-0.287-4.731,1.438-8.398,1.437-13.211c0-4.817,0.146-9.596,0.433-14.331
						C79.523,114.16,159.53,28.865,257.264,28.865c92.236,0,168.688,75.973,182.496,175.272
						C441.225,214.668,445.062,224.436,445.062,235.429z"/>
				</defs>
				<clipPath id="SVGID_32_">
					<use xlink:href="#SVGID_31_"  overflow="visible"/>
				</clipPath>
				<circle clip-path="url(#SVGID_32_)" fill="#77C043" cx="275.443" cy="341.161" r="4.231"/>
			</g>
		</g>
	</g>
	<g>
		<g>
			<g>
				<defs>
					<path id="SVGID_33_" d="M445.062,235.429c0,3.806-3.171,8.613-3.351,12.369c-4.099,85.539-54.274,150.136-123.134,177.356
						c-19.188,7.585-40.852,11.71-62.344,11.71c-28.348,0-54.179-7.176-78.185-20C124.064,388.026,84.5,337.802,74.823,269.217
						c-0.855-6.064-3.347-13.325-3.724-19.551c-0.287-4.731,1.438-8.398,1.437-13.211c0-4.817,0.146-9.596,0.433-14.331
						C79.523,114.16,159.53,28.865,257.264,28.865c92.236,0,168.688,75.973,182.496,175.272
						C441.225,214.668,445.062,224.436,445.062,235.429z"/>
				</defs>
				<clipPath id="SVGID_34_">
					<use xlink:href="#SVGID_33_"  overflow="visible"/>
				</clipPath>
				<circle clip-path="url(#SVGID_34_)" fill="#77C043" cx="249.137" cy="343.966" r="4.23"/>
			</g>
		</g>
	</g>
	<g>
		<g>
			<g>
				<defs>
					<path id="SVGID_35_" d="M445.062,235.429c0,3.806-3.171,8.613-3.351,12.369c-4.099,85.539-54.274,150.136-123.134,177.356
						c-19.188,7.585-40.852,11.71-62.344,11.71c-28.348,0-54.179-7.176-78.185-20C124.064,388.026,84.5,337.802,74.823,269.217
						c-0.855-6.064-3.347-13.325-3.724-19.551c-0.287-4.731,1.438-8.398,1.437-13.211c0-4.817,0.146-9.596,0.433-14.331
						C79.523,114.16,159.53,28.865,257.264,28.865c92.236,0,168.688,75.973,182.496,175.272
						C441.225,214.668,445.062,224.436,445.062,235.429z"/>
				</defs>
				<clipPath id="SVGID_36_">
					<use xlink:href="#SVGID_35_"  overflow="visible"/>
				</clipPath>
				<circle clip-path="url(#SVGID_36_)" fill="#77C043" cx="222.863" cy="340.864" r="4.23"/>
			</g>
		</g>
	</g>
	<g>
		<g>
			<g>
				<defs>
					<path id="SVGID_37_" d="M445.062,235.429c0,3.806-3.171,8.613-3.351,12.369c-4.099,85.539-54.274,150.136-123.134,177.356
						c-19.188,7.585-40.852,11.71-62.344,11.71c-28.348,0-54.179-7.176-78.185-20C124.064,388.026,84.5,337.802,74.823,269.217
						c-0.855-6.064-3.347-13.325-3.724-19.551c-0.287-4.731,1.438-8.398,1.437-13.211c0-4.817,0.146-9.596,0.433-14.331
						C79.523,114.16,159.53,28.865,257.264,28.865c92.236,0,168.688,75.973,182.496,175.272
						C441.225,214.668,445.062,224.436,445.062,235.429z"/>
				</defs>
				<clipPath id="SVGID_38_">
					<use xlink:href="#SVGID_37_"  overflow="visible"/>
				</clipPath>
				<circle clip-path="url(#SVGID_38_)" fill="#77C043" cx="197.933" cy="332.009" r="4.23"/>
			</g>
		</g>
	</g>
	<g>
		<g>
			<g>
				<defs>
					<path id="SVGID_39_" d="M445.062,235.429c0,3.806-3.171,8.613-3.351,12.369c-4.099,85.539-54.274,150.136-123.134,177.356
						c-19.188,7.585-40.852,11.71-62.344,11.71c-28.348,0-54.179-7.176-78.185-20C124.064,388.026,84.5,337.802,74.823,269.217
						c-0.855-6.064-3.347-13.325-3.724-19.551c-0.287-4.731,1.438-8.398,1.437-13.211c0-4.817,0.146-9.596,0.433-14.331
						C79.523,114.16,159.53,28.865,257.264,28.865c92.236,0,168.688,75.973,182.496,175.272
						C441.225,214.668,445.062,224.436,445.062,235.429z"/>
				</defs>
				<clipPath id="SVGID_40_">
					<use xlink:href="#SVGID_39_"  overflow="visible"/>
				</clipPath>
				<circle clip-path="url(#SVGID_40_)" fill="#77C043" cx="175.588" cy="317.843" r="4.23"/>
			</g>
		</g>
	</g>
	<g>
		<g>
			<g>
				<defs>
					<path id="SVGID_41_" d="M445.062,235.429c0,3.806-3.171,8.613-3.351,12.369c-4.099,85.539-54.274,150.136-123.134,177.356
						c-19.188,7.585-40.852,11.71-62.344,11.71c-28.348,0-54.179-7.176-78.185-20C124.064,388.026,84.5,337.802,74.823,269.217
						c-0.855-6.064-3.347-13.325-3.724-19.551c-0.287-4.731,1.438-8.398,1.437-13.211c0-4.817,0.146-9.596,0.433-14.331
						C79.523,114.16,159.53,28.865,257.264,28.865c92.236,0,168.688,75.973,182.496,175.272
						C441.225,214.668,445.062,224.436,445.062,235.429z"/>
				</defs>
				<clipPath id="SVGID_42_">
					<use xlink:href="#SVGID_41_"  overflow="visible"/>
				</clipPath>
				<circle clip-path="url(#SVGID_42_)" fill="#77C043" cx="156.944" cy="299.073" r="4.231"/>
			</g>
		</g>
	</g>
	<g>
		<g>
			<g>
				<defs>
					<path id="SVGID_43_" d="M445.062,235.429c0,3.806-3.171,8.613-3.351,12.369c-4.099,85.539-54.274,150.136-123.134,177.356
						c-19.188,7.585-40.852,11.71-62.344,11.71c-28.348,0-54.179-7.176-78.185-20C124.064,388.026,84.5,337.802,74.823,269.217
						c-0.855-6.064-3.347-13.325-3.724-19.551c-0.287-4.731,1.438-8.398,1.437-13.211c0-4.817,0.146-9.596,0.433-14.331
						C79.523,114.16,159.53,28.865,257.264,28.865c92.236,0,168.688,75.973,182.496,175.272
						C441.225,214.668,445.062,224.436,445.062,235.429z"/>
				</defs>
				<clipPath id="SVGID_44_">
					<use xlink:href="#SVGID_43_"  overflow="visible"/>
				</clipPath>
				<path clip-path="url(#SVGID_44_)" fill="#77C043" d="M147.062,277.536c-0.499,2.282-2.753,3.729-5.037,3.231
					c-2.284-0.498-3.73-2.752-3.23-5.035c0.496-2.283,2.75-3.73,5.034-3.231C146.11,272.998,147.559,275.251,147.062,277.536z"/>
			</g>
		</g>
	</g>
	<g>
		<g>
			<g>
				<defs>
					<path id="SVGID_45_" d="M445.062,235.429c0,3.806-3.171,8.613-3.351,12.369c-4.099,85.539-54.274,150.136-123.134,177.356
						c-19.188,7.585-40.852,11.71-62.344,11.71c-28.348,0-54.179-7.176-78.185-20C124.064,388.026,84.5,337.802,74.823,269.217
						c-0.855-6.064-3.347-13.325-3.724-19.551c-0.287-4.731,1.438-8.398,1.437-13.211c0-4.817,0.146-9.596,0.433-14.331
						C79.523,114.16,159.53,28.865,257.264,28.865c92.236,0,168.688,75.973,182.496,175.272
						C441.225,214.668,445.062,224.436,445.062,235.429z"/>
				</defs>
				<clipPath id="SVGID_46_">
					<use xlink:href="#SVGID_45_"  overflow="visible"/>
				</clipPath>
				<path clip-path="url(#SVGID_46_)" fill="#77C043" d="M138.072,253.44c-0.993,2.115-3.512,3.027-5.629,2.035
					c-2.116-0.994-3.026-3.511-2.032-5.628c0.99-2.115,3.509-3.025,5.626-2.034C138.15,248.805,139.064,251.323,138.072,253.44z"/>
			</g>
		</g>
	</g>
	<g>
		<g>
			<g>
				<defs>
					<path id="SVGID_47_" d="M445.062,235.429c0,3.806-3.171,8.613-3.351,12.369c-4.099,85.539-54.274,150.136-123.134,177.356
						c-19.188,7.585-40.852,11.71-62.344,11.71c-28.348,0-54.179-7.176-78.185-20C124.064,388.026,84.5,337.802,74.823,269.217
						c-0.855-6.064-3.347-13.325-3.724-19.551c-0.287-4.731,1.438-8.398,1.437-13.211c0-4.817,0.146-9.596,0.433-14.331
						C79.523,114.16,159.53,28.865,257.264,28.865c92.236,0,168.688,75.973,182.496,175.272
						C441.225,214.668,445.062,224.436,445.062,235.429z"/>
				</defs>
				<clipPath id="SVGID_48_">
					<use xlink:href="#SVGID_47_"  overflow="visible"/>
				</clipPath>
				<circle clip-path="url(#SVGID_48_)" fill="#77C043" cx="131.315" cy="225.351" r="4.231"/>
			</g>
		</g>
	</g>
	<g>
		<g>
			<g>
				<defs>
					<path id="SVGID_49_" d="M445.062,235.429c0,3.806-3.171,8.613-3.351,12.369c-4.099,85.539-54.274,150.136-123.134,177.356
						c-19.188,7.585-40.852,11.71-62.344,11.71c-28.348,0-54.179-7.176-78.185-20C124.064,388.026,84.5,337.802,74.823,269.217
						c-0.855-6.064-3.347-13.325-3.724-19.551c-0.287-4.731,1.438-8.398,1.437-13.211c0-4.817,0.146-9.596,0.433-14.331
						C79.523,114.16,159.53,28.865,257.264,28.865c92.236,0,168.688,75.973,182.496,175.272
						C441.225,214.668,445.062,224.436,445.062,235.429z"/>
				</defs>
				<clipPath id="SVGID_50_">
					<use xlink:href="#SVGID_49_"  overflow="visible"/>
				</clipPath>
				<path clip-path="url(#SVGID_50_)" fill="#77C043" d="M136.973,202.34c-1.812,1.476-4.477,1.208-5.956-0.603
					c-1.478-1.811-1.209-4.476,0.602-5.952c1.81-1.48,4.474-1.211,5.953,0.6C139.049,198.194,138.784,200.859,136.973,202.34z"/>
			</g>
		</g>
	</g>
	<g>
		<g>
			<g>
				<defs>
					<path id="SVGID_51_" d="M445.062,235.429c0,3.806-3.171,8.613-3.351,12.369c-4.099,85.539-54.274,150.136-123.134,177.356
						c-19.188,7.585-40.852,11.71-62.344,11.71c-28.348,0-54.179-7.176-78.185-20C124.064,388.026,84.5,337.802,74.823,269.217
						c-0.855-6.064-3.347-13.325-3.724-19.551c-0.287-4.731,1.438-8.398,1.437-13.211c0-4.817,0.146-9.596,0.433-14.331
						C79.523,114.16,159.53,28.865,257.264,28.865c92.236,0,168.688,75.973,182.496,175.272
						C441.225,214.668,445.062,224.436,445.062,235.429z"/>
				</defs>
				<clipPath id="SVGID_52_">
					<use xlink:href="#SVGID_51_"  overflow="visible"/>
				</clipPath>
				<path clip-path="url(#SVGID_52_)" fill="#77C043" d="M144.918,177.881c-2.094,1.037-4.633,0.184-5.673-1.909
					c-1.039-2.094-0.186-4.632,1.908-5.67c2.093-1.042,4.631-0.188,5.67,1.906C147.863,174.299,147.013,176.839,144.918,177.881z"/>
			</g>
		</g>
	</g>
	<g>
		<g>
			<g>
				<defs>
					<path id="SVGID_53_" d="M445.062,235.429c0,3.806-3.171,8.613-3.351,12.369c-4.099,85.539-54.274,150.136-123.134,177.356
						c-19.188,7.585-40.852,11.71-62.344,11.71c-28.348,0-54.179-7.176-78.185-20C124.064,388.026,84.5,337.802,74.823,269.217
						c-0.855-6.064-3.347-13.325-3.724-19.551c-0.287-4.731,1.438-8.398,1.437-13.211c0-4.817,0.146-9.596,0.433-14.331
						C79.523,114.16,159.53,28.865,257.264,28.865c92.236,0,168.688,75.973,182.496,175.272
						C441.225,214.668,445.062,224.436,445.062,235.429z"/>
				</defs>
				<clipPath id="SVGID_54_">
					<use xlink:href="#SVGID_53_"  overflow="visible"/>
				</clipPath>
				<path clip-path="url(#SVGID_54_)" fill="#77C043" d="M158.093,155.795c-2.271,0.546-4.559-0.849-5.107-3.12
					c-0.549-2.272,0.845-4.557,3.118-5.105c2.271-0.551,4.557,0.845,5.105,3.117C161.759,152.956,160.367,155.243,158.093,155.795z"
					/>
			</g>
		</g>
	</g>
	<g>
		<g>
			<g>
				<defs>
					<path id="SVGID_55_" d="M445.062,235.429c0,3.806-3.171,8.613-3.351,12.369c-4.099,85.539-54.274,150.136-123.134,177.356
						c-19.188,7.585-40.852,11.71-62.344,11.71c-28.348,0-54.179-7.176-78.185-20C124.064,388.026,84.5,337.802,74.823,269.217
						c-0.855-6.064-3.347-13.325-3.724-19.551c-0.287-4.731,1.438-8.398,1.437-13.211c0-4.817,0.146-9.596,0.433-14.331
						C79.523,114.16,159.53,28.865,257.264,28.865c92.236,0,168.688,75.973,182.496,175.272
						C441.225,214.668,445.062,224.436,445.062,235.429z"/>
				</defs>
				<clipPath id="SVGID_56_">
					<use xlink:href="#SVGID_55_"  overflow="visible"/>
				</clipPath>
				<circle clip-path="url(#SVGID_56_)" fill="#DC2726" cx="175.782" cy="132.951" r="4.231"/>
			</g>
		</g>
	</g>
	<g>
		<g>
			<g>
				<defs>
					<path id="SVGID_57_" d="M445.062,235.429c0,3.806-3.171,8.613-3.351,12.369c-4.099,85.539-54.274,150.136-123.134,177.356
						c-19.188,7.585-40.852,11.71-62.344,11.71c-28.348,0-54.179-7.176-78.185-20C124.064,388.026,84.5,337.802,74.823,269.217
						c-0.855-6.064-3.347-13.325-3.724-19.551c-0.287-4.731,1.438-8.398,1.437-13.211c0-4.817,0.146-9.596,0.433-14.331
						C79.523,114.16,159.53,28.865,257.264,28.865c92.236,0,168.688,75.973,182.496,175.272
						C441.225,214.668,445.062,224.436,445.062,235.429z"/>
				</defs>
				<clipPath id="SVGID_58_">
					<use xlink:href="#SVGID_57_"  overflow="visible"/>
				</clipPath>
				<path clip-path="url(#SVGID_58_)" fill="#77C043" d="M197.273,122.971c-2.284-0.49-3.742-2.738-3.254-5.023
					c0.487-2.286,2.733-3.742,5.019-3.253c2.287,0.487,3.744,2.734,3.256,5.02C201.808,121.998,199.562,123.458,197.273,122.971z"/>
			</g>
		</g>
	</g>
	<g>
		<g>
			<g>
				<defs>
					<path id="SVGID_59_" d="M445.062,235.429c0,3.806-3.171,8.613-3.351,12.369c-4.099,85.539-54.274,150.136-123.134,177.356
						c-19.188,7.585-40.852,11.71-62.344,11.71c-28.348,0-54.179-7.176-78.185-20C124.064,388.026,84.5,337.802,74.823,269.217
						c-0.855-6.064-3.347-13.325-3.724-19.551c-0.287-4.731,1.438-8.398,1.437-13.211c0-4.817,0.146-9.596,0.433-14.331
						C79.523,114.16,159.53,28.865,257.264,28.865c92.236,0,168.688,75.973,182.496,175.272
						C441.225,214.668,445.062,224.436,445.062,235.429z"/>
				</defs>
				<clipPath id="SVGID_60_">
					<use xlink:href="#SVGID_59_"  overflow="visible"/>
				</clipPath>
				<path clip-path="url(#SVGID_60_)" fill="#77C043" d="M221.327,113.87c-2.119-0.984-3.042-3.501-2.059-5.62
					c0.982-2.12,3.496-3.042,5.616-2.059c2.122,0.981,3.043,3.497,2.06,5.616C225.964,113.927,223.451,114.852,221.327,113.87z"/>
			</g>
		</g>
	</g>
	<g>
		<g>
			<g>
				<defs>
					<path id="SVGID_61_" d="M445.062,235.429c0,3.806-3.171,8.613-3.351,12.369c-4.099,85.539-54.274,150.136-123.134,177.356
						c-19.188,7.585-40.852,11.71-62.344,11.71c-28.348,0-54.179-7.176-78.185-20C124.064,388.026,84.5,337.802,74.823,269.217
						c-0.855-6.064-3.347-13.325-3.724-19.551c-0.287-4.731,1.438-8.398,1.437-13.211c0-4.817,0.146-9.596,0.433-14.331
						C79.523,114.16,159.53,28.865,257.264,28.865c92.236,0,168.688,75.973,182.496,175.272
						C441.225,214.668,445.062,224.436,445.062,235.429z"/>
				</defs>
				<clipPath id="SVGID_62_">
					<use xlink:href="#SVGID_61_"  overflow="visible"/>
				</clipPath>
				<path clip-path="url(#SVGID_62_)" fill="#DC2726" d="M246.8,110.333c-1.848-1.43-2.19-4.089-0.761-5.937
					c1.428-1.85,4.083-2.191,5.932-0.761c1.852,1.428,2.191,4.085,0.763,5.933C251.308,111.417,248.653,111.762,246.8,110.333z"/>
			</g>
		</g>
	</g>
	<g>
		<g>
			<g>
				<defs>
					<path id="SVGID_63_" d="M445.062,235.429c0,3.806-3.171,8.613-3.351,12.369c-4.099,85.539-54.274,150.136-123.134,177.356
						c-19.188,7.585-40.852,11.71-62.344,11.71c-28.348,0-54.179-7.176-78.185-20C124.064,388.026,84.5,337.802,74.823,269.217
						c-0.855-6.064-3.347-13.325-3.724-19.551c-0.287-4.731,1.438-8.398,1.437-13.211c0-4.817,0.146-9.596,0.433-14.331
						C79.523,114.16,159.53,28.865,257.264,28.865c92.236,0,168.688,75.973,182.496,175.272
						C441.225,214.668,445.062,224.436,445.062,235.429z"/>
				</defs>
				<clipPath id="SVGID_64_">
					<use xlink:href="#SVGID_63_"  overflow="visible"/>
				</clipPath>
				<path clip-path="url(#SVGID_64_)" fill="#77C043" d="M272.423,112.535c-1.483-1.805-1.229-4.473,0.575-5.958
					c1.803-1.487,4.466-1.23,5.952,0.574c1.489,1.803,1.231,4.469-0.571,5.954C276.578,114.593,273.912,114.34,272.423,112.535z"/>
			</g>
		</g>
	</g>
	<g>
		<g>
			<g>
				<defs>
					<path id="SVGID_65_" d="M445.062,235.429c0,3.806-3.171,8.613-3.351,12.369c-4.099,85.539-54.274,150.136-123.134,177.356
						c-19.188,7.585-40.852,11.71-62.344,11.71c-28.348,0-54.179-7.176-78.185-20C124.064,388.026,84.5,337.802,74.823,269.217
						c-0.855-6.064-3.347-13.325-3.724-19.551c-0.287-4.731,1.438-8.398,1.437-13.211c0-4.817,0.146-9.596,0.433-14.331
						C79.523,114.16,159.53,28.865,257.264,28.865c92.236,0,168.688,75.973,182.496,175.272
						C441.225,214.668,445.062,224.436,445.062,235.429z"/>
				</defs>
				<clipPath id="SVGID_66_">
					<use xlink:href="#SVGID_65_"  overflow="visible"/>
				</clipPath>
				<path clip-path="url(#SVGID_66_)" fill="#77C043" d="M296.919,120.368c-1.048-2.09-0.206-4.633,1.883-5.682
					c2.087-1.05,4.628-0.208,5.677,1.881c1.055,2.088,0.209,4.631-1.879,5.678C300.514,123.297,297.969,122.458,296.919,120.368z"/>
			</g>
		</g>
	</g>
	<g>
		<g>
			<g>
				<defs>
					<path id="SVGID_67_" d="M445.062,235.429c0,3.806-3.171,8.613-3.351,12.369c-4.099,85.539-54.274,150.136-123.134,177.356
						c-19.188,7.585-40.852,11.71-62.344,11.71c-28.348,0-54.179-7.176-78.185-20C124.064,388.026,84.5,337.802,74.823,269.217
						c-0.855-6.064-3.347-13.325-3.724-19.551c-0.287-4.731,1.438-8.398,1.437-13.211c0-4.817,0.146-9.596,0.433-14.331
						C79.523,114.16,159.53,28.865,257.264,28.865c92.236,0,168.688,75.973,182.496,175.272
						C441.225,214.668,445.062,224.436,445.062,235.429z"/>
				</defs>
				<clipPath id="SVGID_68_">
					<use xlink:href="#SVGID_67_"  overflow="visible"/>
				</clipPath>
				<path clip-path="url(#SVGID_68_)" fill="#DC2726" d="M319.064,133.44c-0.561-2.269,0.828-4.563,3.096-5.122
					c2.27-0.56,4.561,0.825,5.119,3.094c0.562,2.27-0.824,4.562-3.094,5.12C321.919,137.094,319.626,135.712,319.064,133.44z"/>
			</g>
		</g>
	</g>
	<g>
		<g>
			<defs>
				<path id="SVGID_69_" d="M445.062,235.429c0,3.806-3.171,8.613-3.351,12.369c-4.099,85.539-54.274,150.136-123.134,177.356
					c-19.188,7.585-40.852,11.71-62.344,11.71c-28.348,0-54.179-7.176-78.185-20C124.064,388.026,84.5,337.802,74.823,269.217
					c-0.855-6.064-3.347-13.325-3.724-19.551c-0.287-4.731,1.438-8.398,1.437-13.211c0-4.817,0.146-9.596,0.433-14.331
					C79.523,114.16,159.53,28.865,257.264,28.865c92.236,0,168.688,75.973,182.496,175.272
					C441.225,214.668,445.062,224.436,445.062,235.429z"/>
			</defs>
			<clipPath id="SVGID_70_">
				<use xlink:href="#SVGID_69_"  overflow="visible"/>
			</clipPath>
			<circle clip-path="url(#SVGID_70_)" fill="#C3D82E" cx="318.352" cy="294.019" r="57.576"/>
		</g>
	</g>
	<path fill="none" d="M445.062,235.429c0,3.806-3.171,8.613-3.351,12.369c-4.099,85.539-54.274,150.136-123.134,177.356
		c-19.188,7.585-40.852,11.71-62.344,11.71c-28.348,0-54.179-7.176-78.185-20C124.064,388.026,84.5,337.802,74.823,269.217
		c-0.855-6.064-3.347-13.325-3.724-19.551c-0.287-4.731,1.438-8.398,1.437-13.211c0-4.817,0.146-9.596,0.433-14.331
		C79.523,114.16,159.53,28.865,257.264,28.865c92.236,0,168.688,75.973,182.496,175.272
		C441.225,214.668,445.062,224.436,445.062,235.429z"/>
	<g>
		<defs>
			<path id="SVGID_71_" d="M359.337,296.088c1.422-3.53,6.157-6.806,7.728-10.223c35.749-77.819,106.421-119.003,180.463-118.536
				c20.633,0.13,42.268,4.394,62.207,12.421c26.297,10.588,47.579,26.891,65.059,47.752c39.309,46.914,57.252,108.28,40.614,175.517
				c-1.472,5.945-1.872,13.611-3.847,19.528c-1.501,4.496-4.472,7.254-6.268,11.718c-1.799,4.469-3.72,8.847-5.753,13.133
				c-46.402,97.705-152.476,146.948-243.14,110.446c-85.562-34.448-128.106-133.477-103.831-230.749
				C355.143,316.779,355.232,306.285,359.337,296.088z"/>
		</defs>
		<clipPath id="SVGID_72_">
			<use xlink:href="#SVGID_71_"  overflow="visible"/>
		</clipPath>
		
			<ellipse transform="matrix(-0.8287 0.5597 -0.5597 -0.8287 899.6516 272.8098)" clip-path="url(#SVGID_72_)" fill="#134420" cx="408.08" cy="274.071" rx="5.82" ry="13.189"/>
	</g>
	<path fill="#11933E" d="M404.473,271.825c2.564,4.87,8.59,7.021,11.738,4.989l67.431-43.478c0,0,12.231-1.309,12.086-7.436
		c-0.144-6.127-13.586-12.962-13.586-12.962s-52.646,42.085-56.24,42.169c-3.597,0.085-19.614,12.233-19.614,12.233"/>
</g>
<g id="Layer_2">
	<g>
		<defs>
			<path id="SVGID_73_" d="M445.062,235.429c0,3.806-3.171,8.613-3.351,12.369c-4.099,85.539-54.274,150.136-123.134,177.356
				c-19.188,7.585-40.852,11.71-62.344,11.71c-28.348,0-54.179-7.176-78.185-20C124.064,388.026,84.5,337.802,74.823,269.217
				c-0.855-6.064-3.347-13.325-3.724-19.551c-0.287-4.731,1.438-8.398,1.437-13.211c0-4.817,0.146-9.596,0.433-14.331
				C79.523,114.16,159.53,28.865,257.264,28.865c92.236,0,168.688,75.973,182.496,175.272
				C441.225,214.668,445.062,224.436,445.062,235.429z"/>
		</defs>
		<clipPath id="SVGID_74_">
			<use xlink:href="#SVGID_73_"  overflow="visible"/>
		</clipPath>
		<path clip-path="url(#SVGID_74_)" fill="#134420" d="M95.668,250.82c3.155,0.611,4.589,6.903,3.205,14.057
			c-1.385,7.15-5.066,12.454-8.221,11.844c-3.156-0.611-4.591-6.904-3.205-14.056C88.832,255.51,92.512,250.209,95.668,250.82z"/>
	</g>
	<g>
		<defs>
			<path id="SVGID_75_" d="M445.062,235.429c0,3.806-3.171,8.613-3.351,12.369c-4.099,85.539-54.274,150.136-123.134,177.356
				c-19.188,7.585-40.852,11.71-62.344,11.71c-28.348,0-54.179-7.176-78.185-20C124.064,388.026,84.5,337.802,74.823,269.217
				c-0.855-6.064-3.347-13.325-3.724-19.551c-0.287-4.731,1.438-8.398,1.437-13.211c0-4.817,0.146-9.596,0.433-14.331
				C79.523,114.16,159.53,28.865,257.264,28.865c92.236,0,168.688,75.973,182.496,175.272
				C441.225,214.668,445.062,224.436,445.062,235.429z"/>
		</defs>
		<clipPath id="SVGID_76_">
			<use xlink:href="#SVGID_75_"  overflow="visible"/>
		</clipPath>
		<path clip-path="url(#SVGID_76_)" fill="#11933E" d="M400.742,270.102"/>
	</g>
	<g>
		<defs>
			<path id="SVGID_77_" d="M445.062,235.429c0,3.806-3.171,8.613-3.351,12.369c-4.099,85.539-54.274,150.136-123.134,177.356
				c-19.188,7.585-40.852,11.71-62.344,11.71c-28.348,0-54.179-7.176-78.185-20C124.064,388.026,84.5,337.802,74.823,269.217
				c-0.855-6.064-3.347-13.325-3.724-19.551c-0.287-4.731,1.438-8.398,1.437-13.211c0-4.817,0.146-9.596,0.433-14.331
				C79.523,114.16,159.53,28.865,257.264,28.865c92.236,0,168.688,75.973,182.496,175.272
				C441.225,214.668,445.062,224.436,445.062,235.429z"/>
		</defs>
		<clipPath id="SVGID_78_">
			<use xlink:href="#SVGID_77_"  overflow="visible"/>
		</clipPath>
	</g>
	<g>
		<defs>
			<path id="SVGID_79_" d="M445.062,235.429c0,3.806-3.171,8.613-3.351,12.369c-4.099,85.539-54.274,150.136-123.134,177.356
				c-19.188,7.585-40.852,11.71-62.344,11.71c-28.348,0-54.179-7.176-78.185-20C124.064,388.026,84.5,337.802,74.823,269.217
				c-0.855-6.064-3.347-13.325-3.724-19.551c-0.287-4.731,1.438-8.398,1.437-13.211c0-4.817,0.146-9.596,0.433-14.331
				C79.523,114.16,159.53,28.865,257.264,28.865c92.236,0,168.688,75.973,182.496,175.272
				C441.225,214.668,445.062,224.436,445.062,235.429z"/>
		</defs>
		<clipPath id="SVGID_80_">
			<use xlink:href="#SVGID_79_"  overflow="visible"/>
		</clipPath>
		<path clip-path="url(#SVGID_80_)" fill="#D32127" d="M147.506,304.262c-0.101-1.085-0.202-2.172-0.303-3.259
			c0.097-0.36,0.194-0.724,0.292-1.084c0.238-0.659,0.477-1.317,0.715-1.979c0.661-6.69,2.269-7.729,8.737-8.35
			c7.458-0.716,12.459,4.014,18.275,7.014c5.47,2.82,9.804,6.805,12.259,12.585c-5.58,4.389-11.085,8.995-18.515,9.773
			c-5.088,0.533-9.86-0.305-14.145-3.571C151.004,312.484,149.367,308.348,147.506,304.262z"/>
	</g>
	<g>
		<defs>
			<path id="SVGID_81_" d="M445.062,235.429c0,3.806-3.171,8.613-3.351,12.369c-4.099,85.539-54.274,150.136-123.134,177.356
				c-19.188,7.585-40.852,11.71-62.344,11.71c-28.348,0-54.179-7.176-78.185-20C124.064,388.026,84.5,337.802,74.823,269.217
				c-0.855-6.064-3.347-13.325-3.724-19.551c-0.287-4.731,1.438-8.398,1.437-13.211c0-4.817,0.146-9.596,0.433-14.331
				C79.523,114.16,159.53,28.865,257.264,28.865c92.236,0,168.688,75.973,182.496,175.272
				C441.225,214.668,445.062,224.436,445.062,235.429z"/>
		</defs>
		<clipPath id="SVGID_82_">
			<use xlink:href="#SVGID_81_"  overflow="visible"/>
		</clipPath>
		<path clip-path="url(#SVGID_82_)" fill="#961B1E" d="M350.878,334.933l-0.144-0.026c-2.469-3.75-1.467-7.563-0.203-11.382
			c12.115,0.28,22.009-4.149,28.299-14.662c2.847-4.759,6.072-9.995,3.295-16.153c3.264-0.176,6.546-0.605,9.777-0.367
			c0.916,0.067,2.24,2,2.443,3.229c3.613,21.888-17.845,40.839-34.289,39.391C357.02,334.69,353.938,334.928,350.878,334.933z"/>
	</g>
	<g>
		<defs>
			<path id="SVGID_83_" d="M445.062,235.429c0,3.806-3.171,8.613-3.351,12.369c-4.099,85.539-54.274,150.136-123.134,177.356
				c-19.188,7.585-40.852,11.71-62.344,11.71c-28.348,0-54.179-7.176-78.185-20C124.064,388.026,84.5,337.802,74.823,269.217
				c-0.855-6.064-3.347-13.325-3.724-19.551c-0.287-4.731,1.438-8.398,1.437-13.211c0-4.817,0.146-9.596,0.433-14.331
				C79.523,114.16,159.53,28.865,257.264,28.865c92.236,0,168.688,75.973,182.496,175.272
				C441.225,214.668,445.062,224.436,445.062,235.429z"/>
		</defs>
		<clipPath id="SVGID_84_">
			<use xlink:href="#SVGID_83_"  overflow="visible"/>
		</clipPath>
		<path clip-path="url(#SVGID_84_)" fill="#1C2C19" d="M350.878,334.933c3.062-0.005,6.142-0.239,9.179,0.026
			c16.447,1.448,37.905-17.503,34.291-39.389c-0.205-1.231-1.527-3.164-2.445-3.231c-3.229-0.239-6.514,0.191-9.774,0.367
			c-4.403,2.097-9,3.878-13.157,6.385c-3.271,1.976-6.23,4.628-8.92,7.38c-2.441,2.501-4.348,5.533-6.462,8.354
			c-1.928,2.573-3.942,5.129-3.058,8.698c-1.264,3.815-2.266,7.632,0.203,11.382c-0.758,0.644-1.512,1.828-2.276,1.837
			c-3.711,0.044-9.08-9.896-7.128-13.006c4.604-7.351,9.104-14.771,13.954-21.951c1.306-1.936,3.503-3.651,5.673-4.544
			c6.109-2.515,12.424-4.546,18.652-6.771c0.476-0.171,1.035-0.263,1.392-0.576c6.347-5.664,12.706-2.709,19.005,0.021
			c1.807,0.783,2.386,2.274,0.188,3.271c-3.435,1.543-3.001,3.979-2.557,7.028c1.11,7.595,0.38,14.979-4.095,21.602
			c-0.539,0.798-0.676,1.865-0.999,2.812c-1.792,1.953-3.358,4.188-5.414,5.811c-8.039,6.363-17.039,9.922-27.521,8.556
			c-0.371-0.261-0.744-0.521-1.116-0.78C355.951,337.114,353.415,336.023,350.878,334.933z"/>
	</g>
	<g>
		<defs>
			<path id="SVGID_85_" d="M445.062,235.429c0,3.806-3.171,8.613-3.351,12.369c-4.099,85.539-54.274,150.136-123.134,177.356
				c-19.188,7.585-40.852,11.71-62.344,11.71c-28.348,0-54.179-7.176-78.185-20C124.064,388.026,84.5,337.802,74.823,269.217
				c-0.855-6.064-3.347-13.325-3.724-19.551c-0.287-4.731,1.438-8.398,1.437-13.211c0-4.817,0.146-9.596,0.433-14.331
				C79.523,114.16,159.53,28.865,257.264,28.865c92.236,0,168.688,75.973,182.496,175.272
				C441.225,214.668,445.062,224.436,445.062,235.429z"/>
		</defs>
		<clipPath id="SVGID_86_">
			<use xlink:href="#SVGID_85_"  overflow="visible"/>
		</clipPath>
		<path clip-path="url(#SVGID_86_)" fill="#961B1E" d="M147.506,304.262c1.861,4.086,3.499,8.226,7.314,11.13
			c4.285,3.27,9.057,4.104,14.145,3.571c7.429-0.778,12.935-5.388,18.515-9.771c4.997,5.021,7.742,10.896,6.848,18.144
			c-1.02,0.566-2.048,1.118-3.058,1.701c-5.015,2.905-10.158,5.258-16.208,4.745c-2.512-0.213-5.06-0.011-7.591,0.007
			C156.424,330.291,147.106,315.827,147.506,304.262z"/>
	</g>
	<g>
		<g>
			<defs>
				<path id="SVGID_87_" d="M445.062,235.429c0,3.806-3.171,8.613-3.351,12.369c-4.099,85.539-54.274,150.136-123.134,177.356
					c-19.188,7.585-40.852,11.71-62.344,11.71c-28.348,0-54.179-7.176-78.185-20C124.064,388.026,84.5,337.802,74.823,269.217
					c-0.855-6.064-3.347-13.325-3.724-19.551c-0.287-4.731,1.438-8.398,1.437-13.211c0-4.817,0.146-9.596,0.433-14.331
					C79.523,114.16,159.53,28.865,257.264,28.865c92.236,0,168.688,75.973,182.496,175.272
					C441.225,214.668,445.062,224.436,445.062,235.429z"/>
			</defs>
			<clipPath id="SVGID_88_">
				<use xlink:href="#SVGID_87_"  overflow="visible"/>
			</clipPath>
			<path clip-path="url(#SVGID_88_)" fill="#D32127" d="M350.531,323.521c-0.891-3.566,1.127-6.125,3.055-8.695
				c2.114-2.819,4.02-5.854,6.462-8.354c2.688-2.753,5.646-5.402,8.92-7.38c4.157-2.507,8.753-4.289,13.157-6.385
				c2.777,6.157-0.447,11.396-3.295,16.153C372.54,319.372,362.646,323.805,350.531,323.521z"/>
		</g>
		<g>
			<g>
				<defs>
					<path id="SVGID_89_" d="M445.062,235.429c0,3.806-3.171,8.613-3.351,12.369c-4.099,85.539-54.274,150.136-123.134,177.356
						c-19.188,7.585-40.852,11.71-62.344,11.71c-28.348,0-54.179-7.176-78.185-20C124.064,388.026,84.5,337.802,74.823,269.217
						c-0.855-6.064-3.347-13.325-3.724-19.551c-0.287-4.731,1.438-8.398,1.437-13.211c0-4.817,0.146-9.596,0.433-14.331
						C79.523,114.16,159.53,28.865,257.264,28.865c92.236,0,168.688,75.973,182.496,175.272
						C441.225,214.668,445.062,224.436,445.062,235.429z"/>
				</defs>
				<clipPath id="SVGID_90_">
					<use xlink:href="#SVGID_89_"  overflow="visible"/>
				</clipPath>
				<path clip-path="url(#SVGID_90_)" fill="#1C2C19" d="M285.759,469.473c-0.795-4.751,0.558-8.519,4.499-11.577
					c4.957-3.848,4.338-10.057,5.592-15.347c1.742-7.363,1.478-7.259-6.408-6.271c-5.348,0.672-10.789,0.568-16.146,1.168
					c-10.781,1.201-21.451-0.271-32.145-1.091c-5.338-0.408-10.646-1.22-15.967-1.847c-6.487-1.73-13.037-3.271-19.434-5.294
					c-2.69-0.851-5.06-2.716-7.576-4.121c6.452,1.411,12.858,3.101,19.366,4.168c9.228,1.521,18.501,2.915,27.81,3.74
					c8.472,0.751,17.083,1.469,25.515,0.783c16.081-1.312,32.185-3.046,47.661-8.134c3.226-0.516,6.447-3.076,9.676-3.59
					c-4.51,5.607-11.21,8.632-17.562,10.246c-2.404,0.613-4.971,0.578-7.393,1.145c-3.042,0.707-4.686,2.251-5.326,5.9
					c-1.59,9.039-2.509,18.433-8.01,26.291C288.855,467.153,287.159,468.209,285.759,469.473z"/>
			</g>
			<g>
				<g>
					<defs>
						<path id="SVGID_91_" d="M445.062,235.429c0,3.806-3.171,8.613-3.351,12.369c-4.099,85.539-54.274,150.136-123.134,177.356
							c-19.188,7.585-40.852,11.71-62.344,11.71c-28.348,0-54.179-7.176-78.185-20C124.064,388.026,84.5,337.802,74.823,269.217
							c-0.855-6.064-3.347-13.325-3.724-19.551c-0.287-4.731,1.438-8.398,1.437-13.211c0-4.817,0.146-9.596,0.433-14.331
							C79.523,114.16,159.53,28.865,257.264,28.865c92.236,0,168.688,75.973,182.496,175.272
							C441.225,214.668,445.062,224.436,445.062,235.429z"/>
					</defs>
					<clipPath id="SVGID_92_">
						<use xlink:href="#SVGID_91_"  overflow="visible"/>
					</clipPath>
					<path clip-path="url(#SVGID_92_)" fill="none" stroke="#1C2C19" stroke-width="2.9072" stroke-miterlimit="10" d="
						M149.723,292.268c0,0,16.069-3.336,25.498,4.336c9.43,7.674,10.426,11.478,18.468,22.511"/>
				</g>
				<g id="Layer_9">
					<g>
						<defs>
							<path id="SVGID_93_" d="M445.062,235.429c0,3.806-3.171,8.613-3.351,12.369c-4.099,85.539-54.274,150.136-123.134,177.356
								c-19.188,7.585-40.852,11.71-62.344,11.71c-28.348,0-54.179-7.176-78.185-20C124.064,388.026,84.5,337.802,74.823,269.217
								c-0.855-6.064-3.347-13.325-3.724-19.551c-0.287-4.731,1.438-8.398,1.437-13.211c0-4.817,0.146-9.596,0.433-14.331
								C79.523,114.16,159.53,28.865,257.264,28.865c92.236,0,168.688,75.973,182.496,175.272
								C441.225,214.668,445.062,224.436,445.062,235.429z"/>
						</defs>
						<clipPath id="SVGID_94_">
							<use xlink:href="#SVGID_93_"  overflow="visible"/>
						</clipPath>
					</g>
				</g>
			</g>
		</g>
	</g>
	<path fill="#0C8040" d="M93.767,268.217l8.213-7.064c0,0-15.373-12.953-18.958-13.227c-3.585-0.27-53.994-45.014-53.994-45.014
		s-13.777,6.133-14.237,12.245c-0.46,6.11,11.685,8.049,11.685,8.049l65.099,46.896"/>
</g>
</svg>
