<?xml version="1.0" encoding="utf-8"?>
<!-- Generator: Adobe Illustrator 16.0.0, SVG Export Plug-In . SVG Version: 6.00 Build 0)  -->
<!DOCTYPE svg PUBLIC "-//W3C//DTD SVG 1.1//EN" "http://www.w3.org/Graphics/SVG/1.1/DTD/svg11.dtd">
<svg version="1.1" id="Layer_1" xmlns="http://www.w3.org/2000/svg" xmlns:xlink="http://www.w3.org/1999/xlink" x="0px" y="0px"
	 width="512px" height="512px" viewBox="0 0 512 512" enable-background="new 0 0 512 512" xml:space="preserve">
<g id="Piston">
	<path fill="#B0B0B0" d="M477.28,230.893c0.021-1.239,0.057-2.474,0.057-3.717c0-118.321-94.383-214.237-210.805-214.237
		c-116.425,0-210.804,95.917-210.804,214.237c0,4.313,0.138,8.594,0.386,12.844c-9.548,1.823-16.867,12.037-16.867,24.399
		c0,13.653,8.915,24.72,19.912,24.72c1.824,0,3.582-0.328,5.26-0.896c10.81,36.996,31.189,69.809,58.219,95.479
		c-0.182,1.152-0.304,2.326-0.304,3.53v52.461c0,12.438,10.084,22.522,22.522,22.522h3.02c12.44,0,22.522-10.085,22.522-22.522
		V417.89c6.667,3.479,13.544,6.599,20.6,9.351v50.104c0,12.438,10.082,22.521,22.522,22.521h3.02
		c12.438,0,22.522-10.084,22.522-22.521V439.61c8.991,1.188,18.159,1.81,27.469,1.81v35.927c0,12.438,10.082,22.521,22.521,22.521
		h3.02c12.439,0,22.521-10.084,22.521-22.521V435.82c8.933-2.115,17.642-4.818,26.097-8.05v27.053
		c0,12.438,10.086,22.521,22.521,22.521h3.021c12.438,0,22.521-10.085,22.521-22.521v-52.462c0-0.197-0.022-0.396-0.028-0.589
		c41.111-29.774,71.239-74.184,83.077-125.729c8.688-2.656,15.146-12.369,15.146-23.977
		C486.948,243.066,483.067,235.218,477.28,230.893z"/>
	<ellipse fill="#8E8E8E" cx="390.32" cy="341.678" rx="18.896" ry="19.437"/>
	<path fill="#8E8E8E" d="M443.057,219.207c0,16.302-12.85,29.521-28.705,29.521c-15.85,0-28.699-13.219-28.699-29.521
		c0-16.302,12.854-29.521,28.699-29.521C430.207,189.686,443.057,202.905,443.057,219.207z"/>
	<path fill="#8E8E8E" d="M429.694,91.526c-12.228-15.166-26.452-28.593-42.276-39.87c-4.299,5.162-6.9,11.862-6.9,19.191
		c0,16.302,12.853,29.521,28.697,29.521C417.237,100.368,424.487,96.98,429.694,91.526z"/>
	<path fill="#8E8E8E" d="M235.136,60.216c0,16.302-12.849,29.521-28.706,29.521c-15.849,0-28.698-13.219-28.698-29.521
		c0-16.303,12.849-29.521,28.698-29.521C222.287,30.695,235.136,43.914,235.136,60.216z"/>
	<path fill="#8E8E8E" d="M326.787,142.434c0,16.303-12.85,29.521-28.708,29.521c-15.849,0-28.697-13.218-28.697-29.521
		c0-16.302,12.851-29.521,28.697-29.521C313.938,112.913,326.787,126.131,326.787,142.434z"/>
	<path fill="#E1E1E1" stroke="#FFFFFF" stroke-width="2.9099" stroke-miterlimit="10" d="M396.859,289.45
		c0,18.761-11.16,33.968-24.93,33.968H154.264c-13.769,0-24.929-15.207-24.929-33.968v-43.908c0-18.76,11.16-33.967,24.929-33.967
		H371.93c13.771,0,24.935,15.207,24.935,33.967L396.859,289.45L396.859,289.45z"/>
	<path fill="#B0B0B0" d="M349.264,264.419c0,13.653-10.76,24.72-24.035,24.72c-13.271,0-24.027-11.062-24.027-24.72
		c0-13.651,10.76-24.719,24.027-24.719C338.504,239.7,349.264,250.768,349.264,264.419z"/>
	<path fill="#8E8E8E" d="M174.434,167.562c0,16.304-12.849,29.521-28.705,29.521c-15.849,0-28.699-13.217-28.699-29.521
		c0-16.303,12.851-29.521,28.699-29.521C161.585,138.041,174.434,151.258,174.434,167.562z"/>
	<ellipse fill="#8E8E8E" cx="96.931" cy="250.769" rx="20.099" ry="20.673"/>
	<ellipse fill="#8E8E8E" cx="166.635" cy="367.416" rx="22.048" ry="22.677"/>
	<ellipse fill="#8E8E8E" cx="300.188" cy="409.634" rx="17.684" ry="18.184"/>
	<ellipse fill="#B0B0B0" cx="206.434" cy="264.419" rx="24.032" ry="24.72"/>
	<rect x="123.472" y="415.897" fill="#8E8E8E" width="47.427" height="11.104"/>
	<rect x="123.472" y="440.166" fill="#8E8E8E" width="47.427" height="5.554"/>
	<rect x="191.818" y="442.943" fill="#8E8E8E" width="47.427" height="11.104"/>
	<rect x="191.818" y="467.213" fill="#8E8E8E" width="47.427" height="5.554"/>
	<rect x="266.953" y="446.355" fill="#8E8E8E" width="47.427" height="11.104"/>
	<rect x="266.953" y="470.624" fill="#8E8E8E" width="47.427" height="5.554"/>
	<rect x="341.839" y="428.327" fill="#8E8E8E" width="47.427" height="11.104"/>
	<rect x="341.839" y="452.596" fill="#8E8E8E" width="47.427" height="5.559"/>
	<rect x="206.434" y="354.976" fill="#8E8E8E" width="120.353" height="19.44"/>
</g>
</svg>
