<?xml version="1.0" encoding="utf-8"?>
<!-- Generator: Adobe Illustrator 16.0.0, SVG Export Plug-In . SVG Version: 6.00 Build 0)  -->
<!DOCTYPE svg PUBLIC "-//W3C//DTD SVG 1.1//EN" "http://www.w3.org/Graphics/SVG/1.1/DTD/svg11.dtd">
<svg version="1.1" id="Layer_1" xmlns="http://www.w3.org/2000/svg" xmlns:xlink="http://www.w3.org/1999/xlink" x="0px" y="0px"
	 width="512px" height="512px" viewBox="0 0 512 512" enable-background="new 0 0 512 512" xml:space="preserve">
<g id="jumpy">
	<path fill="#8A9D7C" d="M371.145,111.117c0.623-1.497,1.082-3.134,1.279-4.97c1.723-16.085-20.287-70.953-29.07-78.544
		c-8.781-7.598-19.83,24.043-27.252,31.792c-0.011,0.011-0.019,0.029-0.029,0.042c-17.68-12.665-38.354-10.961-60.462-10.961
		c-22.449,0-43.429-1.488-61.287,11.541c-0.17-0.204-0.309-0.432-0.49-0.621c-7.421-7.749-4.679-39.39-13.459-31.792
		c-8.783,7.591-37.2,64.263-35.478,80.349c0.257,2.412,0.954,4.489,1.925,6.319c-21.701,26.59-92.342,106.064-92.342,142.718
		c0,85.924,95.286,186.562,201.536,186.562c106.25,0,212.876-116.329,212.876-202.252
		C468.892,204.026,393.51,137.91,371.145,111.117z"/>
	<path fill="#344226" d="M328.262,111.117c13.514,9.37,42.883,0,42.883,0c0.623-1.497,1.082-3.134,1.279-4.97
		c1.723-16.085-20.287-70.953-29.07-78.544c-8.781-7.598-19.83,24.043-27.252,31.792c-0.011,0.011-0.019,0.029-0.029,0.042
		c0,0-5.828,26.545-3.575,34.654C314.749,102.2,328.262,111.117,328.262,111.117z"/>
	<path fill="#344226" d="M189.568,111.117c-13.514,9.37-42.883,0-42.883,0c-0.623-1.497-1.082-3.134-1.279-4.97
		c-1.723-16.085,20.287-70.953,29.071-78.544c8.78-7.598,19.829,24.043,27.251,31.792c0.011,0.011,0.019,0.029,0.029,0.042
		c0,0,5.83,26.545,3.577,34.654C203.081,102.2,189.568,111.117,189.568,111.117z"/>
	<path fill="#5F6A55" d="M96.82,330.486c0,0,15.315,5.231,25.225,21.311s18.919,30.941,13.514,30.941
		c-5.405,0-23.874-17.039-23.874-17.039S86.459,335.892,96.82,330.486z"/>
	<path fill="#78886D" d="M100.874,340.847c0,0-52.702,51.805-63.964,77.027c-11.262,25.224-18.919,25.676-18.919,25.676
		s-10.811,13.515-6.757,30.18c4.054,16.669,20.721,29.906,20.721-3.738c0-33.646,9.91-30.494,9.91-30.494
		s49.293-77.026,77.928-77.026C128.537,362.469,100.874,340.847,100.874,340.847z"/>
	<path fill="#5F6A55" d="M410.688,330.486c0,0-15.313,5.231-25.226,21.311s-18.919,30.941-13.515,30.941
		c5.406,0,23.875-17.039,23.875-17.039S421.047,335.892,410.688,330.486z"/>
	<path fill="#778058" d="M233.419,442.031c7.456,0.985,14.996,1.519,22.594,1.519c6.864,0,13.729-0.494,20.568-1.426
		c12.831-43.722,132.231-176.806,181.696-230.646c-15.106-25.256-43.354-54.261-64.83-76.444c-2.456,0.343-4.938,0.696-7.442,1.061
		C334.428,143.595,256,266.589,256,266.589c-13.59-49.497-111.93-140.993-111.93-140.993s-2.561-0.039-6.751,0.104
		c-15.525,18.549-39.484,47.166-57.653,74.469C114.25,263.031,198.789,390.366,233.419,442.031z"/>
	<path fill="#78886D" d="M406.633,340.847c0,0,52.702,51.805,63.964,77.027c11.264,25.224,18.919,25.676,18.919,25.676
		s10.812,13.515,6.759,30.18c-4.056,16.669-20.723,29.906-20.723-3.738c0-33.646-9.909-30.494-9.909-30.494
		s-49.294-77.026-77.929-77.026C378.971,362.469,406.633,340.847,406.633,340.847z"/>
	<path fill="#838E79" d="M149.275,408.681l-15.969,30.718c0,0,0,13.965,10.811,3.151c10.811-10.812,12.162-27.681,12.162-27.681
		L149.275,408.681z"/>
	<path fill="#838E79" d="M359.311,408.681l15.969,30.718c0,0,0,13.965-10.811,3.151c-10.811-10.812-12.162-27.681-12.162-27.681
		L359.311,408.681z"/>
	<path fill="#009B4A" d="M460.11,211.649c0,0-13.379-26.206-21.677-30.621c0,0-33.507-20.66-50.174-8.047
		s-25.676,37.837-25.676,56.306c0,18.469,25.675,40.541,47.297,40.541c0,0,23.648-1.127,33.333-10.812
		C452.9,249.331,463.268,217.506,460.11,211.649z"/>
	
		<ellipse transform="matrix(-0.984 0.1781 -0.1781 -0.984 853.3369 371.769)" fill="#37472B" cx="409.982" cy="224.186" rx="21.622" ry="36.035"/>
	<path fill="#009B4A" d="M71.722,211.649c0,0,13.379-26.206,21.675-30.621c0,0,33.507-20.66,50.174-8.047
		s25.676,37.837,25.676,56.306c0,18.469-25.675,40.541-47.297,40.541c0,0-23.648-1.127-33.333-10.812
		C78.932,249.331,68.564,217.506,71.722,211.649z"/>
	
		<ellipse transform="matrix(0.984 0.1781 -0.1781 0.984 41.8751 -18.1162)" fill="#37472B" cx="121.843" cy="224.182" rx="21.622" ry="36.036"/>
</g>
</svg>
