<?xml version="1.0" encoding="utf-8"?>
<!-- Generator: Adobe Illustrator 16.0.0, SVG Export Plug-In . SVG Version: 6.00 Build 0)  -->
<!DOCTYPE svg PUBLIC "-//W3C//DTD SVG 1.1//EN" "http://www.w3.org/Graphics/SVG/1.1/DTD/svg11.dtd">
<svg version="1.1" id="Layer_1" xmlns="http://www.w3.org/2000/svg" xmlns:xlink="http://www.w3.org/1999/xlink" x="0px" y="0px"
	 width="512px" height="512px" viewBox="0 0 512 512" enable-background="new 0 0 512 512" xml:space="preserve">
<g id="bally">
	<path fill="#A4A4A5" d="M350.566,160.048c-6.793-33.467-26.939-119.6-56.771-133.532c0,0,19.771,78.591,0,98.363
		c-3.913,3.913-7.785,6.862-11.339,9.115c-8.627-1.321-17.463-2.007-26.458-2.007c-11.982,0-23.68,1.217-34.978,3.532
		c-2.429-2.34-5.037-5.34-7.825-9.2c-18.805-26.037,0-98.363,0-98.363c-26.879,13.726-45.163,97.528-51.64,132.01
		c-47.483,30.917-78.883,84.462-78.883,145.349c0,95.728,77.601,173.324,173.326,173.324c95.727,0,173.326-77.601,173.326-173.324
		C429.326,244.481,397.98,190.977,350.566,160.048z"/>
	<path fill="#939393" d="M249.523,189.857c0,0-98.951,15.472-105.788,22.309c-6.837,6.836-9.355,45.337-9.355,45.337
		s85.637-16.551,115.143-16.551c29.504,0,104.348,11.626,116.583,11.626c7.916,0,0-44.729,0-44.729
		C357.471,207.848,249.523,189.857,249.523,189.857z"/>
	<path fill="#B9B7B7" d="M249.933,417.151c0,0-82.605-12.184-88.312-17.562c-5.708-5.382-7.81-35.688-7.81-35.688
		s71.491,13.025,96.123,13.025c24.63,0,87.11-9.149,97.324-9.149c6.607,0,0,35.214,0,35.214
		C340.047,402.988,249.933,417.151,249.933,417.151z"/>
	<polyline fill="none" stroke="#ADADAE" stroke-width="28.3465" stroke-miterlimit="10" points="86.139,300.691 194.593,343.088 
		256,275.891 316.087,343.088 425.861,300.691 	"/>
</g>
</svg>
