<?xml version="1.0" encoding="utf-8"?>
<!-- Generator: Adobe Illustrator 16.0.0, SVG Export Plug-In . SVG Version: 6.00 Build 0)  -->
<!DOCTYPE svg PUBLIC "-//W3C//DTD SVG 1.1//EN" "http://www.w3.org/Graphics/SVG/1.1/DTD/svg11.dtd">
<svg version="1.1" id="Layer_1" xmlns="http://www.w3.org/2000/svg" xmlns:xlink="http://www.w3.org/1999/xlink" x="0px" y="0px"
	 width="512px" height="512px" viewBox="0 0 512 512" enable-background="new 0 0 512 512" xml:space="preserve">
<g id="species_x5F_04">
	<path fill="#D7BFDC" d="M104.337,234.309c-6.452-26.043-3.182-48.035,24.841-59.746l2.989-3.418
		c6.18-22.738,18.381-39.427,43.416-43.231c11.509-6.311,23.027-12.622,34.536-18.942c18.609-27.594,46.535-18.303,72.14-18.241
		c14.114-2.244,29.898,0.717,42.431-6.491c-21.119-9.066-44.299-14.081-68.62-14.081c-92.17,0-167.983,71.923-177.141,164.105
		c7.305-0.378,14.611-0.757,21.911-1.129L104.337,234.309z"/>
	<path fill="#4D2E7E" d="M416.515,200.797c3.601,0.706,7.203,1.367,10.813,2.008c-14.905-53.688-53.094-97.296-102.641-118.566
		c-12.53,7.208-28.314,4.247-42.432,6.491c-25.604-0.062-53.531-9.353-72.14,18.241c-11.509,6.32-23.027,12.631-34.536,18.942
		c-25.034,3.804-37.236,20.494-43.416,43.231l-2.989,3.418c-28.023,11.711-31.293,33.703-24.841,59.746l-3.498-1.175
		c-7.3,0.372-14.606,0.751-21.911,1.129C78.315,240.438,78,246.705,78,253.047c0,36.631,10.492,70.741,28.549,99.352
		c1.524-3.442,3.541-6.75,6.057-9.914c39.464,6.054,78.94,12.1,118.428,18.145c8.254,6.144,16.485,12.284,24.715,18.419
		c16.757,12.257,33.501,24.516,50.257,36.773c0,0.812,0.001,1.63,0.001,2.442c33.212-40.332,67.069-80.336,85.252-128.111
		c36.234-23.111,15.582-54.478,16.768-82.673C410.957,205.337,413.787,203.111,416.515,200.797z"/>
	<path fill="#6A4084" d="M255.749,379.045c-8.23-6.135-16.461-12.273-24.715-18.419c-39.488-6.045-78.964-12.091-118.428-18.146
		c-2.516,3.165-4.532,6.473-6.057,9.912c31.732,50.275,86.841,83.543,149.521,83.543c13.433,0,26.514-1.536,39.096-4.434
		c3.592-4.425,7.213-8.835,10.842-13.241c0-0.812-0.001-1.631-0.001-2.442C289.25,403.56,272.506,391.302,255.749,379.045z"/>
	<path fill="#CD88B1" d="M416.515,200.797c-2.728,2.314-5.558,4.541-8.488,6.68c-1.186,28.198,19.47,59.562-16.768,82.675
		c-20.169,52.996-59.626,96.429-96.094,141.354c79.537-18.303,138.975-91.247,138.975-178.458c0-17.425-2.379-34.278-6.812-50.242
		C423.718,202.164,420.112,201.502,416.515,200.797z"/>
	<path fill="#58388C" d="M81.358,288.542C80.666,282.389,78.692,261.145,78,255c22.746-3.9,25.267-6.025,24.776-21.277l3.498,1.175
		c21.773-14.297,40.295-29.952,24.841-59.746c0,0,2.989-3.418,3.015-3.366c42.504,13.639,41.102-16.672,43.389-43.284
		c11.509-6.311,23.027-12.622,34.536-18.942c39.331,25.902,81.071,41.154,128.976,29.329c0,0,1.578,2.104,1.551,2.121
		c-1.41,13.131,38.189,19.896,36.814,33C278.232,155.69,135.897,256.913,115,342.48C85.706,336.441,110.652,294.581,81.358,288.542z
		"/>
	<path fill="#C290BC" d="M327.404,84.238c64.254,10.844,82.037,67.461,101.314,122.61c-2.5,2.739-5.104,5.386-7.794,7.927
		c-24.748-26.438-49.343-53.2-87.971-51.241c0,0-1.72-2.5-1.729-2.459c-3.899-40.617-47.537-29.501-61.849-56.576
		C289.664,100.979,313.123,108.26,327.404,84.238z"/>
	<path fill="#805FA4" d="M129.266,176.126c15.454,29.794-3.068,45.45-24.841,59.747C97.973,209.83,101.242,187.837,129.266,176.126z
		"/>
	<path fill="#7D3A6D" d="M330.833,415.528c25.501-18.861,78.49-55.906,97.889-116.195c3.707-36.534-16.271-98.138-53.534-95.43
		C363.809,280.672,297.656,393.055,175.333,372C175.333,372,265.332,442.39,330.833,415.528z"/>
	<path fill="#502B6E" d="M97.739,336.8c39.953-0.271,147.507-53.589,160.689-80.077c26.873-54,66.186-90.852,132.874-81.514
		c7.979,0.214,15.914,0.438,23.905,0.664c-14.532,98.417-16.266,219.996-173.101,193.002
		C226.169,353.218,113.687,352.479,97.739,336.8z"/>
</g>
</svg>
