<?xml version="1.0" encoding="utf-8"?>
<!-- Generator: Adobe Illustrator 16.0.0, SVG Export Plug-In . SVG Version: 6.00 Build 0)  -->
<!DOCTYPE svg PUBLIC "-//W3C//DTD SVG 1.1//EN" "http://www.w3.org/Graphics/SVG/1.1/DTD/svg11.dtd">
<svg version="1.1" id="Layer_1" xmlns="http://www.w3.org/2000/svg" xmlns:xlink="http://www.w3.org/1999/xlink" x="0px" y="0px"
	 width="512px" height="512px" viewBox="0 0 512 512" enable-background="new 0 0 512 512" xml:space="preserve">
<g id="_x30_5">
	<g>
		<g>
			<g>
				<g>
					<g>
						<defs>
							<path id="SVGID_1_" d="M138.497,407.878c18.572,8.499,69.118,33.03,189.886,0.903
								c120.768-32.124,147.123-71.911,164.324-105.043c17.201-33.135,3.373-91.646-18.811-121.699
								c-22.184-30.052-58.494-88.249-142.373-110.273c-77.799-20.426-212.54,7.021-273.271,70.45
								c-60.734,63.432-70.666,99.781-8.426,178.279C102.273,386.639,112.572,396.013,138.497,407.878z"/>
						</defs>
						<clipPath id="SVGID_2_">
							<use xlink:href="#SVGID_1_"  overflow="visible"/>
						</clipPath>
						
							<linearGradient id="SVGID_3_" gradientUnits="userSpaceOnUse" x1="-549.9722" y1="-26.6353" x2="-538.1807" y2="-426.0755" gradientTransform="matrix(-0.8875 -0.4608 0.4608 -0.8875 -259.0448 -60.8267)">
							<stop  offset="0.2299" style="stop-color:#B3AFA8"/>
							<stop  offset="0.9501" style="stop-color:#8B8481"/>
						</linearGradient>
						<polygon clip-path="url(#SVGID_2_)" fill="url(#SVGID_3_)" points="75.558,595.014 132.658,485.023 259.764,240.192 
							-19.935,515.666 						"/>
					</g>
				</g>
			</g>
		</g>
		<g>
			<g>
				<g>
					<g>
						<defs>
							<path id="SVGID_4_" d="M138.497,407.878c18.572,8.499,69.118,33.03,189.886,0.903
								c120.768-32.124,147.123-71.911,164.324-105.043c17.201-33.135,3.373-91.646-18.811-121.699
								c-22.184-30.052-58.494-88.249-142.373-110.273c-77.799-20.426-212.54,7.021-273.271,70.45
								c-60.734,63.432-70.666,99.781-8.426,178.279C102.273,386.639,112.572,396.013,138.497,407.878z"/>
						</defs>
						<clipPath id="SVGID_5_">
							<use xlink:href="#SVGID_4_"  overflow="visible"/>
						</clipPath>
						
							<linearGradient id="SVGID_6_" gradientUnits="userSpaceOnUse" x1="-446.8174" y1="296.1924" x2="-435.0255" y2="-103.2606" gradientTransform="matrix(-0.4472 -0.8944 0.8944 -0.4472 -225.6754 -71.6495)">
							<stop  offset="0.2299" style="stop-color:#B3AFA8"/>
							<stop  offset="0.9501" style="stop-color:#8B8481"/>
						</linearGradient>
						<polygon clip-path="url(#SVGID_5_)" fill="url(#SVGID_6_)" points="-97.823,418.973 13.025,363.555 259.764,240.192 
							-128.436,298.652 						"/>
					</g>
				</g>
			</g>
		</g>
		<g>
			<g>
				<g>
					<g>
						<defs>
							<path id="SVGID_7_" d="M138.497,407.878c18.572,8.499,69.118,33.03,189.886,0.903
								c120.768-32.124,147.123-71.911,164.324-105.043c17.201-33.135,3.373-91.646-18.811-121.699
								c-22.184-30.052-58.494-88.249-142.373-110.273c-77.799-20.426-212.54,7.021-273.271,70.45
								c-60.734,63.432-70.666,99.781-8.426,178.279C102.273,386.639,112.572,396.013,138.497,407.878z"/>
						</defs>
						<clipPath id="SVGID_8_">
							<use xlink:href="#SVGID_7_"  overflow="visible"/>
						</clipPath>
						
							<linearGradient id="SVGID_9_" gradientUnits="userSpaceOnUse" x1="-173.9868" y1="496.5205" x2="-162.1958" y2="97.0944" gradientTransform="matrix(0.164 -0.9865 0.9865 0.164 -192.0222 -61.156)">
							<stop  offset="0.2299" style="stop-color:#B3AFA8"/>
							<stop  offset="0.9501" style="stop-color:#8B8481"/>
						</linearGradient>
						<polygon clip-path="url(#SVGID_8_)" fill="url(#SVGID_9_)" points="-134.616,174.646 -12.362,194.962 259.764,240.192 
							-88.658,59.309 						"/>
					</g>
				</g>
			</g>
		</g>
		<g>
			<g>
				<g>
					<g>
						<defs>
							<path id="SVGID_10_" d="M138.497,407.878c18.572,8.499,69.118,33.03,189.886,0.903
								c120.768-32.124,147.123-71.911,164.324-105.043c17.201-33.135,3.373-91.646-18.811-121.699
								c-22.184-30.052-58.494-88.249-142.373-110.273c-77.799-20.426-212.54,7.021-273.271,70.45
								c-60.734,63.432-70.666,99.781-8.426,178.279C102.273,386.639,112.572,396.013,138.497,407.878z"/>
						</defs>
						<clipPath id="SVGID_11_">
							<use xlink:href="#SVGID_10_"  overflow="visible"/>
						</clipPath>
						
							<linearGradient id="SVGID_12_" gradientUnits="userSpaceOnUse" x1="164.3843" y1="498.8682" x2="176.1749" y2="99.463" gradientTransform="matrix(0.7125 -0.7018 0.7018 0.7125 -171.3772 -33.3933)">
							<stop  offset="0.2299" style="stop-color:#B3AFA8"/>
							<stop  offset="0.9501" style="stop-color:#8B8481"/>
						</linearGradient>
						<polygon clip-path="url(#SVGID_11_)" fill="url(#SVGID_12_)" points="-20.767,-44.648 66.194,43.647 259.764,240.192 
							84.207,-110.942 						"/>
					</g>
				</g>
			</g>
		</g>
		<g>
			<g>
				<g>
					<g>
						<defs>
							<path id="SVGID_13_" d="M138.497,407.878c18.572,8.499,69.118,33.03,189.886,0.903
								c120.768-32.124,147.123-71.911,164.324-105.043c17.201-33.135,3.373-91.646-18.811-121.699
								c-22.184-30.052-58.494-88.249-142.373-110.273c-77.799-20.426-212.54,7.021-273.271,70.45
								c-60.734,63.432-70.666,99.781-8.426,178.279C102.273,386.639,112.572,396.013,138.497,407.878z"/>
						</defs>
						<clipPath id="SVGID_14_">
							<use xlink:href="#SVGID_13_"  overflow="visible"/>
						</clipPath>
						
							<linearGradient id="SVGID_15_" gradientUnits="userSpaceOnUse" x1="440.1309" y1="301.5186" x2="451.9232" y2="-97.9422" gradientTransform="matrix(0.9888 -0.1489 0.1489 0.9888 -171.4639 1.6948)">
							<stop  offset="0.2299" style="stop-color:#B3AFA8"/>
							<stop  offset="0.9501" style="stop-color:#8B8481"/>
						</linearGradient>
						<polygon clip-path="url(#SVGID_14_)" fill="url(#SVGID_15_)" points="200.234,-155.139 218.688,-32.59 259.764,240.192 
							324.129,-147.07 						"/>
					</g>
				</g>
			</g>
		</g>
		<g>
			<g>
				<g>
					<g>
						<defs>
							<path id="SVGID_16_" d="M138.497,407.878c18.572,8.499,69.118,33.03,189.886,0.903
								c120.768-32.124,147.123-71.911,164.324-105.043c17.201-33.135,3.373-91.646-18.811-121.699
								c-22.184-30.052-58.494-88.249-142.373-110.273c-77.799-20.426-212.54,7.021-273.271,70.45
								c-60.734,63.432-70.666,99.781-8.426,178.279C102.273,386.639,112.572,396.013,138.497,407.878z"/>
						</defs>
						<clipPath id="SVGID_17_">
							<use xlink:href="#SVGID_16_"  overflow="visible"/>
						</clipPath>
						
							<linearGradient id="SVGID_18_" gradientUnits="userSpaceOnUse" x1="546.6875" y1="-20.502" x2="558.479" y2="-419.9427" gradientTransform="matrix(0.8875 0.4608 -0.4608 0.8875 -191.88 30.4293)">
							<stop  offset="0.2299" style="stop-color:#B3AFA8"/>
							<stop  offset="0.9501" style="stop-color:#8B8481"/>
						</linearGradient>
						<polygon clip-path="url(#SVGID_17_)" fill="url(#SVGID_18_)" points="443.977,-114.626 386.871,-4.635 259.764,240.192 
							539.465,-35.273 						"/>
					</g>
				</g>
			</g>
		</g>
		<g>
			<g>
				<g>
					<g>
						<defs>
							<path id="SVGID_19_" d="M138.497,407.878c18.572,8.499,69.118,33.03,189.886,0.903
								c120.768-32.124,147.123-71.911,164.324-105.043c17.201-33.135,3.373-91.646-18.811-121.699
								c-22.184-30.052-58.494-88.249-142.373-110.273c-77.799-20.426-212.54,7.021-273.271,70.45
								c-60.734,63.432-70.666,99.781-8.426,178.279C102.273,386.639,112.572,396.013,138.497,407.878z"/>
						</defs>
						<clipPath id="SVGID_20_">
							<use xlink:href="#SVGID_19_"  overflow="visible"/>
						</clipPath>
						
							<linearGradient id="SVGID_21_" gradientUnits="userSpaceOnUse" x1="443.9248" y1="-343.4712" x2="455.7168" y2="-742.9246" gradientTransform="matrix(0.4472 0.8944 -0.8944 0.4472 -225.248 41.4181)">
							<stop  offset="0.2299" style="stop-color:#B3AFA8"/>
							<stop  offset="0.9501" style="stop-color:#8B8481"/>
						</linearGradient>
						<polygon clip-path="url(#SVGID_20_)" fill="url(#SVGID_21_)" points="617.354,61.417 506.5,116.837 259.764,240.192 
							647.961,181.741 						"/>
					</g>
				</g>
			</g>
		</g>
		<g>
			<g>
				<g>
					<g>
						<defs>
							<path id="SVGID_22_" d="M138.497,407.878c18.572,8.499,69.118,33.03,189.886,0.903
								c120.768-32.124,147.123-71.911,164.324-105.043c17.201-33.135,3.373-91.646-18.811-121.699
								c-22.184-30.052-58.494-88.249-142.373-110.273c-77.799-20.426-212.54,7.021-273.271,70.45
								c-60.734,63.432-70.666,99.781-8.426,178.279C102.273,386.639,112.572,396.013,138.497,407.878z"/>
						</defs>
						<clipPath id="SVGID_23_">
							<use xlink:href="#SVGID_22_"  overflow="visible"/>
						</clipPath>
						
							<linearGradient id="SVGID_24_" gradientUnits="userSpaceOnUse" x1="170.4204" y1="-544.5679" x2="182.2114" y2="-943.9877" gradientTransform="matrix(-0.164 0.9865 -0.9865 -0.164 -259.0022 31.052)">
							<stop  offset="0.2299" style="stop-color:#B3AFA8"/>
							<stop  offset="0.9501" style="stop-color:#8B8481"/>
						</linearGradient>
						<polygon clip-path="url(#SVGID_23_)" fill="url(#SVGID_24_)" points="654.137,305.746 531.885,285.427 259.764,240.192 
							608.18,421.082 						"/>
					</g>
				</g>
			</g>
		</g>
		<g>
			<g>
				<g>
					<g>
						<defs>
							<path id="SVGID_25_" d="M138.497,407.878c18.572,8.499,69.118,33.03,189.886,0.903
								c120.768-32.124,147.123-71.911,164.324-105.043c17.201-33.135,3.373-91.646-18.811-121.699
								c-22.184-30.052-58.494-88.249-142.373-110.273c-77.799-20.426-212.54,7.021-273.271,70.45
								c-60.734,63.432-70.666,99.781-8.426,178.279C102.273,386.639,112.572,396.013,138.497,407.878z"/>
						</defs>
						<clipPath id="SVGID_26_">
							<use xlink:href="#SVGID_25_"  overflow="visible"/>
						</clipPath>
						
							<linearGradient id="SVGID_27_" gradientUnits="userSpaceOnUse" x1="-167.5205" y1="-546.4175" x2="-155.7285" y2="-945.8782" gradientTransform="matrix(-0.7125 0.7016 -0.7016 -0.7125 -279.0242 1.8738)">
							<stop  offset="0.2299" style="stop-color:#B3AFA8"/>
							<stop  offset="0.9501" style="stop-color:#8B8481"/>
						</linearGradient>
						<polygon clip-path="url(#SVGID_26_)" fill="url(#SVGID_27_)" points="540.285,525.041 453.326,436.738 259.764,240.192 
							435.307,591.33 						"/>
					</g>
				</g>
			</g>
		</g>
		<g>
			<g>
				<g>
					<g>
						<defs>
							<path id="SVGID_28_" d="M138.497,407.878c18.572,8.499,69.118,33.03,189.886,0.903
								c120.768-32.124,147.123-71.911,164.324-105.043c17.201-33.135,3.373-91.646-18.811-121.699
								c-22.184-30.052-58.494-88.249-142.373-110.273c-77.799-20.426-212.54,7.021-273.271,70.45
								c-60.734,63.432-70.666,99.781-8.426,178.279C102.273,386.639,112.572,396.013,138.497,407.878z"/>
						</defs>
						<clipPath id="SVGID_29_">
							<use xlink:href="#SVGID_28_"  overflow="visible"/>
						</clipPath>
						
							<linearGradient id="SVGID_30_" gradientUnits="userSpaceOnUse" x1="-443.9238" y1="-347.8774" x2="-432.1318" y2="-747.3392" gradientTransform="matrix(-0.9888 0.1489 -0.1489 -0.9888 -279.8691 -31.7973)">
							<stop  offset="0.2299" style="stop-color:#B3AFA8"/>
							<stop  offset="0.9501" style="stop-color:#8B8481"/>
						</linearGradient>
						<polygon clip-path="url(#SVGID_29_)" fill="url(#SVGID_30_)" points="319.281,635.525 300.83,512.977 259.764,240.192 
							195.388,627.453 						"/>
					</g>
				</g>
			</g>
		</g>
		<g>
			<g>
				<g>
					<g>
						<defs>
							<path id="SVGID_31_" d="M138.497,407.878c18.572,8.499,69.118,33.03,189.886,0.903
								c120.768-32.124,147.123-71.911,164.324-105.043c17.201-33.135,3.373-91.646-18.811-121.699
								c-22.184-30.052-58.494-88.249-142.373-110.273c-77.799-20.426-212.54,7.021-273.271,70.45
								c-60.734,63.432-70.666,99.781-8.426,178.279C102.273,386.639,112.572,396.013,138.497,407.878z"/>
						</defs>
						<clipPath id="SVGID_32_">
							<use xlink:href="#SVGID_31_"  overflow="visible"/>
						</clipPath>
						
							<linearGradient id="SVGID_33_" gradientUnits="userSpaceOnUse" x1="-524.3682" y1="142.4194" x2="-512.5776" y2="-256.9881" gradientTransform="matrix(-0.702 -0.7123 0.7123 -0.702 -243.2824 -69.3908)">
							<stop  offset="0" style="stop-color:#CFCCC3"/>
							<stop  offset="0.9737" style="stop-color:#BAB6AE"/>
						</linearGradient>
						<polygon clip-path="url(#SVGID_32_)" fill="url(#SVGID_33_)" points="-24.975,520.828 63.29,433.833 259.764,240.192 
							-91.31,415.877 						"/>
					</g>
				</g>
			</g>
		</g>
		<g>
			<g>
				<g>
					<g>
						<defs>
							<path id="SVGID_34_" d="M138.497,407.878c18.572,8.499,69.118,33.03,189.886,0.903
								c120.768-32.124,147.123-71.911,164.324-105.043c17.201-33.135,3.373-91.646-18.811-121.699
								c-22.184-30.052-58.494-88.249-142.373-110.273c-77.799-20.426-212.54,7.021-273.271,70.45
								c-60.734,63.432-70.666,99.781-8.426,178.279C102.273,386.639,112.572,396.013,138.497,407.878z"/>
						</defs>
						<clipPath id="SVGID_35_">
							<use xlink:href="#SVGID_34_"  overflow="visible"/>
						</clipPath>
						
							<linearGradient id="SVGID_36_" gradientUnits="userSpaceOnUse" x1="-326.855" y1="418.3643" x2="-315.0634" y2="18.925" gradientTransform="matrix(-0.1493 -0.9888 0.9888 -0.1493 -208.626 -69.4237)">
							<stop  offset="0" style="stop-color:#CFCCC3"/>
							<stop  offset="0.9737" style="stop-color:#BAB6AE"/>
						</linearGradient>
						<polygon clip-path="url(#SVGID_35_)" fill="url(#SVGID_36_)" points="-135.548,299.864 -13.004,281.367 259.764,240.192 
							-127.524,175.966 						"/>
					</g>
				</g>
			</g>
		</g>
		<g>
			<g>
				<g>
					<g>
						<defs>
							<path id="SVGID_37_" d="M138.497,407.878c18.572,8.499,69.118,33.03,189.886,0.903
								c120.768-32.124,147.123-71.911,164.324-105.043c17.201-33.135,3.373-91.646-18.811-121.699
								c-22.184-30.052-58.494-88.249-142.373-110.273c-77.799-20.426-212.54,7.021-273.271,70.45
								c-60.734,63.432-70.666,99.781-8.426,178.279C102.273,386.639,112.572,396.013,138.497,407.878z"/>
						</defs>
						<clipPath id="SVGID_38_">
							<use xlink:href="#SVGID_37_"  overflow="visible"/>
						</clipPath>
						
							<linearGradient id="SVGID_39_" gradientUnits="userSpaceOnUse" x1="-4.4116" y1="524.4072" x2="7.3795" y2="124.9811" gradientTransform="matrix(0.4605 -0.8877 0.8877 0.4605 -179.783 -48.207)">
							<stop  offset="0" style="stop-color:#CFCCC3"/>
							<stop  offset="0.9737" style="stop-color:#BAB6AE"/>
						</linearGradient>
						<polygon clip-path="url(#SVGID_38_)" fill="url(#SVGID_39_)" points="-95.122,56.109 14.888,113.172 259.764,240.192 
							-15.807,-39.409 						"/>
					</g>
				</g>
			</g>
		</g>
		<g>
			<g>
				<g>
					<g>
						<defs>
							<path id="SVGID_40_" d="M138.497,407.878c18.572,8.499,69.118,33.03,189.886,0.903
								c120.768-32.124,147.123-71.911,164.324-105.043c17.201-33.135,3.373-91.646-18.811-121.699
								c-22.184-30.052-58.494-88.249-142.373-110.273c-77.799-20.426-212.54,7.021-273.271,70.45
								c-60.734,63.432-70.666,99.781-8.426,178.279C102.273,386.639,112.572,396.013,138.497,407.878z"/>
						</defs>
						<clipPath id="SVGID_41_">
							<use xlink:href="#SVGID_40_"  overflow="visible"/>
						</clipPath>
						
							<linearGradient id="SVGID_42_" gradientUnits="userSpaceOnUse" x1="318.3564" y1="422.0605" x2="330.1476" y2="22.6261" gradientTransform="matrix(0.8943 -0.4475 0.4475 0.8943 -169.1677 -15.5101)">
							<stop  offset="0" style="stop-color:#CFCCC3"/>
							<stop  offset="0.9737" style="stop-color:#BAB6AE"/>
						</linearGradient>
						<polygon clip-path="url(#SVGID_41_)" fill="url(#SVGID_42_)" points="80.858,-117.332 136.317,-6.503 259.764,240.192 
							201.17,-147.987 						"/>
					</g>
				</g>
			</g>
		</g>
		<g>
			<g>
				<g>
					<g>
						<defs>
							<path id="SVGID_43_" d="M138.497,407.878c18.572,8.499,69.118,33.03,189.886,0.903
								c120.768-32.124,147.123-71.911,164.324-105.043c17.201-33.135,3.373-91.646-18.811-121.699
								c-22.184-30.052-58.494-88.249-142.373-110.273c-77.799-20.426-212.54,7.021-273.271,70.45
								c-60.734,63.432-70.666,99.781-8.426,178.279C102.273,386.639,112.572,396.013,138.497,407.878z"/>
						</defs>
						<clipPath id="SVGID_44_">
							<use xlink:href="#SVGID_43_"  overflow="visible"/>
						</clipPath>
						
							<linearGradient id="SVGID_45_" gradientUnits="userSpaceOnUse" x1="519.1426" y1="148.1606" x2="530.934" y2="-251.2816" gradientTransform="matrix(0.9865 0.1637 -0.1637 0.9865 -179.8494 18.5283)">
							<stop  offset="0" style="stop-color:#CFCCC3"/>
							<stop  offset="0.9737" style="stop-color:#BAB6AE"/>
						</linearGradient>
						<polygon clip-path="url(#SVGID_44_)" fill="url(#SVGID_45_)" points="325.176,-154.208 304.898,-31.948 259.764,240.192 
							440.527,-108.29 						"/>
					</g>
				</g>
			</g>
		</g>
		<g>
			<g>
				<g>
					<g>
						<defs>
							<path id="SVGID_46_" d="M138.497,407.878c18.572,8.499,69.118,33.03,189.886,0.903
								c120.768-32.124,147.123-71.911,164.324-105.043c17.201-33.135,3.373-91.646-18.811-121.699
								c-22.184-30.052-58.494-88.249-142.373-110.273c-77.799-20.426-212.54,7.021-273.271,70.45
								c-60.734,63.432-70.666,99.781-8.426,178.279C102.273,386.639,112.572,396.013,138.497,407.878z"/>
						</defs>
						<clipPath id="SVGID_47_">
							<use xlink:href="#SVGID_46_"  overflow="visible"/>
						</clipPath>
						
							<linearGradient id="SVGID_48_" gradientUnits="userSpaceOnUse" x1="520.4834" y1="-190.2578" x2="532.2739" y2="-589.6625" gradientTransform="matrix(0.702 0.7123 -0.7123 0.702 -207.6346 39.0744)">
							<stop  offset="0" style="stop-color:#CFCCC3"/>
							<stop  offset="0.9737" style="stop-color:#BAB6AE"/>
						</linearGradient>
						<polygon clip-path="url(#SVGID_47_)" fill="url(#SVGID_48_)" points="544.508,-40.435 456.238,46.558 259.764,240.192 
							610.836,64.518 						"/>
					</g>
				</g>
			</g>
		</g>
		<g>
			<g>
				<g>
					<g>
						<defs>
							<path id="SVGID_49_" d="M138.497,407.878c18.572,8.499,69.118,33.03,189.886,0.903
								c120.768-32.124,147.123-71.911,164.324-105.043c17.201-33.135,3.373-91.646-18.811-121.699
								c-22.184-30.052-58.494-88.249-142.373-110.273c-77.799-20.426-212.54,7.021-273.271,70.45
								c-60.734,63.432-70.666,99.781-8.426,178.279C102.273,386.639,112.572,396.013,138.497,407.878z"/>
						</defs>
						<clipPath id="SVGID_50_">
							<use xlink:href="#SVGID_49_"  overflow="visible"/>
						</clipPath>
						
							<linearGradient id="SVGID_51_" gradientUnits="userSpaceOnUse" x1="323.917" y1="-465.2573" x2="335.7086" y2="-864.6971" gradientTransform="matrix(0.1492 0.9888 -0.9888 0.1492 -242.7077 38.1728)">
							<stop  offset="0" style="stop-color:#CFCCC3"/>
							<stop  offset="0.9737" style="stop-color:#BAB6AE"/>
						</linearGradient>
						<polygon clip-path="url(#SVGID_50_)" fill="url(#SVGID_51_)" points="655.072,180.53 532.531,199.026 259.764,240.192 
							647.047,304.428 						"/>
					</g>
				</g>
			</g>
		</g>
		<g>
			<g>
				<g>
					<g>
						<defs>
							<path id="SVGID_52_" d="M138.497,407.878c18.572,8.499,69.118,33.03,189.886,0.903
								c120.768-32.124,147.123-71.911,164.324-105.043c17.201-33.135,3.373-91.646-18.811-121.699
								c-22.184-30.052-58.494-88.249-142.373-110.273c-77.799-20.426-212.54,7.021-273.271,70.45
								c-60.734,63.432-70.666,99.781-8.426,178.279C102.273,386.639,112.572,396.013,138.497,407.878z"/>
						</defs>
						<clipPath id="SVGID_53_">
							<use xlink:href="#SVGID_52_"  overflow="visible"/>
						</clipPath>
						
							<linearGradient id="SVGID_54_" gradientUnits="userSpaceOnUse" x1="1.7529" y1="-572.1963" x2="13.5438" y2="-971.621" gradientTransform="matrix(-0.4605 0.8877 -0.8877 -0.4605 -271.3127 18.1426)">
							<stop  offset="0" style="stop-color:#CFCCC3"/>
							<stop  offset="0.9737" style="stop-color:#BAB6AE"/>
						</linearGradient>
						<polygon clip-path="url(#SVGID_53_)" fill="url(#SVGID_54_)" points="614.643,424.285 504.635,367.218 259.764,240.192 
							535.326,519.799 						"/>
					</g>
				</g>
			</g>
		</g>
		<g>
			<g>
				<g>
					<g>
						<defs>
							<path id="SVGID_55_" d="M138.497,407.878c18.572,8.499,69.118,33.03,189.886,0.903
								c120.768-32.124,147.123-71.911,164.324-105.043c17.201-33.135,3.373-91.646-18.811-121.699
								c-22.184-30.052-58.494-88.249-142.373-110.273c-77.799-20.426-212.54,7.021-273.271,70.45
								c-60.734,63.432-70.666,99.781-8.426,178.279C102.273,386.639,112.572,396.013,138.497,407.878z"/>
						</defs>
						<clipPath id="SVGID_56_">
							<use xlink:href="#SVGID_55_"  overflow="visible"/>
						</clipPath>
						
							<linearGradient id="SVGID_57_" gradientUnits="userSpaceOnUse" x1="-321.3579" y1="-468.835" x2="-309.5667" y2="-868.2694" gradientTransform="matrix(-0.8943 0.4475 -0.4475 -0.8943 -282.0881 -14.5558)">
							<stop  offset="0" style="stop-color:#CFCCC3"/>
							<stop  offset="0.9737" style="stop-color:#BAB6AE"/>
						</linearGradient>
						<polygon clip-path="url(#SVGID_56_)" fill="url(#SVGID_57_)" points="438.658,597.721 383.201,486.891 259.764,240.192 
							318.344,628.371 						"/>
					</g>
				</g>
			</g>
		</g>
		<g>
			<g>
				<g>
					<g>
						<defs>
							<path id="SVGID_58_" d="M138.497,407.878c18.572,8.499,69.118,33.03,189.886,0.903
								c120.768-32.124,147.123-71.911,164.324-105.043c17.201-33.135,3.373-91.646-18.811-121.699
								c-22.184-30.052-58.494-88.249-142.373-110.273c-77.799-20.426-212.54,7.021-273.271,70.45
								c-60.734,63.432-70.666,99.781-8.426,178.279C102.273,386.639,112.572,396.013,138.497,407.878z"/>
						</defs>
						<clipPath id="SVGID_59_">
							<use xlink:href="#SVGID_58_"  overflow="visible"/>
						</clipPath>
						
							<linearGradient id="SVGID_60_" gradientUnits="userSpaceOnUse" x1="-522.2603" y1="-196.5605" x2="-510.4688" y2="-596.0027" gradientTransform="matrix(-0.9865 -0.1637 0.1637 -0.9865 -271.5466 -48.6914)">
							<stop  offset="0" style="stop-color:#CFCCC3"/>
							<stop  offset="0.9737" style="stop-color:#BAB6AE"/>
						</linearGradient>
						<polygon clip-path="url(#SVGID_59_)" fill="url(#SVGID_60_)" points="194.34,634.59 214.62,512.33 259.764,240.192 
							78.991,588.67 						"/>
					</g>
				</g>
			</g>
		</g>
	</g>
	<g>
		<g>
			<g>
				<g>
					<g>
						<defs>
							<path id="SVGID_61_" d="M195.142,328.025c9.468,4.334,35.236,16.84,96.803,0.461c61.562-16.377,75.004-36.659,83.771-53.551
								c8.771-16.896,1.72-46.724-9.589-62.042s-29.82-44.989-72.582-56.217c-39.662-10.413-108.35,3.579-139.312,35.916
								c-30.962,32.337-36.025,50.868-4.295,90.889C176.675,317.198,181.926,321.979,195.142,328.025z"/>
						</defs>
						<clipPath id="SVGID_62_">
							<use xlink:href="#SVGID_61_"  overflow="visible"/>
						</clipPath>
						
							<linearGradient id="SVGID_63_" gradientUnits="userSpaceOnUse" x1="-572.6792" y1="-30.7231" x2="-566.6679" y2="-234.3561" gradientTransform="matrix(-0.8875 -0.4608 0.4608 -0.8875 -259.0448 -60.8267)">
							<stop  offset="0.2299" style="stop-color:#B3AFA8"/>
							<stop  offset="0.9501" style="stop-color:#8B8481"/>
						</linearGradient>
						<polygon clip-path="url(#SVGID_62_)" fill="url(#SVGID_63_)" points="163.056,423.428 192.166,367.355 256.964,242.541 
							114.374,382.977 						"/>
					</g>
				</g>
			</g>
		</g>
		<g>
			<g>
				<g>
					<g>
						<defs>
							<path id="SVGID_64_" d="M195.142,328.025c9.468,4.334,35.236,16.84,96.803,0.461c61.562-16.377,75.004-36.659,83.771-53.551
								c8.771-16.896,1.72-46.724-9.589-62.042s-29.82-44.989-72.582-56.217c-39.662-10.413-108.35,3.579-139.312,35.916
								c-30.962,32.337-36.025,50.868-4.295,90.889C176.675,317.198,181.926,321.979,195.142,328.025z"/>
						</defs>
						<clipPath id="SVGID_65_">
							<use xlink:href="#SVGID_64_"  overflow="visible"/>
						</clipPath>
						
							<linearGradient id="SVGID_66_" gradientUnits="userSpaceOnUse" x1="-471.7915" y1="291.9238" x2="-465.7799" y2="88.2835" gradientTransform="matrix(-0.4472 -0.8944 0.8944 -0.4472 -225.6754 -71.6495)">
							<stop  offset="0.2299" style="stop-color:#B3AFA8"/>
							<stop  offset="0.9501" style="stop-color:#8B8481"/>
						</linearGradient>
						<polygon clip-path="url(#SVGID_65_)" fill="url(#SVGID_66_)" points="74.667,333.684 131.177,305.43 256.964,242.541 
							59.061,272.344 						"/>
					</g>
				</g>
			</g>
		</g>
		<g>
			<g>
				<g>
					<g>
						<defs>
							<path id="SVGID_67_" d="M195.142,328.025c9.468,4.334,35.236,16.84,96.803,0.461c61.562-16.377,75.004-36.659,83.771-53.551
								c8.771-16.896,1.72-46.724-9.589-62.042s-29.82-44.989-72.582-56.217c-39.662-10.413-108.35,3.579-139.312,35.916
								c-30.962,32.337-36.025,50.868-4.295,90.889C176.675,317.198,181.926,321.979,195.142,328.025z"/>
						</defs>
						<clipPath id="SVGID_68_">
							<use xlink:href="#SVGID_67_"  overflow="visible"/>
						</clipPath>
						
							<linearGradient id="SVGID_69_" gradientUnits="userSpaceOnUse" x1="-200.8721" y1="493.4326" x2="-194.861" y2="289.806" gradientTransform="matrix(0.164 -0.9865 0.9865 0.164 -192.0222 -61.156)">
							<stop  offset="0.2299" style="stop-color:#B3AFA8"/>
							<stop  offset="0.9501" style="stop-color:#8B8481"/>
						</linearGradient>
						<polygon clip-path="url(#SVGID_68_)" fill="url(#SVGID_69_)" points="55.91,209.125 118.235,219.482 256.964,242.541 
							79.339,150.327 						"/>
					</g>
				</g>
			</g>
		</g>
		<g>
			<g>
				<g>
					<g>
						<defs>
							<path id="SVGID_70_" d="M195.142,328.025c9.468,4.334,35.236,16.84,96.803,0.461c61.562-16.377,75.004-36.659,83.771-53.551
								c8.771-16.896,1.72-46.724-9.589-62.042s-29.82-44.989-72.582-56.217c-39.662-10.413-108.35,3.579-139.312,35.916
								c-30.962,32.337-36.025,50.868-4.295,90.889C176.675,317.198,181.926,321.979,195.142,328.025z"/>
						</defs>
						<clipPath id="SVGID_71_">
							<use xlink:href="#SVGID_70_"  overflow="visible"/>
						</clipPath>
						
							<linearGradient id="SVGID_72_" gradientUnits="userSpaceOnUse" x1="136.6133" y1="497.8652" x2="142.624" y2="294.2488" gradientTransform="matrix(0.7125 -0.7018 0.7018 0.7125 -171.3772 -33.3933)">
							<stop  offset="0.2299" style="stop-color:#B3AFA8"/>
							<stop  offset="0.9501" style="stop-color:#8B8481"/>
						</linearGradient>
						<polygon clip-path="url(#SVGID_71_)" fill="url(#SVGID_72_)" points="113.95,97.33 158.283,142.342 256.964,242.541 
							167.465,63.533 						"/>
					</g>
				</g>
			</g>
		</g>
		<g>
			<g>
				<g>
					<g>
						<defs>
							<path id="SVGID_73_" d="M195.142,328.025c9.468,4.334,35.236,16.84,96.803,0.461c61.562-16.377,75.004-36.659,83.771-53.551
								c8.771-16.896,1.72-46.724-9.589-62.042s-29.82-44.989-72.582-56.217c-39.662-10.413-108.35,3.579-139.312,35.916
								c-30.962,32.337-36.025,50.868-4.295,90.889C176.675,317.198,181.926,321.979,195.142,328.025z"/>
						</defs>
						<clipPath id="SVGID_74_">
							<use xlink:href="#SVGID_73_"  overflow="visible"/>
						</clipPath>
						
							<linearGradient id="SVGID_75_" gradientUnits="userSpaceOnUse" x1="412.8945" y1="302.7139" x2="418.9062" y2="99.0682" gradientTransform="matrix(0.9888 -0.1489 0.1489 0.9888 -171.4639 1.6948)">
							<stop  offset="0.2299" style="stop-color:#B3AFA8"/>
							<stop  offset="0.9501" style="stop-color:#8B8481"/>
						</linearGradient>
						<polygon clip-path="url(#SVGID_74_)" fill="url(#SVGID_75_)" points="226.616,41.001 236.023,103.477 256.964,242.541 
							289.777,45.115 						"/>
					</g>
				</g>
			</g>
		</g>
		<g>
			<g>
				<g>
					<g>
						<defs>
							<path id="SVGID_76_" d="M195.142,328.025c9.468,4.334,35.236,16.84,96.803,0.461c61.562-16.377,75.004-36.659,83.771-53.551
								c8.771-16.896,1.72-46.724-9.589-62.042s-29.82-44.989-72.582-56.217c-39.662-10.413-108.35,3.579-139.312,35.916
								c-30.962,32.337-36.025,50.868-4.295,90.889C176.675,317.198,181.926,321.979,195.142,328.025z"/>
						</defs>
						<clipPath id="SVGID_77_">
							<use xlink:href="#SVGID_76_"  overflow="visible"/>
						</clipPath>
						
							<linearGradient id="SVGID_78_" gradientUnits="userSpaceOnUse" x1="521.1689" y1="-17.8389" x2="527.1804" y2="-221.4733" gradientTransform="matrix(0.8875 0.4608 -0.4608 0.8875 -191.88 30.4293)">
							<stop  offset="0.2299" style="stop-color:#B3AFA8"/>
							<stop  offset="0.9501" style="stop-color:#8B8481"/>
						</linearGradient>
						<polygon clip-path="url(#SVGID_77_)" fill="url(#SVGID_78_)" points="350.875,61.655 321.764,117.728 256.964,242.541 
							399.555,102.108 						"/>
					</g>
				</g>
			</g>
		</g>
		<g>
			<g>
				<g>
					<g>
						<defs>
							<path id="SVGID_79_" d="M195.142,328.025c9.468,4.334,35.236,16.84,96.803,0.461c61.562-16.377,75.004-36.659,83.771-53.551
								c8.771-16.896,1.72-46.724-9.589-62.042s-29.82-44.989-72.582-56.217c-39.662-10.413-108.35,3.579-139.312,35.916
								c-30.962,32.337-36.025,50.868-4.295,90.889C176.675,317.198,181.926,321.979,195.142,328.025z"/>
						</defs>
						<clipPath id="SVGID_80_">
							<use xlink:href="#SVGID_79_"  overflow="visible"/>
						</clipPath>
						
							<linearGradient id="SVGID_81_" gradientUnits="userSpaceOnUse" x1="420.6436" y1="-340.6279" x2="426.6553" y2="-544.2692" gradientTransform="matrix(0.4472 0.8944 -0.8944 0.4472 -225.248 41.4181)">
							<stop  offset="0.2299" style="stop-color:#B3AFA8"/>
							<stop  offset="0.9501" style="stop-color:#8B8481"/>
						</linearGradient>
						<polygon clip-path="url(#SVGID_80_)" fill="url(#SVGID_81_)" points="439.263,151.401 382.75,179.654 256.964,242.541 
							454.866,212.742 						"/>
					</g>
				</g>
			</g>
		</g>
		<g>
			<g>
				<g>
					<g>
						<defs>
							<path id="SVGID_82_" d="M195.142,328.025c9.468,4.334,35.236,16.84,96.803,0.461c61.562-16.377,75.004-36.659,83.771-53.551
								c8.771-16.896,1.72-46.724-9.589-62.042s-29.82-44.989-72.582-56.217c-39.662-10.413-108.35,3.579-139.312,35.916
								c-30.962,32.337-36.025,50.868-4.295,90.889C176.675,317.198,181.926,321.979,195.142,328.025z"/>
						</defs>
						<clipPath id="SVGID_83_">
							<use xlink:href="#SVGID_82_"  overflow="visible"/>
						</clipPath>
						
							<linearGradient id="SVGID_84_" gradientUnits="userSpaceOnUse" x1="149.0835" y1="-542.9033" x2="155.0944" y2="-746.5266" gradientTransform="matrix(-0.164 0.9865 -0.9865 -0.164 -259.0022 31.052)">
							<stop  offset="0.2299" style="stop-color:#B3AFA8"/>
							<stop  offset="0.9501" style="stop-color:#8B8481"/>
						</linearGradient>
						<polygon clip-path="url(#SVGID_83_)" fill="url(#SVGID_84_)" points="458.015,275.96 395.689,265.602 256.964,242.541 
							434.586,334.758 						"/>
					</g>
				</g>
			</g>
		</g>
		<g>
			<g>
				<g>
					<g>
						<defs>
							<path id="SVGID_85_" d="M195.142,328.025c9.468,4.334,35.236,16.84,96.803,0.461c61.562-16.377,75.004-36.659,83.771-53.551
								c8.771-16.896,1.72-46.724-9.589-62.042s-29.82-44.989-72.582-56.217c-39.662-10.413-108.35,3.579-139.312,35.916
								c-30.962,32.337-36.025,50.868-4.295,90.889C176.675,317.198,181.926,321.979,195.142,328.025z"/>
						</defs>
						<clipPath id="SVGID_86_">
							<use xlink:href="#SVGID_85_"  overflow="visible"/>
						</clipPath>
						
							<linearGradient id="SVGID_87_" gradientUnits="userSpaceOnUse" x1="-187.9878" y1="-546.8408" x2="-181.9762" y2="-750.4845" gradientTransform="matrix(-0.7125 0.7016 -0.7016 -0.7125 -279.0242 1.8738)">
							<stop  offset="0.2299" style="stop-color:#B3AFA8"/>
							<stop  offset="0.9501" style="stop-color:#8B8481"/>
						</linearGradient>
						<polygon clip-path="url(#SVGID_86_)" fill="url(#SVGID_87_)" points="399.974,387.756 355.643,342.739 256.964,242.541 
							346.455,421.55 						"/>
					</g>
				</g>
			</g>
		</g>
		<g>
			<g>
				<g>
					<g>
						<defs>
							<path id="SVGID_88_" d="M195.142,328.025c9.468,4.334,35.236,16.84,96.803,0.461c61.562-16.377,75.004-36.659,83.771-53.551
								c8.771-16.896,1.72-46.724-9.589-62.042s-29.82-44.989-72.582-56.217c-39.662-10.413-108.35,3.579-139.312,35.916
								c-30.962,32.337-36.025,50.868-4.295,90.889C176.675,317.198,181.926,321.979,195.142,328.025z"/>
						</defs>
						<clipPath id="SVGID_89_">
							<use xlink:href="#SVGID_88_"  overflow="visible"/>
						</clipPath>
						
							<linearGradient id="SVGID_90_" gradientUnits="userSpaceOnUse" x1="-464.9307" y1="-350.4966" x2="-458.9191" y2="-554.1412" gradientTransform="matrix(-0.9888 0.1489 -0.1489 -0.9888 -279.8691 -31.7973)">
							<stop  offset="0.2299" style="stop-color:#B3AFA8"/>
							<stop  offset="0.9501" style="stop-color:#8B8481"/>
						</linearGradient>
						<polygon clip-path="url(#SVGID_89_)" fill="url(#SVGID_90_)" points="287.307,444.081 277.898,381.605 256.964,242.541 
							224.146,439.966 						"/>
					</g>
				</g>
			</g>
		</g>
		<g>
			<g>
				<g>
					<g>
						<defs>
							<path id="SVGID_91_" d="M195.142,328.025c9.468,4.334,35.236,16.84,96.803,0.461c61.562-16.377,75.004-36.659,83.771-53.551
								c8.771-16.896,1.72-46.724-9.589-62.042s-29.82-44.989-72.582-56.217c-39.662-10.413-108.35,3.579-139.312,35.916
								c-30.962,32.337-36.025,50.868-4.295,90.889C176.675,317.198,181.926,321.979,195.142,328.025z"/>
						</defs>
						<clipPath id="SVGID_92_">
							<use xlink:href="#SVGID_91_"  overflow="visible"/>
						</clipPath>
						
							<linearGradient id="SVGID_93_" gradientUnits="userSpaceOnUse" x1="-548.1865" y1="138.0645" x2="-542.1757" y2="-65.5514" gradientTransform="matrix(-0.702 -0.7123 0.7123 -0.702 -243.2824 -69.3908)">
							<stop  offset="0" style="stop-color:#CFCCC3"/>
							<stop  offset="0.9737" style="stop-color:#BAB6AE"/>
						</linearGradient>
						<polygon clip-path="url(#SVGID_92_)" fill="url(#SVGID_93_)" points="111.805,385.607 156.802,341.258 256.964,242.541 
							77.987,332.104 						"/>
					</g>
				</g>
			</g>
		</g>
		<g>
			<g>
				<g>
					<g>
						<defs>
							<path id="SVGID_94_" d="M195.142,328.025c9.468,4.334,35.236,16.84,96.803,0.461c61.562-16.377,75.004-36.659,83.771-53.551
								c8.771-16.896,1.72-46.724-9.589-62.042s-29.82-44.989-72.582-56.217c-39.662-10.413-108.35,3.579-139.312,35.916
								c-30.962,32.337-36.025,50.868-4.295,90.889C176.675,317.198,181.926,321.979,195.142,328.025z"/>
						</defs>
						<clipPath id="SVGID_95_">
							<use xlink:href="#SVGID_94_"  overflow="visible"/>
						</clipPath>
						
							<linearGradient id="SVGID_96_" gradientUnits="userSpaceOnUse" x1="-352.8848" y1="414.5332" x2="-346.8735" y2="210.9002" gradientTransform="matrix(-0.1493 -0.9888 0.9888 -0.1493 -208.626 -69.4237)">
							<stop  offset="0" style="stop-color:#CFCCC3"/>
							<stop  offset="0.9737" style="stop-color:#BAB6AE"/>
						</linearGradient>
						<polygon clip-path="url(#SVGID_95_)" fill="url(#SVGID_96_)" points="55.435,272.961 117.907,263.531 256.964,242.541 
							59.525,209.798 						"/>
					</g>
				</g>
			</g>
		</g>
		<g>
			<g>
				<g>
					<g>
						<defs>
							<path id="SVGID_97_" d="M195.142,328.025c9.468,4.334,35.236,16.84,96.803,0.461c61.562-16.377,75.004-36.659,83.771-53.551
								c8.771-16.896,1.72-46.724-9.589-62.042s-29.82-44.989-72.582-56.217c-39.662-10.413-108.35,3.579-139.312,35.916
								c-30.962,32.337-36.025,50.868-4.295,90.889C176.675,317.198,181.926,321.979,195.142,328.025z"/>
						</defs>
						<clipPath id="SVGID_98_">
							<use xlink:href="#SVGID_97_"  overflow="visible"/>
						</clipPath>
						
							<linearGradient id="SVGID_99_" gradientUnits="userSpaceOnUse" x1="-31.896" y1="522.292" x2="-25.8849" y2="318.6653" gradientTransform="matrix(0.4605 -0.8877 0.8877 0.4605 -179.783 -48.207)">
							<stop  offset="0" style="stop-color:#CFCCC3"/>
							<stop  offset="0.9737" style="stop-color:#BAB6AE"/>
						</linearGradient>
						<polygon clip-path="url(#SVGID_98_)" fill="url(#SVGID_99_)" points="76.044,148.695 132.127,177.786 256.964,242.541 
							116.479,100 						"/>
					</g>
				</g>
			</g>
		</g>
		<g>
			<g>
				<g>
					<g>
						<defs>
							<path id="SVGID_100_" d="M195.142,328.025c9.468,4.334,35.236,16.84,96.803,0.461c61.562-16.377,75.004-36.659,83.771-53.551
								c8.771-16.896,1.72-46.724-9.589-62.042s-29.82-44.989-72.582-56.217c-39.662-10.413-108.35,3.579-139.312,35.916
								c-30.962,32.337-36.025,50.868-4.295,90.889C176.675,317.198,181.926,321.979,195.142,328.025z"/>
						</defs>
						<clipPath id="SVGID_101_">
							<use xlink:href="#SVGID_100_"  overflow="visible"/>
						</clipPath>
						
							<linearGradient id="SVGID_102_" gradientUnits="userSpaceOnUse" x1="290.6846" y1="422.1973" x2="296.6958" y2="218.5653" gradientTransform="matrix(0.8943 -0.4475 0.4475 0.8943 -169.1677 -15.5101)">
							<stop  offset="0" style="stop-color:#CFCCC3"/>
							<stop  offset="0.9737" style="stop-color:#BAB6AE"/>
						</linearGradient>
						<polygon clip-path="url(#SVGID_101_)" fill="url(#SVGID_102_)" points="165.758,60.275 194.031,116.776 256.964,242.541 
							227.093,44.647 						"/>
					</g>
				</g>
			</g>
		</g>
		<g>
			<g>
				<g>
					<g>
						<defs>
							<path id="SVGID_103_" d="M195.142,328.025c9.468,4.334,35.236,16.84,96.803,0.461c61.562-16.377,75.004-36.659,83.771-53.551
								c8.771-16.896,1.72-46.724-9.589-62.042s-29.82-44.989-72.582-56.217c-39.662-10.413-108.35,3.579-139.312,35.916
								c-30.962,32.337-36.025,50.868-4.295,90.889C176.675,317.198,181.926,321.979,195.142,328.025z"/>
						</defs>
						<clipPath id="SVGID_104_">
							<use xlink:href="#SVGID_103_"  overflow="visible"/>
						</clipPath>
						
							<linearGradient id="SVGID_105_" gradientUnits="userSpaceOnUse" x1="492.6621" y1="150.2256" x2="498.6734" y2="-53.4103" gradientTransform="matrix(0.9865 0.1637 -0.1637 0.9865 -179.8494 18.5283)">
							<stop  offset="0" style="stop-color:#CFCCC3"/>
							<stop  offset="0.9737" style="stop-color:#BAB6AE"/>
						</linearGradient>
						<polygon clip-path="url(#SVGID_104_)" fill="url(#SVGID_105_)" points="290.311,41.476 279.975,103.804 256.964,242.541 
							349.117,64.885 						"/>
					</g>
				</g>
			</g>
		</g>
		<g>
			<g>
				<g>
					<g>
						<defs>
							<path id="SVGID_106_" d="M195.142,328.025c9.468,4.334,35.236,16.84,96.803,0.461c61.562-16.377,75.004-36.659,83.771-53.551
								c8.771-16.896,1.72-46.724-9.589-62.042s-29.82-44.989-72.582-56.217c-39.662-10.413-108.35,3.579-139.312,35.916
								c-30.962,32.337-36.025,50.868-4.295,90.889C176.675,317.198,181.926,321.979,195.142,328.025z"/>
						</defs>
						<clipPath id="SVGID_107_">
							<use xlink:href="#SVGID_106_"  overflow="visible"/>
						</clipPath>
						
							<linearGradient id="SVGID_108_" gradientUnits="userSpaceOnUse" x1="496.0742" y1="-187.3267" x2="502.085" y2="-390.9435" gradientTransform="matrix(0.702 0.7123 -0.7123 0.702 -207.6346 39.0744)">
							<stop  offset="0" style="stop-color:#CFCCC3"/>
							<stop  offset="0.9737" style="stop-color:#BAB6AE"/>
						</linearGradient>
						<polygon clip-path="url(#SVGID_107_)" fill="url(#SVGID_108_)" points="402.126,99.477 357.126,143.826 256.964,242.541 
							435.94,152.982 						"/>
					</g>
				</g>
			</g>
		</g>
		<g>
			<g>
				<g>
					<g>
						<defs>
							<path id="SVGID_109_" d="M195.142,328.025c9.468,4.334,35.236,16.84,96.803,0.461c61.562-16.377,75.004-36.659,83.771-53.551
								c8.771-16.896,1.72-46.724-9.589-62.042s-29.82-44.989-72.582-56.217c-39.662-10.413-108.35,3.579-139.312,35.916
								c-30.962,32.337-36.025,50.868-4.295,90.889C176.675,317.198,181.926,321.979,195.142,328.025z"/>
						</defs>
						<clipPath id="SVGID_110_">
							<use xlink:href="#SVGID_109_"  overflow="visible"/>
						</clipPath>
						
							<linearGradient id="SVGID_111_" gradientUnits="userSpaceOnUse" x1="301.7109" y1="-462.8496" x2="307.7222" y2="-666.4836" gradientTransform="matrix(0.1492 0.9888 -0.9888 0.1492 -242.7077 38.1728)">
							<stop  offset="0" style="stop-color:#CFCCC3"/>
							<stop  offset="0.9737" style="stop-color:#BAB6AE"/>
						</linearGradient>
						<polygon clip-path="url(#SVGID_110_)" fill="url(#SVGID_111_)" points="458.491,212.125 396.021,221.554 256.964,242.541 
							454.4,275.288 						"/>
					</g>
				</g>
			</g>
		</g>
		<g>
			<g>
				<g>
					<g>
						<defs>
							<path id="SVGID_112_" d="M195.142,328.025c9.468,4.334,35.236,16.84,96.803,0.461c61.562-16.377,75.004-36.659,83.771-53.551
								c8.771-16.896,1.72-46.724-9.589-62.042s-29.82-44.989-72.582-56.217c-39.662-10.413-108.35,3.579-139.312,35.916
								c-30.962,32.337-36.025,50.868-4.295,90.889C176.675,317.198,181.926,321.979,195.142,328.025z"/>
						</defs>
						<clipPath id="SVGID_113_">
							<use xlink:href="#SVGID_112_"  overflow="visible"/>
						</clipPath>
						
							<linearGradient id="SVGID_114_" gradientUnits="userSpaceOnUse" x1="-18.9907" y1="-571.5044" x2="-12.9797" y2="-775.1306" gradientTransform="matrix(-0.4605 0.8877 -0.8877 -0.4605 -271.3127 18.1426)">
							<stop  offset="0" style="stop-color:#CFCCC3"/>
							<stop  offset="0.9737" style="stop-color:#BAB6AE"/>
						</linearGradient>
						<polygon clip-path="url(#SVGID_113_)" fill="url(#SVGID_114_)" points="437.881,336.391 381.799,307.298 256.964,242.541 
							397.445,385.084 						"/>
					</g>
				</g>
			</g>
		</g>
		<g>
			<g>
				<g>
					<g>
						<defs>
							<path id="SVGID_115_" d="M195.142,328.025c9.468,4.334,35.236,16.84,96.803,0.461c61.562-16.377,75.004-36.659,83.771-53.551
								c8.771-16.896,1.72-46.724-9.589-62.042s-29.82-44.989-72.582-56.217c-39.662-10.413-108.35,3.579-139.312,35.916
								c-30.962,32.337-36.025,50.868-4.295,90.889C176.675,317.198,181.926,321.979,195.142,328.025z"/>
						</defs>
						<clipPath id="SVGID_116_">
							<use xlink:href="#SVGID_115_"  overflow="visible"/>
						</clipPath>
						
							<linearGradient id="SVGID_117_" gradientUnits="userSpaceOnUse" x1="-341.9263" y1="-470.3936" x2="-335.9152" y2="-674.0236" gradientTransform="matrix(-0.8943 0.4475 -0.4475 -0.8943 -282.0881 -14.5558)">
							<stop  offset="0" style="stop-color:#CFCCC3"/>
							<stop  offset="0.9737" style="stop-color:#BAB6AE"/>
						</linearGradient>
						<polygon clip-path="url(#SVGID_116_)" fill="url(#SVGID_117_)" points="348.164,424.808 319.893,368.307 256.964,242.541 
							286.828,440.434 						"/>
					</g>
				</g>
			</g>
		</g>
		<g>
			<g>
				<g>
					<g>
						<defs>
							<path id="SVGID_118_" d="M195.142,328.025c9.468,4.334,35.236,16.84,96.803,0.461c61.562-16.377,75.004-36.659,83.771-53.551
								c8.771-16.896,1.72-46.724-9.589-62.042s-29.82-44.989-72.582-56.217c-39.662-10.413-108.35,3.579-139.312,35.916
								c-30.962,32.337-36.025,50.868-4.295,90.889C176.675,317.198,181.926,321.979,195.142,328.025z"/>
						</defs>
						<clipPath id="SVGID_119_">
							<use xlink:href="#SVGID_118_"  overflow="visible"/>
						</clipPath>
						
							<linearGradient id="SVGID_120_" gradientUnits="userSpaceOnUse" x1="-543.9893" y1="-200.0479" x2="-537.9781" y2="-403.6828" gradientTransform="matrix(-0.9865 -0.1637 0.1637 -0.9865 -271.5466 -48.6914)">
							<stop  offset="0" style="stop-color:#CFCCC3"/>
							<stop  offset="0.9737" style="stop-color:#BAB6AE"/>
						</linearGradient>
						<polygon clip-path="url(#SVGID_119_)" fill="url(#SVGID_120_)" points="223.611,443.604 233.95,381.275 256.964,242.541 
							164.806,420.194 						"/>
					</g>
				</g>
			</g>
		</g>
	</g>
	<g opacity="0.33" enable-background="new    ">
		<g>
			<g>
				<g>
					<g>
						<defs>
							<path id="SVGID_121_" d="M227.147,282.909c4.324,1.979,16.093,7.69,44.21,0.21c28.117-7.479,34.256-16.742,38.261-24.456
								c4.005-7.715,0.784-21.338-4.38-28.335s-13.619-20.547-33.148-25.674c-18.114-4.756-49.484,1.634-63.625,16.402
								c-14.141,14.769-16.453,23.232-1.962,41.508C218.714,277.964,221.112,280.146,227.147,282.909z"/>
						</defs>
						<clipPath id="SVGID_122_">
							<use xlink:href="#SVGID_121_"  overflow="visible"/>
						</clipPath>
						
							<linearGradient id="SVGID_123_" gradientUnits="userSpaceOnUse" x1="-585.5093" y1="-33.0312" x2="-582.7639" y2="-126.0318" gradientTransform="matrix(-0.8875 -0.4608 0.4608 -0.8875 -259.0448 -60.8267)">
							<stop  offset="0.2299" style="stop-color:#B3AFA8"/>
							<stop  offset="0.9501" style="stop-color:#8B8481"/>
						</linearGradient>
						<polygon clip-path="url(#SVGID_122_)" fill="url(#SVGID_123_)" points="212.494,326.479 225.788,300.871 255.382,243.867 
							190.26,308.006 						"/>
					</g>
				</g>
			</g>
		</g>
		<g>
			<g>
				<g>
					<g>
						<defs>
							<path id="SVGID_124_" d="M227.147,282.909c4.324,1.979,16.093,7.69,44.21,0.21c28.117-7.479,34.256-16.742,38.261-24.456
								c4.005-7.715,0.784-21.338-4.38-28.335s-13.619-20.547-33.148-25.674c-18.114-4.756-49.484,1.634-63.625,16.402
								c-14.141,14.769-16.453,23.232-1.962,41.508C218.714,277.964,221.112,280.146,227.147,282.909z"/>
						</defs>
						<clipPath id="SVGID_125_">
							<use xlink:href="#SVGID_124_"  overflow="visible"/>
						</clipPath>
						
							<linearGradient id="SVGID_126_" gradientUnits="userSpaceOnUse" x1="-485.8975" y1="289.5146" x2="-483.1518" y2="196.5112" gradientTransform="matrix(-0.4472 -0.8944 0.8944 -0.4472 -225.6754 -71.6495)">
							<stop  offset="0.2299" style="stop-color:#B3AFA8"/>
							<stop  offset="0.9501" style="stop-color:#8B8481"/>
						</linearGradient>
						<polygon clip-path="url(#SVGID_125_)" fill="url(#SVGID_126_)" points="172.126,285.492 197.935,272.59 255.382,243.867 
							164.998,257.479 						"/>
					</g>
				</g>
			</g>
		</g>
		<g>
			<g>
				<g>
					<g>
						<defs>
							<path id="SVGID_127_" d="M227.147,282.909c4.324,1.979,16.093,7.69,44.21,0.21c28.117-7.479,34.256-16.742,38.261-24.456
								c4.005-7.715,0.784-21.338-4.38-28.335s-13.619-20.547-33.148-25.674c-18.114-4.756-49.484,1.634-63.625,16.402
								c-14.141,14.769-16.453,23.232-1.962,41.508C218.714,277.964,221.112,280.146,227.147,282.909z"/>
						</defs>
						<clipPath id="SVGID_128_">
							<use xlink:href="#SVGID_127_"  overflow="visible"/>
						</clipPath>
						
							<linearGradient id="SVGID_129_" gradientUnits="userSpaceOnUse" x1="-216.062" y1="491.6875" x2="-213.3167" y2="398.6899" gradientTransform="matrix(0.164 -0.9865 0.9865 0.164 -192.0222 -61.156)">
							<stop  offset="0.2299" style="stop-color:#B3AFA8"/>
							<stop  offset="0.9501" style="stop-color:#8B8481"/>
						</linearGradient>
						<polygon clip-path="url(#SVGID_128_)" fill="url(#SVGID_129_)" points="163.559,228.606 192.023,233.336 255.382,243.867 
							174.26,201.752 						"/>
					</g>
				</g>
			</g>
		</g>
		<g>
			<g>
				<g>
					<g>
						<defs>
							<path id="SVGID_130_" d="M227.147,282.909c4.324,1.979,16.093,7.69,44.21,0.21c28.117-7.479,34.256-16.742,38.261-24.456
								c4.005-7.715,0.784-21.338-4.38-28.335s-13.619-20.547-33.148-25.674c-18.114-4.756-49.484,1.634-63.625,16.402
								c-14.141,14.769-16.453,23.232-1.962,41.508C218.714,277.964,221.112,280.146,227.147,282.909z"/>
						</defs>
						<clipPath id="SVGID_131_">
							<use xlink:href="#SVGID_130_"  overflow="visible"/>
						</clipPath>
						
							<linearGradient id="SVGID_132_" gradientUnits="userSpaceOnUse" x1="120.9224" y1="497.2979" x2="123.6676" y2="404.3042" gradientTransform="matrix(0.7125 -0.7018 0.7018 0.7125 -171.3772 -33.3933)">
							<stop  offset="0.2299" style="stop-color:#B3AFA8"/>
							<stop  offset="0.9501" style="stop-color:#8B8481"/>
						</linearGradient>
						<polygon clip-path="url(#SVGID_131_)" fill="url(#SVGID_132_)" points="190.066,177.548 210.313,198.106 255.382,243.867 
							214.507,162.113 						"/>
					</g>
				</g>
			</g>
		</g>
		<g>
			<g>
				<g>
					<g>
						<defs>
							<path id="SVGID_133_" d="M227.147,282.909c4.324,1.979,16.093,7.69,44.21,0.21c28.117-7.479,34.256-16.742,38.261-24.456
								c4.005-7.715,0.784-21.338-4.38-28.335s-13.619-20.547-33.148-25.674c-18.114-4.756-49.484,1.634-63.625,16.402
								c-14.141,14.769-16.453,23.232-1.962,41.508C218.714,277.964,221.112,280.146,227.147,282.909z"/>
						</defs>
						<clipPath id="SVGID_134_">
							<use xlink:href="#SVGID_133_"  overflow="visible"/>
						</clipPath>
						
							<linearGradient id="SVGID_135_" gradientUnits="userSpaceOnUse" x1="397.5029" y1="303.3877" x2="400.2485" y2="210.3813" gradientTransform="matrix(0.9888 -0.1489 0.1489 0.9888 -171.4639 1.6948)">
							<stop  offset="0.2299" style="stop-color:#B3AFA8"/>
							<stop  offset="0.9501" style="stop-color:#8B8481"/>
						</linearGradient>
						<polygon clip-path="url(#SVGID_134_)" fill="url(#SVGID_135_)" points="241.522,151.823 245.818,180.356 255.382,243.867 
							270.368,153.702 						"/>
					</g>
				</g>
			</g>
		</g>
		<g>
			<g>
				<g>
					<g>
						<defs>
							<path id="SVGID_136_" d="M227.147,282.909c4.324,1.979,16.093,7.69,44.21,0.21c28.117-7.479,34.256-16.742,38.261-24.456
								c4.005-7.715,0.784-21.338-4.38-28.335s-13.619-20.547-33.148-25.674c-18.114-4.756-49.484,1.634-63.625,16.402
								c-14.141,14.769-16.453,23.232-1.962,41.508C218.714,277.964,221.112,280.146,227.147,282.909z"/>
						</defs>
						<clipPath id="SVGID_137_">
							<use xlink:href="#SVGID_136_"  overflow="visible"/>
						</clipPath>
						
							<linearGradient id="SVGID_138_" gradientUnits="userSpaceOnUse" x1="506.7529" y1="-16.335" x2="509.4983" y2="-109.3355" gradientTransform="matrix(0.8875 0.4608 -0.4608 0.8875 -191.88 30.4293)">
							<stop  offset="0.2299" style="stop-color:#B3AFA8"/>
							<stop  offset="0.9501" style="stop-color:#8B8481"/>
						</linearGradient>
						<polygon clip-path="url(#SVGID_137_)" fill="url(#SVGID_138_)" points="298.271,161.256 284.977,186.865 255.382,243.867 
							320.504,179.731 						"/>
					</g>
				</g>
			</g>
		</g>
		<g>
			<g>
				<g>
					<g>
						<defs>
							<path id="SVGID_139_" d="M227.147,282.909c4.324,1.979,16.093,7.69,44.21,0.21c28.117-7.479,34.256-16.742,38.261-24.456
								c4.005-7.715,0.784-21.338-4.38-28.335s-13.619-20.547-33.148-25.674c-18.114-4.756-49.484,1.634-63.625,16.402
								c-14.141,14.769-16.453,23.232-1.962,41.508C218.714,277.964,221.112,280.146,227.147,282.909z"/>
						</defs>
						<clipPath id="SVGID_140_">
							<use xlink:href="#SVGID_139_"  overflow="visible"/>
						</clipPath>
						
							<linearGradient id="SVGID_141_" gradientUnits="userSpaceOnUse" x1="407.4912" y1="-339.0225" x2="410.2365" y2="-432.0259" gradientTransform="matrix(0.4472 0.8944 -0.8944 0.4472 -225.248 41.4181)">
							<stop  offset="0.2299" style="stop-color:#B3AFA8"/>
							<stop  offset="0.9501" style="stop-color:#8B8481"/>
						</linearGradient>
						<polygon clip-path="url(#SVGID_140_)" fill="url(#SVGID_141_)" points="338.639,202.243 312.829,215.146 255.382,243.867 
							345.766,230.258 						"/>
					</g>
				</g>
			</g>
		</g>
		<g>
			<g>
				<g>
					<g>
						<defs>
							<path id="SVGID_142_" d="M227.147,282.909c4.324,1.979,16.093,7.69,44.21,0.21c28.117-7.479,34.256-16.742,38.261-24.456
								c4.005-7.715,0.784-21.338-4.38-28.335s-13.619-20.547-33.148-25.674c-18.114-4.756-49.484,1.634-63.625,16.402
								c-14.141,14.769-16.453,23.232-1.962,41.508C218.714,277.964,221.112,280.146,227.147,282.909z"/>
						</defs>
						<clipPath id="SVGID_143_">
							<use xlink:href="#SVGID_142_"  overflow="visible"/>
						</clipPath>
						
							<linearGradient id="SVGID_144_" gradientUnits="userSpaceOnUse" x1="137.0264" y1="-541.9614" x2="139.7717" y2="-634.958" gradientTransform="matrix(-0.164 0.9865 -0.9865 -0.164 -259.0022 31.052)">
							<stop  offset="0.2299" style="stop-color:#B3AFA8"/>
							<stop  offset="0.9501" style="stop-color:#8B8481"/>
						</linearGradient>
						<polygon clip-path="url(#SVGID_143_)" fill="url(#SVGID_144_)" points="347.203,259.13 318.739,254.399 255.382,243.867 
							336.503,285.982 						"/>
					</g>
				</g>
			</g>
		</g>
		<g>
			<g>
				<g>
					<g>
						<defs>
							<path id="SVGID_145_" d="M227.147,282.909c4.324,1.979,16.093,7.69,44.21,0.21c28.117-7.479,34.256-16.742,38.261-24.456
								c4.005-7.715,0.784-21.338-4.38-28.335s-13.619-20.547-33.148-25.674c-18.114-4.756-49.484,1.634-63.625,16.402
								c-14.141,14.769-16.453,23.232-1.962,41.508C218.714,277.964,221.112,280.146,227.147,282.909z"/>
						</defs>
						<clipPath id="SVGID_146_">
							<use xlink:href="#SVGID_145_"  overflow="visible"/>
						</clipPath>
						
							<linearGradient id="SVGID_147_" gradientUnits="userSpaceOnUse" x1="-199.5518" y1="-547.0757" x2="-196.8063" y2="-640.082" gradientTransform="matrix(-0.7125 0.7016 -0.7016 -0.7125 -279.0242 1.8738)">
							<stop  offset="0.2299" style="stop-color:#B3AFA8"/>
							<stop  offset="0.9501" style="stop-color:#8B8481"/>
						</linearGradient>
						<polygon clip-path="url(#SVGID_146_)" fill="url(#SVGID_147_)" points="320.695,310.188 300.449,289.629 255.382,243.867 
							296.253,325.622 						"/>
					</g>
				</g>
			</g>
		</g>
		<g>
			<g>
				<g>
					<g>
						<defs>
							<path id="SVGID_148_" d="M227.147,282.909c4.324,1.979,16.093,7.69,44.21,0.21c28.117-7.479,34.256-16.742,38.261-24.456
								c4.005-7.715,0.784-21.338-4.38-28.335s-13.619-20.547-33.148-25.674c-18.114-4.756-49.484,1.634-63.625,16.402
								c-14.141,14.769-16.453,23.232-1.962,41.508C218.714,277.964,221.112,280.146,227.147,282.909z"/>
						</defs>
						<clipPath id="SVGID_149_">
							<use xlink:href="#SVGID_148_"  overflow="visible"/>
						</clipPath>
						
							<linearGradient id="SVGID_150_" gradientUnits="userSpaceOnUse" x1="-476.8008" y1="-351.9741" x2="-474.0551" y2="-444.9795" gradientTransform="matrix(-0.9888 0.1489 -0.1489 -0.9888 -279.8691 -31.7973)">
							<stop  offset="0.2299" style="stop-color:#B3AFA8"/>
							<stop  offset="0.9501" style="stop-color:#8B8481"/>
						</linearGradient>
						<polygon clip-path="url(#SVGID_149_)" fill="url(#SVGID_150_)" points="269.239,335.912 264.943,307.379 255.382,243.867 
							240.394,334.032 						"/>
					</g>
				</g>
			</g>
		</g>
		<g>
			<g>
				<g>
					<g>
						<defs>
							<path id="SVGID_151_" d="M227.147,282.909c4.324,1.979,16.093,7.69,44.21,0.21c28.117-7.479,34.256-16.742,38.261-24.456
								c4.005-7.715,0.784-21.338-4.38-28.335s-13.619-20.547-33.148-25.674c-18.114-4.756-49.484,1.634-63.625,16.402
								c-14.141,14.769-16.453,23.232-1.962,41.508C218.714,277.964,221.112,280.146,227.147,282.909z"/>
						</defs>
						<clipPath id="SVGID_152_">
							<use xlink:href="#SVGID_151_"  overflow="visible"/>
						</clipPath>
						
							<linearGradient id="SVGID_153_" gradientUnits="userSpaceOnUse" x1="-561.6445" y1="135.6055" x2="-558.8994" y2="42.6128" gradientTransform="matrix(-0.702 -0.7123 0.7123 -0.702 -243.2824 -69.3908)">
							<stop  offset="0" style="stop-color:#CFCCC3"/>
							<stop  offset="0.9737" style="stop-color:#BAB6AE"/>
						</linearGradient>
						<polygon clip-path="url(#SVGID_152_)" fill="url(#SVGID_153_)" points="189.087,309.207 209.637,288.952 255.382,243.867 
							173.642,284.771 						"/>
					</g>
				</g>
			</g>
		</g>
		<g>
			<g>
				<g>
					<g>
						<defs>
							<path id="SVGID_154_" d="M227.147,282.909c4.324,1.979,16.093,7.69,44.21,0.21c28.117-7.479,34.256-16.742,38.261-24.456
								c4.005-7.715,0.784-21.338-4.38-28.335s-13.619-20.547-33.148-25.674c-18.114-4.756-49.484,1.634-63.625,16.402
								c-14.141,14.769-16.453,23.232-1.962,41.508C218.714,277.964,221.112,280.146,227.147,282.909z"/>
						</defs>
						<clipPath id="SVGID_155_">
							<use xlink:href="#SVGID_154_"  overflow="visible"/>
						</clipPath>
						
							<linearGradient id="SVGID_156_" gradientUnits="userSpaceOnUse" x1="-367.5942" y1="412.3682" x2="-364.8489" y2="319.3667" gradientTransform="matrix(-0.1493 -0.9888 0.9888 -0.1493 -208.626 -69.4237)">
							<stop  offset="0" style="stop-color:#CFCCC3"/>
							<stop  offset="0.9737" style="stop-color:#BAB6AE"/>
						</linearGradient>
						<polygon clip-path="url(#SVGID_155_)" fill="url(#SVGID_156_)" points="163.342,257.761 191.874,253.454 255.382,243.867 
							165.21,228.914 						"/>
					</g>
				</g>
			</g>
		</g>
		<g>
			<g>
				<g>
					<g>
						<defs>
							<path id="SVGID_157_" d="M227.147,282.909c4.324,1.979,16.093,7.69,44.21,0.21c28.117-7.479,34.256-16.742,38.261-24.456
								c4.005-7.715,0.784-21.338-4.38-28.335s-13.619-20.547-33.148-25.674c-18.114-4.756-49.484,1.634-63.625,16.402
								c-14.141,14.769-16.453,23.232-1.962,41.508C218.714,277.964,221.112,280.146,227.147,282.909z"/>
						</defs>
						<clipPath id="SVGID_158_">
							<use xlink:href="#SVGID_157_"  overflow="visible"/>
						</clipPath>
						
							<linearGradient id="SVGID_159_" gradientUnits="userSpaceOnUse" x1="-47.4253" y1="521.0957" x2="-44.6799" y2="428.0981" gradientTransform="matrix(0.4605 -0.8877 0.8877 0.4605 -179.783 -48.207)">
							<stop  offset="0" style="stop-color:#CFCCC3"/>
							<stop  offset="0.9737" style="stop-color:#BAB6AE"/>
						</linearGradient>
						<polygon clip-path="url(#SVGID_158_)" fill="url(#SVGID_159_)" points="172.754,201.007 198.368,214.293 255.382,243.867 
							191.221,178.768 						"/>
					</g>
				</g>
			</g>
		</g>
		<g>
			<g>
				<g>
					<g>
						<defs>
							<path id="SVGID_160_" d="M227.147,282.909c4.324,1.979,16.093,7.69,44.21,0.21c28.117-7.479,34.256-16.742,38.261-24.456
								c4.005-7.715,0.784-21.338-4.38-28.335s-13.619-20.547-33.148-25.674c-18.114-4.756-49.484,1.634-63.625,16.402
								c-14.141,14.769-16.453,23.232-1.962,41.508C218.714,277.964,221.112,280.146,227.147,282.909z"/>
						</defs>
						<clipPath id="SVGID_161_">
							<use xlink:href="#SVGID_160_"  overflow="visible"/>
						</clipPath>
						
							<linearGradient id="SVGID_162_" gradientUnits="userSpaceOnUse" x1="275.0527" y1="422.2725" x2="277.7981" y2="329.2729" gradientTransform="matrix(0.8943 -0.4475 0.4475 0.8943 -169.1677 -15.5101)">
							<stop  offset="0" style="stop-color:#CFCCC3"/>
							<stop  offset="0.9737" style="stop-color:#BAB6AE"/>
						</linearGradient>
						<polygon clip-path="url(#SVGID_161_)" fill="url(#SVGID_162_)" points="213.728,160.625 226.64,186.43 255.382,243.867 
							241.74,153.488 						"/>
					</g>
				</g>
			</g>
		</g>
		<g>
			<g>
				<g>
					<g>
						<defs>
							<path id="SVGID_163_" d="M227.147,282.909c4.324,1.979,16.093,7.69,44.21,0.21c28.117-7.479,34.256-16.742,38.261-24.456
								c4.005-7.715,0.784-21.338-4.38-28.335s-13.619-20.547-33.148-25.674c-18.114-4.756-49.484,1.634-63.625,16.402
								c-14.141,14.769-16.453,23.232-1.962,41.508C218.714,277.964,221.112,280.146,227.147,282.909z"/>
						</defs>
						<clipPath id="SVGID_164_">
							<use xlink:href="#SVGID_163_"  overflow="visible"/>
						</clipPath>
						
							<linearGradient id="SVGID_165_" gradientUnits="userSpaceOnUse" x1="477.7012" y1="151.3906" x2="480.4465" y2="58.3891" gradientTransform="matrix(0.9865 0.1637 -0.1637 0.9865 -179.8494 18.5283)">
							<stop  offset="0" style="stop-color:#CFCCC3"/>
							<stop  offset="0.9737" style="stop-color:#BAB6AE"/>
						</linearGradient>
						<polygon clip-path="url(#SVGID_164_)" fill="url(#SVGID_165_)" points="270.611,152.04 265.891,180.505 255.382,243.867 
							297.469,162.731 						"/>
					</g>
				</g>
			</g>
		</g>
		<g>
			<g>
				<g>
					<g>
						<defs>
							<path id="SVGID_166_" d="M227.147,282.909c4.324,1.979,16.093,7.69,44.21,0.21c28.117-7.479,34.256-16.742,38.261-24.456
								c4.005-7.715,0.784-21.338-4.38-28.335s-13.619-20.547-33.148-25.674c-18.114-4.756-49.484,1.634-63.625,16.402
								c-14.141,14.769-16.453,23.232-1.962,41.508C218.714,277.964,221.112,280.146,227.147,282.909z"/>
						</defs>
						<clipPath id="SVGID_167_">
							<use xlink:href="#SVGID_166_"  overflow="visible"/>
						</clipPath>
						
							<linearGradient id="SVGID_168_" gradientUnits="userSpaceOnUse" x1="482.2842" y1="-185.6704" x2="485.0295" y2="-278.665" gradientTransform="matrix(0.702 0.7123 -0.7123 0.702 -207.6346 39.0744)">
							<stop  offset="0" style="stop-color:#CFCCC3"/>
							<stop  offset="0.9737" style="stop-color:#BAB6AE"/>
						</linearGradient>
						<polygon clip-path="url(#SVGID_167_)" fill="url(#SVGID_168_)" points="321.68,178.529 301.127,198.784 255.382,243.867 
							337.121,202.965 						"/>
					</g>
				</g>
			</g>
		</g>
		<g>
			<g>
				<g>
					<g>
						<defs>
							<path id="SVGID_169_" d="M227.147,282.909c4.324,1.979,16.093,7.69,44.21,0.21c28.117-7.479,34.256-16.742,38.261-24.456
								c4.005-7.715,0.784-21.338-4.38-28.335s-13.619-20.547-33.148-25.674c-18.114-4.756-49.484,1.634-63.625,16.402
								c-14.141,14.769-16.453,23.232-1.962,41.508C218.714,277.964,221.112,280.146,227.147,282.909z"/>
						</defs>
						<clipPath id="SVGID_170_">
							<use xlink:href="#SVGID_169_"  overflow="visible"/>
						</clipPath>
						
							<linearGradient id="SVGID_171_" gradientUnits="userSpaceOnUse" x1="289.1621" y1="-461.4907" x2="291.9074" y2="-554.4907" gradientTransform="matrix(0.1492 0.9888 -0.9888 0.1492 -242.7077 38.1728)">
							<stop  offset="0" style="stop-color:#CFCCC3"/>
							<stop  offset="0.9737" style="stop-color:#BAB6AE"/>
						</linearGradient>
						<polygon clip-path="url(#SVGID_170_)" fill="url(#SVGID_171_)" points="347.421,229.977 318.891,234.283 255.382,243.867 
							345.553,258.823 						"/>
					</g>
				</g>
			</g>
		</g>
		<g>
			<g>
				<g>
					<g>
						<defs>
							<path id="SVGID_172_" d="M227.147,282.909c4.324,1.979,16.093,7.69,44.21,0.21c28.117-7.479,34.256-16.742,38.261-24.456
								c4.005-7.715,0.784-21.338-4.38-28.335s-13.619-20.547-33.148-25.674c-18.114-4.756-49.484,1.634-63.625,16.402
								c-14.141,14.769-16.453,23.232-1.962,41.508C218.714,277.964,221.112,280.146,227.147,282.909z"/>
						</defs>
						<clipPath id="SVGID_173_">
							<use xlink:href="#SVGID_172_"  overflow="visible"/>
						</clipPath>
						
							<linearGradient id="SVGID_174_" gradientUnits="userSpaceOnUse" x1="-30.71" y1="-571.1147" x2="-27.9648" y2="-664.1113" gradientTransform="matrix(-0.4605 0.8877 -0.8877 -0.4605 -271.3127 18.1426)">
							<stop  offset="0" style="stop-color:#CFCCC3"/>
							<stop  offset="0.9737" style="stop-color:#BAB6AE"/>
						</linearGradient>
						<polygon clip-path="url(#SVGID_173_)" fill="url(#SVGID_174_)" points="338.008,286.729 312.395,273.441 255.382,243.867 
							319.541,308.968 						"/>
					</g>
				</g>
			</g>
		</g>
		<g>
			<g>
				<g>
					<g>
						<defs>
							<path id="SVGID_175_" d="M227.147,282.909c4.324,1.979,16.093,7.69,44.21,0.21c28.117-7.479,34.256-16.742,38.261-24.456
								c4.005-7.715,0.784-21.338-4.38-28.335s-13.619-20.547-33.148-25.674c-18.114-4.756-49.484,1.634-63.625,16.402
								c-14.141,14.769-16.453,23.232-1.962,41.508C218.714,277.964,221.112,280.146,227.147,282.909z"/>
						</defs>
						<clipPath id="SVGID_176_">
							<use xlink:href="#SVGID_175_"  overflow="visible"/>
						</clipPath>
						
							<linearGradient id="SVGID_177_" gradientUnits="userSpaceOnUse" x1="-353.5469" y1="-471.2754" x2="-350.8016" y2="-564.2739" gradientTransform="matrix(-0.8943 0.4475 -0.4475 -0.8943 -282.0881 -14.5558)">
							<stop  offset="0" style="stop-color:#CFCCC3"/>
							<stop  offset="0.9737" style="stop-color:#BAB6AE"/>
						</linearGradient>
						<polygon clip-path="url(#SVGID_176_)" fill="url(#SVGID_177_)" points="297.033,327.109 284.122,301.307 255.382,243.867 
							269.021,334.246 						"/>
					</g>
				</g>
			</g>
		</g>
		<g>
			<g>
				<g>
					<g>
						<defs>
							<path id="SVGID_178_" d="M227.147,282.909c4.324,1.979,16.093,7.69,44.21,0.21c28.117-7.479,34.256-16.742,38.261-24.456
								c4.005-7.715,0.784-21.338-4.38-28.335s-13.619-20.547-33.148-25.674c-18.114-4.756-49.484,1.634-63.625,16.402
								c-14.141,14.769-16.453,23.232-1.962,41.508C218.714,277.964,221.112,280.146,227.147,282.909z"/>
						</defs>
						<clipPath id="SVGID_179_">
							<use xlink:href="#SVGID_178_"  overflow="visible"/>
						</clipPath>
						
							<linearGradient id="SVGID_180_" gradientUnits="userSpaceOnUse" x1="-556.2681" y1="-202.0161" x2="-553.5228" y2="-295.0166" gradientTransform="matrix(-0.9865 -0.1637 0.1637 -0.9865 -271.5466 -48.6914)">
							<stop  offset="0" style="stop-color:#CFCCC3"/>
							<stop  offset="0.9737" style="stop-color:#BAB6AE"/>
						</linearGradient>
						<polygon clip-path="url(#SVGID_179_)" fill="url(#SVGID_180_)" points="240.149,335.693 244.871,307.229 255.382,243.867 
							213.293,325.003 						"/>
					</g>
				</g>
			</g>
		</g>
	</g>
	<path fill="#8A8A8A" d="M206.896,219.908c1.664-0.714,2.338-3.243,4.748-2.591c-1.644,4.465-3.895,8.878-1.188,13.719
		c-0.73-0.028-1.461-0.057-2.19-0.087C205.782,227.52,204.815,223.903,206.896,219.908z"/>
	<path opacity="0.8" fill="#8A8A8A" enable-background="new    " d="M210.455,231.036c-2.706-4.841-0.456-9.254,1.188-13.719
		c4.758,0.002,7.479,1.215,4.426,6.614c-0.998,1.764-1.237,3.957-1.824,5.953C213.308,231.339,211.855,231.105,210.455,231.036z"/>
	<path opacity="0.8" fill="#8A8A8A" enable-background="new    " d="M213.423,270.477c-0.455,0.385-0.91,0.77-1.365,1.149
		c-0.049-1.737-1.32-2.427-2.63-3.108c-3.489-1.816-4.796-5.084-3.343-8.312c1.496-3.329,4.885-4.014,8.391-2.457
		c0.466,1.592,0.707,3.297,1.444,4.752C217.729,266.068,217.295,268.764,213.423,270.477z"/>
</g>
</svg>
