<?xml version="1.0" encoding="utf-8"?>
<!-- Generator: Adobe Illustrator 16.0.0, SVG Export Plug-In . SVG Version: 6.00 Build 0)  -->
<!DOCTYPE svg PUBLIC "-//W3C//DTD SVG 1.1//EN" "http://www.w3.org/Graphics/SVG/1.1/DTD/svg11.dtd">
<svg version="1.1" id="Layer_3" xmlns="http://www.w3.org/2000/svg" xmlns:xlink="http://www.w3.org/1999/xlink" x="0px" y="0px"
	 width="512px" height="512px" viewBox="0 0 512 512" enable-background="new 0 0 512 512" xml:space="preserve">
<g>
	<path fill="#979896" d="M66.639,403.835c-1.268-2.235-2.536-4.476-3.804-6.715c5.569,2.938,7.955,0.835,7.966-5.026l0.011-0.01
		c2.15-2.233,4.3-4.467,6.45-6.696c0.023-0.527,0.064-1.057,0.119-1.582c1.073-1.099,2.147-2.201,3.219-3.303l0.059-0.045
		c3.492-4.691,6.774-9.562,10.515-14.043c10.901-13.072,6.706-49.317-7.102-60.118c-3.226-8.793-6.45-17.587-9.677-26.381
		c-6.466-25.477-14.777-50.646-12.828-77.515c7.311,0.764,0.427,7.657,4.282,9.914c0.043,38.57,18.189,67.005,49.514,77.583
		c5.959,17.622,20.409,18.438,34.097,14.143c7.341-2.301,12.536-11.448,18.699-17.51l-0.008,0.01
		c6.49-8.252-8.408-10.688-4.927-18.122l0.002-0.021c0.543-0.551,1.087-1.099,1.631-1.648c3.297-2.755,6.593-5.51,9.891-8.266
		c1.432,1.153,2.865,2.308,4.299,3.457c-0.175-2.609-0.62-5.232-0.478-7.827c0.772-14.089,1.526-28.183,2.601-42.252
		c1.162-15.206,4.901-30.895-9.716-42.446l-0.004-0.008c0.008-0.548,0.009-1.097,0-1.646c0.015-0.546,0.021-1.092,0.019-1.638
		c4.288-2.755,4.287-5.513,0.007-8.274c0.565-4.09-0.938-6.927-4.982-8.224c4.93-9.024-8.623-12.876-6.192-20.374
		c4.577-14.122-4.789-21.321-13.356-28.42c-4.926-4.082-13.172,7.119-18.375-2.311c10.804-8.401,21.847-20.488,35.738-17.285
		c10.633,2.454,19.372,13.247,28.828,20.492c1.05,0.804,1.285,2.671,1.898,4.043c-1.842,0.015-3.683,0.029-5.524,0.043
		c6.164,7.813,10.787,19.099,18.834,22.673c14.097,6.258,12.937,19.885,15.482,29.18c2.96,10.812,6.971,28.783,11.323,29.778
		c15.946,3.65,3.418,17.88,11.32,22.466c7.451,4.324-13.789,20.701,8.142,19.127c0.848-0.06,6.083,6.782,2.486,12.029
		c-0.593,0.863,0.496,3.174,1.305,4.518c0.227,0.379,2.867,0.092,3.268-0.571c0.992-1.647,1.329-3.688,1.928-5.571
		c1.465,2.191,4.256,4.483,4.096,6.545c-0.275,3.516,2.147,9.766-5.512,9.204c-0.199-0.111-0.396-0.224-0.593-0.335
		c0.196,0.111,0.396,0.222,0.595,0.332c7.645,6.577-8.729,11.838-1.386,17.355c7.115,5.347,8.017,6.474-0.319,14.703
		c-22.69,22.392-45.445,44.709-72.267,62.398c-9.881,6.52-19.62,15.674-31.037,5.355c-8.918-8.062-17.382-16.437-28.813-20.342
		c-5.624-1.921-12.05-1.495-18.113-2.13c0.17,1.4,0,2.964,0.567,4.183c3.01,6.46,6.205,12.831,9.336,19.233
		c-2.691-1.105-5.384-2.207-8.076-3.312c-11.672-3.461-9.489,5.117-9.923,11.42l0.006-0.004c-0.549,0.552-1.098,1.105-1.647,1.656
		l-0.001-0.006c-1.101,1.648-2.201,3.303-3.301,4.949C87.018,381.715,76.829,392.776,66.639,403.835z"/>
	<path fill="#9FA09E" d="M333.121,248.592c-4.721,11.069-9.713,22.038-14.062,33.251c-2.74,7.07-2.717,15.915-7.078,21.513
		c-12.07,15.489-17.441,36.229-39.182,44.794c-6.695,2.636-14.472,15.586-17.534,23.066c-11.424,27.905-36.372,47.685-44.082,77.229
		c-3.294,9.702-6.318,19.55-14.573,26.521c-0.148-1.229-0.292-2.458-0.438-3.686c17.501-22.485,16.484-51.74,27.736-76.581
		c2.122-4.687,3.085-18.653-1.645-15.604c-12.312,7.935-12.453-3.925-17.882-6.708c-6.343-3.252-12.025-4.509-20.183-3.45
		c-6.792,0.879-12.174,16.224-20.149,3.754c-3.105-4.856-5.803-3.294-9.551-1.887c-5.03,1.89-3.14,5.093-2.551,8.644
		c1.97,11.871,3.52,23.812,5.229,35.726c-2.392-6.062-4.785-12.119-7.177-18.181c-0.541-1.069-1.081-2.14-1.621-3.209
		c-4.947-6.227-9.896-12.447-14.842-18.673c-1.663-2.568-3.326-5.135-4.989-7.701c-0.502-0.577-1.006-1.154-1.509-1.734l-0.08-0.09
		c-0.498-0.521-0.995-1.044-1.493-1.566l-0.153-0.153c-0.476-0.493-0.953-0.982-1.43-1.477c-0.648-1.08-1.296-2.158-1.944-3.237
		c-0.578-1.083-1.156-2.169-1.734-3.252l-0.054,0.052c-3.129-6.405-6.324-12.776-9.334-19.236c-0.567-1.219-0.397-2.781-0.567-4.183
		c6.063,0.635,12.489,0.209,18.113,2.13c11.431,3.905,19.895,12.279,28.813,20.342c11.417,10.317,21.156,1.163,31.037-5.354
		c26.821-17.69,49.576-40.009,72.267-62.399c8.336-8.229,7.436-9.357,0.319-14.703c-7.344-5.517,9.029-10.777,1.386-17.355
		l-0.002,0.003c7.659,0.562,5.235-5.688,5.512-9.204c0.16-2.062-2.631-4.354-4.096-6.545c-0.599,1.883-0.936,3.924-1.928,5.571
		c-0.398,0.663-3.041,0.95-3.268,0.571c-0.809-1.344-1.896-3.655-1.305-4.518c3.598-5.247-1.638-12.088-2.486-12.029
		c-21.931,1.574-0.691-14.803-8.142-19.127c-7.901-4.586,4.626-18.815-11.32-22.466c-4.352-0.996-8.362-18.967-11.323-29.778
		c-2.546-9.295-1.386-22.922-15.482-29.18c-8.047-3.574-12.67-14.859-18.834-22.673c1.841-0.015,3.683-0.029,5.524-0.043
		c-0.613-1.372-0.848-3.239-1.898-4.043c-9.457-7.245-18.195-18.038-28.828-20.492c-13.891-3.204-24.935,8.883-35.738,17.285
		c-13.539-0.714-21.605,10.874-33.112,14.727c8.961-15.326,19.424-29.454,32.879-41.194c4.184-2.283,8.555-4.286,12.523-6.898
		c22.379-14.729,60.33-21.172,78.076,10.964c8.282,14.998,10.625,34.11,20.445,46.091c16.261,19.84,32.076,39.486,44.247,62.048
		c0.547,7.149,1.096,14.299,1.643,21.448c-3.715,20.887-8.455,41.673-10.527,62.72c-0.643,6.51-3.034,20.568,10.1,19.709
		c19.787-1.297,25.582-20.93,32.049-34.256c13.023-26.824,20.959-56.118,30.99-84.394c3.93,4.88,7.879,7.748,6.443,16.864
		c-1.87,11.868-6.496,22.572-10.645,32.917c-3.877,9.672,3.904,23.842-10.574,29.332"/>
	<path fill="#6D6D6D" d="M196.614,474.971c8.251-6.977,11.275-16.823,14.568-26.525c10.405-13.823,20.812-27.645,31.218-41.468
		c6.045-4.955,12.091-9.908,18.136-14.864c4.729-0.695,6.687-3.642,6.644-8.203c0.529-0.015,1.059-0.032,1.588-0.055
		c18.533-16.737,37.069-33.478,55.599-50.221c2.952-2.668,2.622-11.307,8.977-7.295c6.468,4.082-2.327,7.253-2.889,11.35
		c-0.736,5.367-2.675,10.568-4.095,15.844c7.295-0.747,14.494-1.718,19.591-7.931c1.733-2.113,3.549-4.162,5.325-6.241
		c3.944-3.95,8.521-7.443,11.73-11.915c30.419-42.378,26.46-103.443,74.187-136.454c1.604-0.037,3.211-0.074,4.814-0.113
		c0.533-0.574,1.066-1.149,1.601-1.723c1.004-0.163,2.006-0.325,3.01-0.49c0.635,0.168,1.27,0.333,1.906,0.501
		c-11.52,60.563-30.55,118.277-74.301,163.572c-27.787,28.766-49.633,60.376-64.143,97.36c8.839-21.956-6.072-46.441,7.113-68.041
		c0.426-0.698-1.801-4.373-2.861-4.404c-9.617-0.304-19.871-2.829-27.479,6.063c-2.735,2.188-5.474,4.376-8.209,6.562
		c-8.258,7.75-16.514,15.499-24.768,23.249c-1.622,1.648-3.241,3.303-4.862,4.951c-23.037,18.394-38.185,43.012-53.364,67.606
		c-0.458-0.603-0.914-1.205-1.372-1.808c-0.082-0.555-0.165-1.108-0.248-1.662c0.178-0.506,0.32-1.025,0.43-1.55
		c0.488-0.538,0.975-1.08,1.461-1.621c0.11-1.066,0.219-2.135,0.329-3.196C196.424,475.837,196.546,475.412,196.614,474.971z"/>
	<path fill="#A6A8A6" d="M283.631,184.261c-12.171-22.562-27.986-42.208-44.247-62.048c-9.819-11.98-12.163-31.093-20.445-46.091
		c-17.746-32.136-55.696-25.693-78.076-10.964c-3.968,2.613-8.339,4.615-12.523,6.898c22.886-25.393,51.088-41.74,84.315-49.531
		c0.585,0.039,1.061-0.169,1.428-0.619c1.224-0.168,2.448-0.333,3.672-0.501c3.238,0.377,6.477,0.755,9.714,1.131
		c3.326,0.018,6.649,0.036,9.975,0.053c1.097,0.008,2.193,0.016,3.29,0.024c5.213,2.188,10.427,4.374,15.639,6.563
		c28.134,11.811,60.705,16.886,75.126,49.504c-0.058,1.076-0.114,2.152-0.173,3.227c-1.514,0.693-3.03,1.384-4.545,2.075
		c-1.127-3.041-1.395-6.992-3.51-8.983c-27.262-25.659-58.711-42.73-96.811-44.875c-3.267-0.184-7.863,2.971-9.88,5.917
		c-2.646,3.865,2.097,5.368,4.497,7.878c5.793,6.057,11.291,12.587,15.823,19.624c16.134,25.053,31.833,50.384,47.662,75.635
		C294.093,154.388,294.823,169.458,283.631,184.261z"/>
	<path fill="#A6A8A6" d="M157.176,415.175c-1.709-11.913-3.259-23.854-5.229-35.726c-0.589-3.551-2.479-6.754,2.551-8.644
		c3.748-1.407,6.446-2.971,9.551,1.887c7.975,12.47,13.357-2.875,20.149-3.755c8.158-1.058,13.84,0.199,20.183,3.451
		c5.429,2.783,5.569,14.643,17.882,6.708c4.73-3.051,3.767,10.917,1.645,15.604c-11.251,24.841-10.235,54.096-27.736,76.581
		c0.799-5.42,1.003-11.019,2.516-16.231c3.599-12.408-7.745-16.714-12.681-24.46c-0.443-0.696-2.529-1.212-3.157-0.786
		c-6.562,4.443-3.752,11.526-5.23,17.5c-2.13,8.61,4.656,17.771-2.33,25.617C169.252,453.671,163.214,434.421,157.176,415.175z"/>
	<path fill="#909190" d="M171.457,169.416c-3.469,21.427-17.015,42.101-2.687,64.8c4.22,6.686,4.107,16.105,5.98,24.271
		c1.432,1.152,2.865,2.307,4.299,3.457c-0.175-2.61-0.62-5.233-0.478-7.827c0.772-14.089,1.526-28.183,2.601-42.252
		c0.89-11.653,22.03-65.083,7.211-78.029c-14.819-12.946-35.091-27.549-35.091-27.549c-2.012-1.894-4.204-3.675-6.346-5.45
		c-4.926-4.082-13.172,7.119-18.375-2.311c-13.539-0.714-21.605,10.874-33.112,14.727l0.04-0.039
		c0.279,3.671-0.652,6.436-4.984,6.651l0.05-0.048c-0.424,0.595-0.847,1.189-1.27,1.785c-15.765,24.696-26.073,51.263-27.728,80.801
		c7.311,0.764,0.427,7.657,4.282,9.914c7.103-17.584,14.176-35.18,21.317-52.749c5.8-14.274,21.091-22.976,31.645-23.719
		c15.494-1.093,31.751,8.653,47.684,13.781C166.497,149.629,171.457,155.054,171.457,169.416z"/>
	<path fill="#979896" d="M410.564,72.481c13.786,7.479,22.947,18.922,28.588,33.379c-1.492,6.444-11.95-1.43-11.911,7.457
		c-18.018-14.512-41.941-4.961-61.056-15c14.028-34.54-15.996-40.52-35.065-52.394c-14.901-9.279-31.58-15.702-47.47-23.395
		c24.423,3.881,45.369,16.691,67.566,26.287c13.376,7.262,24.708,16.461,29.869,31.51c-2.797,5.44,2.609,7.151,4.706,6.244
		C394.496,82.801,406.1,83.696,410.564,72.481z M404.077,88.005c-2.729-0.615-3.947-1.324-4.728-0.994
		c-4.291,1.817-8.478,3.891-12.699,5.875c0.787,0.938,2,2.81,2.297,2.675C393.497,93.484,397.928,91.146,404.077,88.005z"/>
	<path fill="#A6A8A6" d="M74.396,279.916c3.227,8.794,6.451,17.588,9.677,26.381c1.533,13.18,8.027,24.936,7.358,39.257
		c-0.625,13.328-13.259,21.604-10.771,34.904c0,0-0.059,0.045-0.058,0.045c-1.072,1.102-2.146,2.204-3.22,3.303
		c-0.055,0.525-0.096,1.055-0.117,1.582c-4.613-0.142-5.895,2.927-6.452,6.696l-0.011,0.01c-2.746,0.562-5.492,1.124-8.239,1.686
		c-2.187-32.304,6.433-63.591,9.028-95.446C72.093,292.157,73.439,286.052,74.396,279.916z"/>
	<path fill="#9FA09E" d="M427.242,113.318c-0.04-8.887,10.418-1.013,11.91-7.457c3.533,11.312,7.068,22.623,10.604,33.935
		c0.156,1.656,0.312,3.312,0.469,4.968c0.56,10.969,1.118,21.939,1.678,32.908c-0.327,1.272-0.652,2.547-0.979,3.82
		c0,0,0.089-0.137,0.087-0.135c-1.466,2.438-2.931,4.875-4.396,7.31c-1.004,0.165-2.006,0.327-3.01,0.49
		c-0.56,0.003-1.118,0.005-1.68,0.007c-8.228-3.068-20.832-0.221-20.36-15.056c-8.221,0.519-2.188-16.91-14.361-11.407
		c-3.28-4.822-6.562-9.644-9.841-14.465c4.007,2.22,7.96,4.543,12.029,6.639c7.959,4.1,16.361,6.202,25.271,4.233
		c1.059-0.233,2.48-3.154,2.189-4.491C433.832,140.811,430.492,127.074,427.242,113.318z"/>
	<path fill="#9FA09E" d="M249.014,418.48c1.621-1.649,3.241-3.304,4.862-4.952c3.828,5.619,7.032,12.128,15.863,9.757
		c6.581-1.767,8.75-8.568,6.327-11.871c-6.401-8.72,2.332-14.144,2.576-21.135c2.736-2.186,5.475-4.373,8.209-6.559
		c6.354-0.077,12.705-0.153,19.058-0.229c-2.486,6.715-4.972,13.431-7.456,20.146c-6.319,5.63-18.034,9.067-13.943,20.001
		c3.996,10.675-3.963,22.878,5.465,32.171c-7.809,1.537,2.729,14.274-8.414,13.772C270.712,452.55,259.863,435.514,249.014,418.48z"
		/>
	<path fill="#6D6D6D" d="M128.547,367.411c1.664,2.566,3.326,5.133,4.989,7.701c-18.047,9.904-35.966,20.059-54.25,29.503
		c-3.534,1.824-8.751,4.141-12.646-0.776c10.189-11.062,20.379-22.124,30.57-33.187c1.101-1.646,2.201-3.296,3.301-4.949
		l0.001,0.006c0.549-0.551,1.098-1.104,1.647-1.656l-0.006,0.004c3.308-3.806,6.615-7.61,9.923-11.42
		c2.692,1.105,5.385,2.207,8.076,3.312c-0.002,0.003,0.052-0.049,0.053-0.049c0.579,1.083,1.156,2.166,1.734,3.252
		c0.647,1.079,1.296,2.157,1.941,3.237c0.477,0.493,0.955,0.982,1.432,1.477c0,0,0.153,0.153,0.151,0.153
		c0.497,0.522,0.996,1.045,1.495,1.566c0,0,0.08,0.09,0.079,0.09C127.54,366.257,128.043,366.834,128.547,367.411z"/>
	<path fill="#909190" d="M298.453,403.639c2.484-6.715,4.97-13.431,7.456-20.146c-6.353,0.074-12.704,0.15-19.058,0.229
		c7.608-8.896,17.862-6.37,27.479-6.066c1.062,0.032,3.287,3.706,2.86,4.404c-13.186,21.6,1.727,46.086-7.112,68.041
		c-3.32,7.608-6.638,15.217-9.958,22.82c0.003-3.841,0.003-7.682,0.005-11.525c0.11-0.199,0.222-0.399,0.33-0.604
		c-0.112,0.2-0.226,0.396-0.335,0.597c-6.562-6.312,7.354-7.18,3.301-14.241C295.714,433.712,297.367,418.48,298.453,403.639z"/>
	<path fill="#979896" d="M298.453,403.639c-1.086,14.843-2.739,30.073,4.97,43.509c4.054,7.062-9.862,7.93-3.301,14.241l0.005,0.007
		c-0.002,3.845-0.002,7.686-0.005,11.525c-2.483,3.845-4.972,7.688-7.455,11.529c-3.702-4.956-7.403-9.911-11.106-14.867
		c11.145,0.502,0.605-12.235,8.414-13.772c-9.428-9.293-1.469-21.495-5.465-32.171C280.419,412.706,292.134,409.269,298.453,403.639
		z"/>
	<path fill="#ACADAB" d="M175.291,472.921c6.986-7.846,0.2-17.007,2.33-25.617c1.478-5.974-1.332-13.057,5.23-17.5
		c0.628-0.426,2.714,0.09,3.157,0.786c4.936,7.746,16.28,12.052,12.681,24.46c-1.513,5.214-1.716,10.812-2.516,16.231
		c0.145,1.228,0.289,2.455,0.438,3.686c-0.064,0.445-0.186,0.87-0.36,1.283c-1.385,0.492-2.771,0.989-4.156,1.485
		c0.725,0.617,1.45,1.236,2.175,1.854c0.088,0.49,0.152,0.979,0.191,1.478c-0.109,0.523-0.251,1.044-0.426,1.55
		c-0.444,0.055-0.89,0.111-1.336,0.174c-3.771,2.21-7.543,4.421-11.314,6.631C179.352,483.922,177.321,478.422,175.291,472.921z"/>
	<path fill="#979896" d="M240.734,22.614c-1.097-0.008-2.193-0.016-3.29-0.022c-0.523-0.919-1.045-1.838-1.569-2.756
		c8.788-0.551,17.574-1.102,26.361-1.651c1.635-0.087,3.27-0.174,4.904-0.261c1.625,0.106,3.252,0.212,4.877,0.317
		c2.299,1.395,4.598,2.791,6.895,4.187c-2.457,0.596-4.912,1.191-7.367,1.785c2.036,1.096,4.008,2.334,6.117,3.261
		c15.095,6.635,30.918,12.004,45.057,20.264c8.037,4.696,21.064,6.213,21.432,19.479c0.15,5.375-4.361,8.329-9.385,9.819
		c0.605-4.767,3.319-12.598,1.506-13.845C307.246,43.239,277.277,25.012,240.734,22.614z"/>
	<path fill="#ACADAB" d="M278.913,22.427c-2.3-1.396-4.597-2.792-6.896-4.187c33.848,2.669,63.881,17.036,94.144,30.696
		l-0.324,0.362c-4.93,1.543-9.556-6.081-14.619-0.485c-22.198-9.594-43.145-22.404-67.565-26.286
		C282.07,22.495,280.492,22.461,278.913,22.427z"/>
	<path fill="#9FA09E" d="M410.564,72.481c-4.466,11.215-16.068,10.319-24.771,14.088c-2.098,0.907-7.503-0.803-4.708-6.244
		c2.726,0.531,5.449,1.065,8.175,1.598c0.506-0.525,1.014-1.049,1.521-1.574c4.572-0.975,7.459-3.597,8.173-8.347
		c-1.023-1.563-2.046-3.127-3.069-4.69c-0.619-0.063-1.238-0.125-1.857-0.187c0.014-1.552,0.027-3.104,0.041-4.657
		C399.566,65.807,405.065,69.143,410.564,72.481z"/>
	<path fill="#ACADAB" d="M394.066,62.469c-0.012,1.553-0.026,3.105-0.039,4.657c-9.396-5.943-18.793-11.885-28.19-17.827
		l0.324-0.362C375.464,53.448,384.766,57.958,394.066,62.469z"/>
	<path fill="#A6A8A6" d="M181.383,489.422c3.771-2.21,7.542-4.421,11.316-6.631c0.081,0.509,0.115,1.019,0.105,1.533
		c-0.104,0.584-0.209,1.174-0.312,1.76c-0.427,0.496-0.854,0.992-1.28,1.485c0.026,1.344,0.052,2.685,0.079,4.027
		c-0.421,0.43-0.843,0.856-1.264,1.285c-1.232,0.517-2.464,1.031-3.696,1.55C184.681,492.764,183.031,491.092,181.383,489.422z"/>
	<path fill="#9FA09E" d="M62.562,393.778c2.747-0.562,5.493-1.124,8.239-1.686c-0.011,5.861-2.397,7.965-7.966,5.026
		C62.744,396.009,62.653,394.894,62.562,393.778z"/>
	<path fill="#9FA09E" d="M235.875,19.836c0.524,0.918,1.046,1.836,1.569,2.756c-3.325-0.02-6.649-0.037-9.974-0.053
		c-0.513-0.524-1.028-1.05-1.542-1.575C229.243,20.588,232.56,20.211,235.875,19.836z"/>
	<path fill="#9FA09E" d="M95.5,113.212c0.279,3.671-0.652,6.436-4.984,6.651C92.178,117.647,93.838,115.43,95.5,113.212z"/>
	<path fill="#909190" d="M446.616,188.666c1.465-2.435,2.93-4.871,4.396-7.31c-0.828,2.603-1.659,5.207-2.488,7.811
		C447.886,189,447.251,188.834,446.616,188.666z"/>
	<path fill="#909190" d="M192.492,486.084c0.104-0.586,0.208-1.176,0.313-1.76c0.001,0,0.739,0.022,0.739,0.022l0.735-0.067
		c0.458,0.603,0.914,1.205,1.372,1.808c-1.452,1.837-2.905,3.671-4.359,5.507c-0.027-1.34-0.054-2.681-0.08-4.021
		C191.638,487.076,192.064,486.58,192.492,486.084z"/>
	<path fill="#979896" d="M225.928,20.963c0.514,0.525,1.029,1.051,1.542,1.575c-3.239-0.378-6.477-0.756-9.715-1.133
		C220.479,21.258,223.203,21.11,225.928,20.963z"/>
	<path fill="#898A89" d="M450.226,144.764c-0.155-1.656-0.312-3.312-0.469-4.968C449.913,141.452,450.069,143.108,450.226,144.764z"
		/>
	<path fill="#ACADAB" d="M267.141,17.923c-1.636,0.087-3.271,0.174-4.904,0.261C263.87,18.097,265.505,18.01,267.141,17.923z"/>
	<path fill="#A6A8A6" d="M148.378,393.785c0.541,1.069,1.081,2.14,1.621,3.209C149.459,395.925,148.919,394.854,148.378,393.785z"/>
	<path fill="#9FA09E" d="M186.331,494.433c1.231-0.519,2.463-1.033,3.696-1.55C188.794,493.398,187.563,493.914,186.331,494.433z"/>
	<path fill="#909190" d="M450.925,181.492c0.325-1.273,0.65-2.547,0.979-3.82C451.575,178.944,451.25,180.219,450.925,181.492z"/>
	<path fill="#9FA09E" d="M90.566,119.815c-0.424,0.595-0.847,1.189-1.27,1.785C89.719,121.006,90.142,120.41,90.566,119.815z"/>
	<path fill="#ACADAB" d="M214.083,21.906c-0.367,0.45-0.843,0.658-1.428,0.619C213.132,22.319,213.607,22.112,214.083,21.906z"/>
	<path fill="#898A89" d="M65.851,212.315c7.103-17.584,14.176-35.18,21.317-52.749c5.8-14.274,21.091-22.976,31.645-23.719
		c15.494-1.093,31.751,8.653,47.684,13.781c4.044,1.296,5.548,4.134,4.981,8.224c-0.001,2.758-0.004,5.516-0.006,8.274
		c0.002,0.546-0.004,1.092-0.018,1.638c-0.197,0.16-0.586,0.374-0.559,0.469c0.12,0.411,0.36,0.787,0.557,1.175
		c0,0,0.004,0.008,0.004,0.006c-3.469,21.427-17.015,42.101-2.687,64.8c4.22,6.686,4.107,16.105,5.98,24.271
		c-3.297,2.755-6.594,5.51-9.891,8.265c-0.544,0.551-1.088,1.099-1.631,1.649l-0.002,0.02c-5.259,2.03-12.094,7.234-15.501,5.539
		c-14.375-7.145-31.193,0.352-32.359,15.939C84.04,279.32,65.895,250.886,65.851,212.315z M77.31,218.395
		c1.867,3.368,3.045,7.016,5.427,9.517c7.951,8.353,19.803,12.602,22.037,26.845c0.924,5.892,6.444,13.83,16.337,13.736
		c10.757-0.103,3.262-6.754,3.452-9.683c0.791-12.165,10-22.528,6.544-35.803c-1.189-4.57,4.204-10.736,3.256-15.514
		c-1.834-9.245,15.068-5.778,9.171-10.762c-11.629-9.831,7.016-29.309-13.608-34.954c-8.749-2.394-16.415-8.729-24.664-13.097
		c-0.134-0.071-1.691,1.982-2.169,3.207C94.534,173.853,86.04,195.841,77.31,218.395z"/>
	<path fill="#909190" d="M115.365,289.898c1.166-15.59,17.984-23.084,32.359-15.94c3.407,1.694,10.243-3.509,15.501-5.539
		c-3.481,7.435,11.417,9.87,4.927,18.122c-0.192-0.111-0.383-0.223-0.574-0.332c0.194,0.105,0.388,0.216,0.582,0.322
		c-6.163,6.062-11.357,15.21-18.699,17.51C135.774,308.337,121.324,307.521,115.365,289.898z"/>
	<path fill="#9FA09E" d="M80.66,380.458c-2.488-13.302,10.146-21.576,10.771-34.904c0.669-14.321-5.825-26.077-7.358-39.257
		c13.807,10.801,18.003,47.046,7.102,60.118C87.435,370.897,84.152,375.767,80.66,380.458z"/>
	<path fill="#898A89" d="M112.076,352.637c-3.308,3.81-6.615,7.614-9.923,11.42C102.587,357.754,100.404,349.176,112.076,352.637z"
		/>
	<path fill="#9FA09E" d="M70.812,392.084c0.558-3.771,1.839-6.838,6.452-6.696C75.113,387.617,72.963,389.851,70.812,392.084z"/>
	<path fill="#898A89" d="M100.511,365.703c-1.101,1.653-2.201,3.303-3.301,4.949C98.31,369.006,99.41,367.353,100.511,365.703z"/>
	<path fill="#9FA09E" d="M77.382,383.806c1.074-1.099,2.148-2.2,3.221-3.303C79.529,381.604,78.455,382.707,77.382,383.806z"/>
	<path fill="#909190" d="M171.453,169.409c-0.197-0.388-0.438-0.765-0.557-1.175c-0.027-0.095,0.361-0.31,0.559-0.469
		C171.461,168.312,171.46,168.861,171.453,169.409z"/>
	<path fill="#909190" d="M163.229,268.398c0.543-0.551,1.087-1.099,1.631-1.648C164.316,267.301,163.772,267.85,163.229,268.398z"/>
	<path fill="#9FA09E" d="M262.186,255.192c-0.199-0.11-0.398-0.221-0.596-0.332c0.196,0.111,0.395,0.224,0.592,0.335
		L262.186,255.192z"/>
	<path fill="#898A89" d="M102.159,364.053c-0.549,0.553-1.098,1.105-1.647,1.656C101.062,365.158,101.61,364.604,102.159,364.053z"
		/>
	<path fill="#ACADAB" d="M283.631,184.261c11.192-14.803,10.462-29.873,0.932-45.081c-15.826-25.251-31.527-50.582-47.662-75.635
		c-4.532-7.037-10.029-13.567-15.823-19.624c-2.4-2.51-7.143-4.013-4.497-7.878c2.018-2.946,6.614-6.101,9.88-5.917
		c38.1,2.145,69.549,19.215,96.811,44.875c2.115,1.991,2.384,5.942,3.509,8.979c0.217,1.028,0.438,2.059,0.651,3.088
		c-0.414,3.269-0.822,6.539-1.229,9.808c-0.38,0.668-0.762,1.336-1.143,2.003c1.812,9.396-1.414,19.617,4.649,28.312l-0.11,0.375
		c0.588,2.959,1.176,5.918,1.764,8.878l0.029,0.04c1.045,3.914,2.09,7.827,3.133,11.742c1.216,3.763,2.432,7.526,3.646,11.288
		c-1.173,2.936-2.845,5.773-3.441,8.822c-6.922,35.422-25.936,56.289-49.457,37.372C284.727,198.56,284.178,191.41,283.631,184.261z
		"/>
	<path fill="#A6A8A6" d="M285.271,205.709c23.522,18.917,42.535-1.95,49.459-37.372c0.597-3.048,2.269-5.886,3.44-8.822
		c3.237,3.325,6.476,6.65,9.712,9.973c-10.031,28.276-17.967,57.57-30.99,84.394c-6.467,13.326-12.262,32.959-32.049,34.255
		c-13.134,0.86-10.74-13.199-10.1-19.707C276.818,247.382,281.559,226.596,285.271,205.709z"/>
	<path fill="#979896" d="M347.884,169.488c-3.235-3.323-6.475-6.648-9.712-9.973c-1.215-3.761-2.431-7.525-3.645-11.29
		c-1.045-3.915-2.09-7.828-3.135-11.74l-0.029-0.04c-0.588-2.96-1.176-5.919-1.764-8.878c0,0,0.11-0.375,0.108-0.38
		c0-0.005,0.158-0.652,0.158-0.652c1.588,0.551,3.177,1.101,4.767,1.651c3.487,9.773,5.149,20.972,18.193,23.273
		c5.061,13.951,16.404,25.6,7.938,43.458c-7.392,15.583-9.498,33.614-14.522,50.389c-10.195,34.049-25.126,65.729-47.907,93.382
		c-18.709,22.711-42.702,41.097-55.934,68.29c-10.406,13.822-20.813,27.644-31.218,41.467c7.711-29.545,32.659-49.323,44.083-77.229
		c3.062-7.48,10.838-20.432,17.534-23.066c21.739-8.565,27.11-29.305,39.182-44.794c4.361-5.598,4.338-14.441,7.078-21.512
		c4.351-11.214,9.342-22.183,14.062-33.251l-0.014,0.008c14.479-5.49,6.697-19.66,10.576-29.332
		c4.146-10.344,8.772-21.049,10.644-32.917C355.764,177.235,351.812,174.368,347.884,169.488z"/>
	<path fill="#979896" d="M121.939,359.152c-0.578-1.086-1.155-2.169-1.734-3.252C120.783,356.983,121.361,358.069,121.939,359.152z"
		/>
	<path fill="#979896" d="M125.312,363.866c-0.478-0.493-0.955-0.982-1.432-1.477C124.359,362.884,124.836,363.373,125.312,363.866z"
		/>
	<path fill="#979896" d="M126.958,365.587c-0.499-0.521-0.998-1.044-1.495-1.566C125.963,364.543,126.46,365.064,126.958,365.587z"
		/>
	<path fill="#979896" d="M128.547,367.411c-0.503-0.577-1.007-1.154-1.51-1.734C127.541,366.257,128.044,366.834,128.547,367.411z"
		/>
	<path fill="#898A89" d="M351.275,339.36c-1.777,2.079-3.594,4.128-5.326,6.241c-5.096,6.213-12.295,7.184-19.59,7.931
		c1.42-5.274,3.356-10.477,4.094-15.844c0.561-4.097,9.355-7.268,2.889-11.35c-6.354-4.012-6.023,4.627-8.977,7.295
		c-18.528,16.743-37.064,33.482-55.598,50.221c1.648-16.017,16.922-21.322,26.051-30.771c18.002-18.632,31.957-39.818,43.283-62.307
		c5.6-11.113,8.062-25.467,12.565-37.03c9.875-25.366,21.429-49.523,17.376-77.456c-1.163-8.021-5.621-15.564-8.568-23.329
		c3.354,0.021,6.707,0.042,10.062,0.061c2.167,7.111,4.336,14.22,6.503,21.331c-0.727,5.058,1.518,7.766,6.549,8.263
		c0.549,0.553,1.096,1.107,1.646,1.66c0.554,4.942,1.109,9.883,1.664,14.826c-0.109,0.2-0.219,0.401-0.33,0.603
		c0.111-0.198,0.227-0.396,0.34-0.595c4.24,5.48-1.26,9.876-1.653,14.839l-0.003,0.003c-2.75,11.546-5.501,23.09-8.249,34.634
		l0.011,0.011c-15.461,13.542-15.18,33.634-20.01,51.179C352.55,312.322,338.705,324.647,351.275,339.36z"/>
	<path fill="#909190" d="M384.254,213.951c0.395-4.963,5.895-9.359,1.653-14.839l-0.011-0.008
		c-0.555-4.942-1.109-9.884-1.664-14.826c2.985,3.256,6.824,6.076,8.766,9.867c3.261,6.373,11.84,15.15,12.561,12.823
		c5.103-16.487,16.718-19.325,31.634-15.978c-47.727,33.011-43.768,94.076-74.187,136.454c-3.211,4.472-7.785,7.965-11.73,11.915
		c-12.569-14.714,1.274-27.038,4.729-39.582c4.83-17.545,4.548-37.637,20.01-51.179c0.108-0.2,0.217-0.399,0.326-0.599
		c-0.113,0.195-0.227,0.392-0.337,0.588c2.748-11.544,5.499-23.087,8.249-34.634"/>
	<path fill="#909190" d="M359.475,152.965c2.948,7.763,7.406,15.306,8.569,23.328c4.054,27.933-7.501,52.09-17.376,77.456
		c-4.503,11.563-6.967,25.917-12.564,37.03c-11.328,22.487-25.281,43.675-43.285,62.307c-9.129,9.447-24.4,14.754-26.051,30.771
		c-0.529,0.021-1.059,0.041-1.588,0.055c-4.064,1.237-6.632,3.686-6.644,8.203c-6.045,4.956-12.091,9.909-18.136,14.864
		c13.232-27.192,37.225-45.578,55.934-68.29c22.781-27.652,37.712-59.331,47.907-93.381c5.024-16.775,7.132-34.806,14.522-50.389
		c8.467-17.858-2.877-29.507-7.938-43.459C355.044,151.958,357.26,152.461,359.475,152.965z"/>
	<path fill="#979896" d="M437.191,190.991c-14.916-3.347-26.531-0.509-31.634,15.978c-0.721,2.327-9.3-6.45-12.561-12.823
		c-1.94-3.791-5.779-6.611-8.765-9.867c-0.551-0.553-1.099-1.107-1.646-1.661c-2.184-2.752-4.365-5.508-6.549-8.262
		c-2.167-7.111-4.336-14.22-6.504-21.331c2.765-0.493,5.529-0.984,8.292-1.477c-1.97,11.674,8.758,19.025,10.073,29.582
		c6.914-1.89,12.205,10.102,19.519,2.548c3.302-3.41,8.673-7.493,1.6-12.625c-0.604-2.785-1.21-5.569-1.814-8.352
		c12.177-5.503,6.144,11.926,14.363,11.407c-0.472,14.835,12.134,11.987,20.362,15.056c0.025,0.572,0.053,1.144,0.077,1.716
		C440.402,190.917,438.796,190.954,437.191,190.991z"/>
	<path fill="#A6A8A6" d="M278.645,390.279c-0.244,6.991-8.979,12.415-2.578,21.135c2.424,3.303,0.254,10.104-6.326,11.871
		c-8.831,2.371-12.035-4.138-15.863-9.757C262.131,405.778,270.387,398.029,278.645,390.279z"/>
	<path fill="#898A89" d="M260.536,392.112c0.012-4.519,2.578-6.967,6.644-8.203C267.223,388.472,265.266,391.417,260.536,392.112z"
		/>
	<path fill="#A6A8A6" d="M194.269,479.591c-0.725-0.618-1.45-1.236-2.175-1.854c1.385-0.496,2.771-0.993,4.156-1.485
		c-0.109,1.062-0.219,2.13-0.326,3.196C195.373,479.494,194.821,479.543,194.269,479.591z"/>
	<path fill="#909190" d="M442.007,190.878c-0.024-0.572-0.052-1.144-0.077-1.716c0.56-0.002,1.118-0.003,1.678-0.007
		C443.073,189.729,442.54,190.305,442.007,190.878z"/>
	<path fill="#9FA09E" d="M194.269,479.591c0.553-0.048,1.104-0.097,1.655-0.145c-0.489,0.541-0.976,1.083-1.463,1.621
		C194.421,480.57,194.356,480.081,194.269,479.591z"/>
	<path fill="#9FA09E" d="M194.278,484.279l-0.735,0.067c0,0-0.738-0.022-0.739-0.022c0.01-0.516-0.025-1.024-0.105-1.533
		c0.444-0.062,0.89-0.119,1.334-0.174C194.113,483.171,194.196,483.726,194.278,484.279z"/>
	<path fill="#909190" d="M327.439,87.068c-0.221-1.029-0.442-2.06-0.66-3.088c1.517-0.688,3.033-1.379,4.549-2.07
		c1.146-1.624,2.291-3.247,3.436-4.873l0.002-0.001c5.021-1.49,9.534-4.444,9.385-9.819c-0.367-13.266-13.396-14.783-21.433-19.479
		c-14.139-8.259-29.962-13.628-45.057-20.264c-2.109-0.927-4.081-2.166-6.117-3.261c2.455-0.594,4.91-1.189,7.367-1.785
		c1.581,0.034,3.159,0.068,4.739,0.102c15.89,7.692,32.567,14.115,47.47,23.395c19.069,11.874,49.095,17.854,35.065,52.394
		c-2.754-0.52-5.51-1.044-8.265-1.566c0.627-3.712,1.017-7.481,1.935-11.12c1.672-6.642,2.668-13.6-3.517-17.992
		c-6.84-4.855-5.812,5.142-10.226,6.818C339.279,77.056,333.605,82.71,327.439,87.068z"/>
	<path fill="#9FA09E" d="M240.734,22.614c36.543,2.396,66.512,20.625,95.536,40.576c1.814,1.247-0.898,9.078-1.504,13.845
		l-0.002,0.001c-1.088,0.55-2.178,1.097-3.265,1.645c-14.421-32.618-46.992-37.694-75.126-49.504
		C251.161,26.988,245.947,24.802,240.734,22.614z"/>
	<path fill="#979896" d="M331.499,78.682c1.087-0.548,2.177-1.095,3.265-1.645c-1.145,1.626-2.289,3.249-3.436,4.873
		C331.385,80.833,331.441,79.757,331.499,78.682z"/>
	<path fill="#6D6D6D" d="M357.922,96.751c2.755,0.522,5.51,1.046,8.264,1.566c19.114,10.039,43.039,0.488,61.057,15
		c3.251,13.756,6.591,27.493,9.613,41.298c0.292,1.337-1.132,4.258-2.189,4.491c-8.909,1.969-17.312-0.134-25.271-4.233
		c-4.069-2.096-8.022-4.419-12.029-6.64c-1.626-0.47-3.254-0.938-4.881-1.403c-0.533,0.383-1.064,0.767-1.598,1.152
		c-2.162,0.694-4.324,1.389-6.486,2.084c-2.189,0.495-4.381,0.989-6.57,1.484c-2.766,0.49-5.529,0.981-8.294,1.474
		c-3.354-0.019-6.706-0.04-10.062-0.061c-2.215-0.502-4.431-1.005-6.646-1.506c-13.044-2.3-14.706-13.498-18.191-23.271
		c1.396-10.841-10.598-25.242,8.354-31.417C347.965,96.763,352.943,96.756,357.922,96.751z"/>
	<path fill="#A6A8A6" d="M365.837,49.299c9.397,5.941,18.794,11.884,28.19,17.827c0.617,0.062,1.236,0.124,1.854,0.185
		c1.023,1.563,2.048,3.127,3.071,4.692c-0.714,4.75-3.602,7.373-8.172,8.347c-0.508,0.523-1.016,1.049-1.522,1.574
		c-2.726-0.533-5.45-1.067-8.175-1.598c-5.159-15.049-16.49-24.248-29.867-31.51C356.281,43.218,360.907,50.843,365.837,49.299z"/>
	<path fill="#909190" d="M404.077,88.005c-6.149,3.14-10.58,5.479-15.13,7.556c-0.297,0.135-1.51-1.737-2.297-2.675
		c4.223-1.984,8.408-4.058,12.699-5.875C400.13,86.681,401.35,87.39,404.077,88.005z"/>
	<path fill="#A6A8A6" d="M392.482,146.829c1.629,0.467,3.256,0.935,4.882,1.405c3.279,4.823,6.561,9.644,9.841,14.466
		c0.604,2.783,1.208,5.567,1.812,8.352c-1.473,7.849-11.313,6.305-12.2,5.432c-7.193-7.09-13.968-14.989-12.417-26.418
		c2.162-0.695,4.324-1.39,6.484-2.084C391.417,147.598,391.95,147.214,392.482,146.829z"/>
	<path fill="#979896" d="M300.122,461.389c0.108-0.199,0.224-0.396,0.335-0.597c-0.109,0.203-0.219,0.403-0.33,0.604
		L300.122,461.389z"/>
	<path fill="#ACADAB" d="M398.954,72.003c-1.023-1.564-2.048-3.129-3.071-4.692C396.908,68.875,397.931,70.44,398.954,72.003z"/>
	<path fill="#ACADAB" d="M389.26,81.924c0.508-0.525,1.016-1.051,1.522-1.574C390.273,80.875,389.766,81.399,389.26,81.924z"/>
	<path fill="#9FA09E" d="M192.492,486.084c-0.427,0.496-0.854,0.992-1.28,1.488C191.638,487.076,192.064,486.58,192.492,486.084z"/>
	<path fill="#6D6D6D" d="M77.31,218.395c8.73-22.554,17.225-44.542,25.784-66.506c0.478-1.225,2.035-3.278,2.169-3.207
		c8.25,4.369,15.916,10.703,24.664,13.097c20.624,5.645,1.979,25.123,13.608,34.954c5.896,4.984-11.006,1.518-9.171,10.762
		c0.947,4.777-4.446,10.944-3.256,15.514c3.456,13.274-5.754,23.639-6.544,35.802c-0.19,2.93,7.306,9.58-3.452,9.684
		c-9.893,0.094-15.413-7.846-16.337-13.736c-2.234-14.243-14.086-18.492-22.037-26.845C80.354,225.411,79.176,221.763,77.31,218.395
		z M126.088,162.291c-0.016,0.345-0.033,0.689-0.05,1.034c0.138-0.16,0.37-0.308,0.387-0.477
		C126.442,162.674,126.248,162.479,126.088,162.291z"/>
	<path fill="#979896" d="M168.161,286.531c-0.194-0.106-0.388-0.217-0.582-0.322c0.191,0.109,0.382,0.221,0.574,0.332
		L168.161,286.531z"/>
	<path fill="#898A89" d="M357.922,96.751c-4.979,0.005-9.957,0.011-14.934,0.018c0.07-1.67,0.353-4.778,0.18-4.803
		c-4.577-0.675-10.316-2.369-11.165,4.563c-1.213,9.94-1.471,19.998-2.136,30.005c0,0-0.158,0.647-0.158,0.652
		c-6.062-8.691-2.837-18.912-4.648-28.311c0.381-0.668,0.764-1.335,1.144-2c0.407-3.269,0.815-6.539,1.229-9.808
		c6.174-4.357,11.847-10.012,18.683-12.61c4.413-1.676,3.385-11.673,10.225-6.818c6.185,4.392,5.188,11.35,3.517,17.992
		C358.938,89.27,358.549,93.04,357.922,96.751z M337.234,86.423c-0.017,0.335-0.033,0.67-0.051,1.004
		c0.135-0.153,0.359-0.296,0.375-0.462C337.578,86.795,337.391,86.607,337.234,86.423z"/>
	<path fill="#909190" d="M331.393,136.485c1.047,3.913,2.09,7.825,3.135,11.74C333.482,144.312,332.438,140.399,331.393,136.485z"/>
	<path fill="#909190" d="M329.6,127.567c0.588,2.959,1.176,5.918,1.765,8.878C330.775,133.485,330.188,130.526,329.6,127.567z"/>
	<path fill="#A6A8A6" d="M326.203,96.875c-0.38,0.666-0.762,1.333-1.145,2C325.441,98.211,325.823,97.544,326.203,96.875z"/>
	<path fill="#909190" d="M329.867,126.534c0.665-10.007,0.923-20.064,2.136-30.005c0.849-6.932,6.588-5.239,11.165-4.563
		c0.173,0.025-0.109,3.133-0.18,4.803c-18.95,6.175-6.957,20.575-8.354,31.417C333.044,127.635,331.455,127.085,329.867,126.534z"/>
	<path fill="#909190" d="M376.039,174.355c2.184,2.754,4.365,5.509,6.549,8.262C377.557,182.121,375.312,179.414,376.039,174.355z"
		/>
	<path fill="#909190" d="M385.907,199.112c-0.113,0.198-0.228,0.396-0.341,0.595c0.111-0.202,0.222-0.403,0.33-0.603
		L385.907,199.112z"/>
	<path fill="#898A89" d="M376.002,248.588c0.111-0.196,0.225-0.393,0.337-0.588c-0.11,0.2-0.218,0.399-0.327,0.599L376.002,248.588z
		"/>
	<path fill="#9FA09E" d="M384.4,150.066c-1.551,11.429,5.224,19.328,12.417,26.418c0.887,0.873,10.729,2.417,12.2-5.432
		c7.073,5.132,1.702,9.215-1.6,12.625c-7.312,7.554-12.604-4.438-19.518-2.548c-1.316-10.557-12.043-17.908-10.074-29.582
		C380.02,151.056,382.21,150.561,384.4,150.066z"/>
	<path fill="#9FA09E" d="M392.482,146.831c-0.532,0.383-1.065,0.767-1.598,1.152C391.419,147.598,391.95,147.214,392.482,146.831z"
		/>
	<path fill="#898A89" d="M126.117,162.292c0.131,0.187,0.325,0.382,0.308,0.555c-0.017,0.169-0.249,0.317-0.387,0.477
		C126.055,162.98,126.072,162.636,126.117,162.292z"/>
	<path fill="#898A89" d="M126.913,222.198c0.113-0.198,0.225-0.396,0.337-0.596c-0.11,0.201-0.222,0.401-0.332,0.601
		L126.913,222.198z"/>
	<path fill="#909190" d="M337.264,86.425c0.127,0.182,0.314,0.371,0.297,0.54c-0.017,0.166-0.242,0.309-0.375,0.462
		C337.201,87.094,337.219,86.758,337.264,86.425z"/>
</g>
</svg>
