<?xml version="1.0" encoding="utf-8"?>
<!-- Generator: Adobe Illustrator 16.0.0, SVG Export Plug-In . SVG Version: 6.00 Build 0)  -->
<!DOCTYPE svg PUBLIC "-//W3C//DTD SVG 1.1//EN" "http://www.w3.org/Graphics/SVG/1.1/DTD/svg11.dtd">
<svg version="1.1" id="Layer_1" xmlns="http://www.w3.org/2000/svg" xmlns:xlink="http://www.w3.org/1999/xlink" x="0px" y="0px"
	 width="512px" height="512px" viewBox="0 0 512 512" enable-background="new 0 0 512 512" xml:space="preserve">
<g id="_x30_1">
	<path fill="#D2D4CE" d="M156.891,215.727c-7.925-4.553-20.643,13.22-24.558,19.879c-2.716,4.621-3.883,11.72-7.931,15.628
		c-8.91,8.601-27.782,3.699-38.765,12.107c-10.235,7.836-21.549,21.562-29.502,31.761c-5.524,7.086-9.183,11.94-10.044,20.604
		c-1.135,11.418-2.989,25.364-2.009,36.664c1.16,13.377,12.034,18.385,16.442,29.991c3.446,9.076,1.61,20.017,6.144,29.414
		c3.314,6.865,9.392,13.839,14.239,19.712c11.312,13.703,26.799,22.464,41.784,31.255c24.649,14.462,47.365,17.312,76.485,17.618
		c21.117,0.216,42.254-0.292,63.375-0.209c0.157,0,7.066,0.579,8.064,0.146c9.404-4.092,15.283-15.362,21.363-23.284
		c6.392-8.33,16.258-13.334,18.649-23.89c3.521-15.577-2.298-28.979,4.575-45.284c6.814-16.155,23.445-25.915,18.706-42.878
		c-3.543-12.673-13.451-27.159-20.363-36.745c-11.051-15.312-20.649-36.574-35.462-47.675c-24.272-18.19-48.557-28.36-79.018-29.469
		c-10.528-0.382-15.836-1.532-24.182-7.271c-6.032-4.147-9.756-4.593-16.191-7.17"/>
	<path fill="#B2B4AF" d="M169.597,238.339c-13.142-2.504-11.722,5.673-21.642,12.978c-22.544,16.604-55.378,36.041-67.231,62.761
		c-7.656,17.254-14.941,51.161-6.154,70.327c2.224,4.852,7.044,9.235,10.56,13.211c10.731,12.136,18.482,25.892,28.588,38.185
		c10.198,12.406,24.805,16.03,37.844,23.965c12.752,7.759,21.33,9.784,36.33,10.577c26.391,1.395,39.933,2.358,59.252-18.244
		c15.808-16.854,43.146-55.349,30.788-82.023c-9.006-19.43-15.027-7.386-22.995-1.315c-12.691,9.665-21.305,12.725-35.227,16.611
		c-22.423,6.266-47.592,13.76-71.706,9.979c-24.293-3.805-29.472-22.39-24.82-47.081c6.982-37.068,117.124-52.88,84.954-98.127
		c1.683,2.364-13.996-6.85-12.641-6.355c-6.516-2.387-10.332-3.262-18.88-3.327L169.597,238.339z"/>
	<path fill="#939592" d="M153.053,318.604c-5.057-0.836-19.034,5.896-23.835,11.153c-6.872,7.527-9.435,24.728-10.768,34.979
		c-1.059,8.151-0.974,7.906,2.474,14.128c8.581,15.468,29.417,20.126,44.27,24.028c12.42,3.263,26.462-1.404,39.185-3.938
		c12.995-2.589,23.909-6.04,33.686-17.123c2.672-3.029,11.578-13.993,10.701-19.069c-2.015-11.678-11.02-4.648-16.8-5.771
		c-8.366-1.62-7.668-8.7-8.768-16.476c-1.729-12.271-5.508-19.728-15.306-23.685c-11.715-4.731-18.957-2.689-27.603,6.66
		c-3.672,3.974-5.662,8.899-10.973,9.451C169.318,332.938,168.271,321.112,153.053,318.604z"/>
	<path fill="#787978" d="M195.252,350.098c-11.261-2.416-6.185,12.062-1.821,16.093c2.518,2.324,9.172,5.049,12.552,4.762
		c4.435-0.372,11.898-5.38,9.147-10.619c-0.894-1.703-8.087-4.98-9.975-5.927C201.831,352.732,197.713,352.887,195.252,350.098z"/>
	<path fill="#B2B4AF" d="M394.325,42.315c-3.351-8.502-24.38-2.549-31.593,0.213c-5.008,1.917-10.349,6.735-15.949,7.265
		c-12.327,1.163-24.02-14.442-37.848-14.725c-12.888-0.261-30.293,3.406-42.869,6.416c-8.736,2.09-14.629,3.603-20.701,9.833
		c-8.014,8.215-18.16,17.957-24.444,27.401c-7.437,11.172-2.063,21.871-5.862,33.693c-2.97,9.246-11.229,16.648-13.55,26.821
		c-1.696,7.438-1.295,16.676-1.171,24.29c0.289,17.767,6.925,34.273,13.153,50.495c10.242,26.68,26.216,43.083,48.782,61.487
		c16.363,13.348,33.201,26.135,49.65,39.377c0.121,0.097,5.16,4.86,6.21,5.146c9.904,2.674,21.529-2.471,31.228-4.864
		c10.195-2.521,21.027-0.275,29.481-7.033c12.47-9.968,16.279-24.075,31.832-32.528c15.402-8.375,34.489-5.623,41.372-21.842
		c5.144-12.114,6.438-29.617,7.01-41.422c0.92-18.862,6.682-41.466,2.031-59.382c-7.62-29.36-20.254-52.46-43.367-72.332
		c-7.985-6.867-11.414-11.077-14.357-20.769c-2.128-7.006-4.763-9.677-8.184-15.704"/>
	<path fill="#D2D4CE" d="M395.805,39.355c-3.35-8.501-24.38-2.549-31.593,0.214c-5.006,1.917-10.347,6.735-15.948,7.264
		c-12.328,1.163-24.02-14.442-37.848-14.725c-12.887-0.261-30.292,3.407-42.872,6.416c-8.737,2.091-14.626,3.603-20.703,9.833
		c-8.009,8.215-18.159,17.958-24.44,27.4c-7.438,11.172-2.063,21.872-5.862,33.694c-2.97,9.247-11.231,16.648-13.55,26.821
		c-1.697,7.438-1.295,16.676-1.171,24.29c0.289,17.767,6.925,34.274,13.153,50.495c10.243,26.681,26.216,43.083,48.782,61.488
		c16.365,13.346,33.203,26.133,49.651,39.377c0.121,0.098,5.16,4.857,6.213,5.146c9.902,2.67,21.527-2.475,31.224-4.867
		c10.196-2.521,21.028-0.276,29.483-7.034c12.467-9.968,16.278-24.075,31.832-32.531c15.399-8.374,34.487-5.619,41.37-21.839
		c5.144-12.114,6.438-29.617,7.012-41.422c0.918-18.862,6.675-41.466,2.03-59.381c-7.619-29.36-20.254-52.46-43.368-72.332
		c-7.986-6.867-11.414-11.077-14.359-20.769c-2.128-7.006-4.76-9.677-8.18-15.703"/>
	<path fill="#B2B4AF" d="M391.628,50.153c-8.71-10.157-12.7-2.88-25.01-3.36c-27.976-1.09-65.763-6.386-91.698,7.099
		c-16.748,8.708-43.597,30.662-48.687,51.122c-1.29,5.179-0.257,11.613,0.011,16.913c0.814,16.179-1.71,31.766-1.483,47.676
		c0.229,16.059,9.384,28.004,14.622,42.34c5.128,14.017,10.567,20.955,21.794,30.934c19.757,17.553,29.736,26.756,57.688,22.712
		c22.865-3.307,68.257-16.337,75.238-44.893c5.086-20.802-7.143-15.147-17.154-15.378c-15.947-0.365-24.583-3.348-37.891-8.996
		c-21.433-9.094-45.774-18.94-62.267-36.94c-16.61-18.131-9.062-35.885,9.979-52.279c28.586-24.614,124.524,31.748,127.613-23.684
		c-0.165,2.896-6.667-14.086-5.914-12.855c-3.604-5.929-6.036-8.995-12.679-14.378L391.628,50.153z"/>
	<path fill="#939592" d="M328.621,102.557c-3.428-3.806-18.551-7.267-25.583-6.15c-10.07,1.593-22.804,13.437-30.236,20.615
		c-5.915,5.71-5.696,5.571-6.877,12.585c-2.944,17.44,10.427,34.08,19.601,46.4c7.67,10.296,21.562,15.411,33.08,21.37
		c11.771,6.085,22.457,10.197,37.014,7.634c3.979-0.699,17.777-3.712,20.263-8.227c5.71-10.382-5.71-10.507-9.528-14.992
		c-5.528-6.486-0.563-11.585,3.422-18.344c6.304-10.667,8.008-18.854,2.814-28.062c-6.197-11.005-13.137-13.927-25.726-12.015
		c-5.349,0.813-9.978,3.424-14.472,0.537C332.389,123.908,338.949,114.014,328.621,102.557z"/>
	<path fill="#787978" d="M341.952,153.5c-7.292-8.919-12.358,5.564-11.466,11.437c0.515,3.39,4.021,9.666,6.841,11.555
		c3.696,2.474,12.655,3.222,13.772-2.593c0.363-1.887-3.211-8.938-4.097-10.854C345.445,159.662,342.134,157.213,341.952,153.5z"/>
</g>
</svg>
