<?xml version="1.0" encoding="utf-8"?>
<!-- Generator: Adobe Illustrator 16.0.0, SVG Export Plug-In . SVG Version: 6.00 Build 0)  -->
<!DOCTYPE svg PUBLIC "-//W3C//DTD SVG 1.1//EN" "http://www.w3.org/Graphics/SVG/1.1/DTD/svg11.dtd">
<svg version="1.1" id="Layer_1" xmlns="http://www.w3.org/2000/svg" xmlns:xlink="http://www.w3.org/1999/xlink" x="0px" y="0px"
	 width="512px" height="512px" viewBox="0 0 512 512" enable-background="new 0 0 512 512" xml:space="preserve">
<g id="dino">
	<g>
		<path fill="#2D4722" d="M75.924,280.173c-1.996-8.776-6.107-17.022-6.523-26.192c3.582,0.785,8.779,3.822,8.31,5.398
			c-2.407,8.079,5.118,11.833,7.098,17.859c2.886,8.797,12.295,13.763,20.551,17.088c4.833,1.945,9.427,3.146,12.821,7.292
			c3.778,4.614,7.544,9.249,11.548,13.664c3.354,3.692,6.847,5.457,12.754,4.794c7.444-0.836,13.371-4.062,19.981-6.412
			c5.515-1.961,9.388-4.178,12.631-8.571c4.599-6.229,9.811-11.512,7.182-20.991c-2.986-10.77-5.446-22.301-4.773-33.294
			c0.667-10.873-1.021-21.793,0.962-32.598c0.316-1.72-0.367-3.77-1.029-5.499c-4.173-10.893-7.5-21.807-2.621-33.414
			c0.279-0.664,0.288-1.9-0.13-2.326c-4.521-4.6-2.589-10.356-2.457-15.534c0.144-5.533-1.994-8.386-6.855-10.534
			c-10.268-4.537-10.642-5.784-8.43-17.467c0.402-2.115,0.431-4.335,0.359-6.498c-0.188-5.615-1.578-9.521-8.581-10.5
			c-7.105-0.993-14.466-3.078-20.715-6.506c-6.592-3.618-10.918-1.288-15.956,2.151c-4.569,3.12-8.586,7.851-15.14,6.333
			c7.187-7.311,14.853-13.845,25.142-16.468c4.95-1.262,9.379-3.354,13.675-6.481c7.989-5.815,16.411-11.254,26.511-12.989
			c1.728,11.145,9.305,18.334,16.725,25.945c6.932,7.112,14.051,13.57,18.019,23.952c4.548,11.897,11.748,23.095,17.735,34.639
			c7.461,14.383,9.423,29.886,12.873,45.164c3.264,14.464,7.399,28.762,7.54,43.788c0.061,6.52,4.774,11.536,6.438,17.829
			c2.607,9.867,7.873,18.865,2.353,29.201c-5.7,4.883-11.847,9.34-17.016,14.73c-13.44,14.021-28.768,25.592-45.126,35.84
			c-15.259,9.56-15.449,9.358-28.808-3.467c-1.16-1.109-2.513-2.021-3.774-3.025c-2.345-3.341-4.769-7.684-8.859-7.774
			c-7.965-0.179-14.697-2.966-21.331-6.796c-1.291-0.745-3.5-1.327-4.567-0.721c-1.905,1.083-0.55,3.342-0.645,5.137
			c-0.412,7.854,7.793,12.311,7.609,19.979c-2.302-0.86-3.69-3.521-6.534-3.312c-10.322-8.166-10.218-8.128-14.819,4.465
			c-2.935,8.034-6.888,15.456-14.587,20.093c-0.231-3.77,1.881-6.497,3.722-9.554c7.825-12.997,15.064-26.199,7.234-41.993
			c-1.3-2.621-1.458-5.905-3.064-8.254c-3.996-5.831-2.553-14.39-9.508-18.634C81.602,293.037,80.132,286.048,75.924,280.173z"/>
		<path fill="#2F4E24" d="M149.198,347.073c1.262,1.005,2.615,1.916,3.774,3.025c13.359,12.825,13.549,13.024,28.808,3.467
			c16.358-10.248,31.686-21.817,45.126-35.84c5.169-5.393,11.315-9.85,17.016-14.73c2.227-1.954,4.394-3.979,6.689-5.851
			c8.866-7.222,14.428-17.399,22.646-25.192c2.388,2.478,2.619,5.756,3.427,8.862c2.102,8.076,5.658,9.728,11.896,4.168
			c8.02-7.145,15.578-14.965,22.38-23.275c11.368-13.892,15.677-31.454,20.049-48.062c3.771-14.313,8.718-27.872,14.328-41.373
			c5.308,3.096,8.226,7.704,5.879,13.605c-6.278,15.793-8.329,32.757-15.082,48.574c-6.747,15.811-11.477,32.551-18.18,48.517
			c-7.647,18.218-17.804,34.924-29.271,50.869c-3.139,4.364-7.447,7.951-13.34,8.359c-2.031,0.142-3.865,0.688-5,2.31
			c-5.701,8.133-11.937,15.982-16.771,24.611c-7.298,13.023-9.399,28.921-21.988,39.085c-1.429,1.154-1.566,3.909-2.303,5.923
			c-1.3,5.697-6.203,9.374-8.227,14.666c-3.337,0.164-3.307,2.521-3.202,4.923c-1.589,3.832-4.543,7.085-4.834,11.464
			c-1.346,0.667-1.658,1.871-1.672,3.229c-1.393,0.676-1.686,1.895-1.627,3.289c-0.333,2.893-1.805,4.718-4.802,5.104
			c5.206-13.808,7.434-28.377,10.911-42.626c0.645-2.643,0.564-5.76,2.865-7.415c7.005-5.036,6.196-12.806,7.141-19.833
			c0.629-4.687-0.783-8.37-6.958-6.171c-3.103,1.104-5.727,0.854-7.39-2.729c-4.792-10.335-14.327-12.811-23.039-5.475
			c-4.679,3.94-10.473,4.267-15.648,6.396c-3.629,1.494-5.217-4.033-8.39-5.445c-1.984-0.884-3.874-1.985-5.864-2.849
			c-2.061-0.894-4.419-1.273-6.286-0.048c-2.511,1.646-0.564,3.889-0.086,5.865c2.484,10.25,5.555,20.402,7.27,30.778
			c1.088,6.584,5.79,12.821,2.616,19.969c-3.75-10.368-7.502-20.735-11.255-31.104c-0.282-5.333-0.276-11.141-3.487-15.337
			c-5.151-6.734-7.147-14.132-8.075-22.26C137.944,347.151,137.753,347.172,149.198,347.073z"/>
		<path fill="#080907" d="M204.923,456.803c2.996-0.391,4.467-2.216,4.8-5.106c1.994-0.378,3.996-0.751,1.627-3.289
			c0.014-1.356,0.326-2.562,1.67-3.229c5.434-2.246,7.096-7.851,10.546-11.857c7.457-8.659,11.606-19.463,21.417-26.891
			c14.867-11.257,27.708-25.146,42.041-37.168c7.151-5.998,15.127-10.944,20.651-18.741c0.671-0.941,2.236-1.562,3.472-1.737
			c5.054-0.725,8.113-3.314,9.73-8.276c0.898-2.755,3.025-5.104,4.587-7.647c0.759-1.241,1.737-2.239,3.276-1.637
			c2.066,0.812,1.76,2.523,1.047,4.062c-1.941,4.199-3.288,8.55-4.469,13.037c-1.285,4.89-0.043,5.846,4.595,4.746
			c13.444-3.188,23.494-12.267,30.233-22.809c8.039-12.571,15.91-25.738,20.756-40.199c2.138-6.377,4.224-12.773,6.51-19.098
			c5.396-14.918,11.97-29.513,16.004-44.783c2.961-11.206,9.982-17.087,18.528-23.394c5.897-4.352,13.068-6.834,18.04-12.435
			c2.163-0.932,3.46-3.497,6.223-3.302c-0.549,17.67-6.361,34.218-11.247,50.9c-8.854,30.246-20.624,59.289-38.877,85.251
			c-6.774,9.637-13.365,19.723-21.731,27.868c-26.852,26.144-48.764,55.396-61.807,90.82c-1.795-6.214,3.535-11.185,3.09-17.056
			c-0.783-10.376-1.934-20.727-2.984-31.08c-0.239-2.368,1.184-3.979,2.097-5.923c3.619-7.709,0.925-13.267-7.214-14.122
			c-3.232-0.34-6.913,0.4-9.699,2.859c-3.91-0.435-6.414,1.544-8.188,4.772c-3.424,0.491-5.723,2.843-8.168,4.948
			c-12.092,6.832-19.203,18.922-29.367,27.792c-1.617,0.569-2.613,1.754-3.251,3.29c-20.132,16.356-34.699,37.165-47.892,59.178
			c-2.68,4.47-4.244,9.988-9.235,12.895c-0.078-1.176-0.156-2.35-0.236-3.521c1.401-0.662,1.752-1.865,1.698-3.28
			c2.037-1.692,2.975-3.937,3.246-6.514c3.165-3.136,4.914-6.91,5.116-11.379c0.129-0.437,0.18-0.881,0.15-1.334
			c1.924-0.438,3.047-1.534,2.969-3.616C204.759,458.803,204.842,457.803,204.923,456.803z"/>
		<path fill="#2F4E24" d="M96.912,118.415c-1.704,2.723-3.685,5.156-6.747,6.463c5.083-11.896,14.017-21.222,21.409-31.535
			c8.701-12.14,19.946-22.058,30.878-32.175c5.748,1.566,10.883,0.014,16.351-2.089c17.385-6.687,34.522-7.169,49.135,6.395
			c15.205,14.114,22.768,32.636,27.984,52.276c1.037,3.9,2.316,7.442,5.747,10.396c6.263,5.395,11.878,11.479,17.122,18.002
			c9.751,12.126,16.139,26.218,24.348,39.229c2.553,7.486,1.334,15.237,1.608,22.884c-2.179,12.517-2.187,25.408-6.472,37.562
			c-4.937-0.673-10.016-3.224-10.688-7.614c-2.197-14.342-12.107-25.292-15.774-39.168c-2.364-8.942-5.405-18.326-10.264-27.106
			c-5.028-9.083-5.938-20.509-13.67-28.767c-1.309-1.397-1.806-4.011-1.83-6.072c-0.08-7.008-3.773-12.833-8.015-17.202
			c-12.038-12.399-20.197-28.228-35.293-38.042c-7.246-4.711-13.774-5.837-20.504,0.627c-10.1,1.735-18.521,7.173-26.511,12.989
			c-4.296,3.127-8.725,5.219-13.675,6.481C111.764,104.57,104.099,111.104,96.912,118.415z"/>
		<path fill="#407237" d="M283.139,185.376c-8.209-13.01-14.597-27.103-24.348-39.229c-5.243-6.522-10.858-12.607-17.122-18.002
			c-3.43-2.954-4.709-6.496-5.747-10.396c-5.216-19.641-12.78-38.162-27.984-52.276c-14.613-13.564-31.75-13.082-49.135-6.395
			c-5.467,2.103-10.603,3.655-16.351,2.089c21.888-18.92,46.915-31.495,75.308-37.273c6.097,2.084,12.153,2.712,18.108-0.481
			c2.64,0.142,5.282,0.285,7.924,0.427c0.445,3.468,3.384,2.984,5.63,3.473c27.154,5.914,50.711,19.642,74.276,33.572
			c6.989,4.132,9.032,9.494,8.556,16.784c-0.307,5.72-5.72,9.154-6.552,14.639c-2.578-6.997-1.688-15.229-9.468-20.253
			c-15.144-9.781-29.795-20.316-44.707-30.457c-1.774-1.208-3.84-2.056-5.866-2.816c-12.075-4.523-24.391-7.83-37.418-8.231
			c-7.053-0.217-10.76,4.391-14.147,9.146c-2.104,2.956-2.167,6.637,1.11,9.543c6.276,5.566,11.662,11.962,16.586,18.711
			c10.147,13.906,20.887,27.298,29.856,42.161c9.589,15.884,17.994,32.393,27.5,48.296
			C293.896,166.35,290.479,179.989,283.139,185.376z"/>
		<path fill="#38612F" d="M196.442,476.131c-0.271,2.577-1.209,4.819-3.246,6.518c-1.966,0.365-3.982,0.708-1.698,3.276
			c0.08,1.173,0.158,2.349,0.236,3.521l0.077-0.129c-0.716-0.07-1.431-0.144-2.147-0.212c-1.9,0.195-2.872,1.275-3,3.156
			c-6.914-1.111-7.294-7.849-8.773-12.197c-5.918-17.396-10.655-35.193-15.829-52.846c3.173-7.146-1.528-13.385-2.616-19.969
			c-1.715-10.376-4.786-20.528-7.27-30.778c-0.479-1.979-2.425-4.22,0.086-5.865c1.867-1.228,4.225-0.846,6.286,0.048
			c1.991,0.861,3.88,1.965,5.864,2.849c3.173,1.412,4.76,6.939,8.39,5.445c5.175-2.13,10.969-2.454,15.648-6.396
			c8.712-7.336,18.247-4.86,23.039,5.475c1.663,3.583,4.287,3.835,7.39,2.729c6.175-2.199,7.587,1.484,6.958,6.171
			c-0.944,7.027-0.135,14.797-7.141,19.833c-2.3,1.655-2.22,4.772-2.865,7.415c-3.477,14.249-5.705,28.818-10.911,42.626
			c-0.08,1.002-0.163,2.002-0.244,3.001c-2.3,0.131-3.323,1.312-2.969,3.616c0.03,0.453-0.021,0.898-0.151,1.332
			C197.878,467.658,194.994,470.923,196.442,476.131z"/>
		<path fill="#2D4722" d="M446.209,187.05c-2.763-0.195-4.06,2.37-6.223,3.301c-8.049,0.239-16.001-0.134-20.785-7.958
			c-1.415-2.316-0.423-6.833-4.619-6.353c-3.857,0.441-1.894,4.386-2.48,6.773c-1.688,6.859-7.438,11.95-11.303,9.684
			c-10.354-6.068-21.879-11.015-24.49-24.823c-0.848-4.474-2.164-8.86-3.268-13.286c2.939-2.018,6.331-1.647,9.619-1.82
			c-1.07,7.399,2.994,13.569,5.124,20.129c1.722,5.297,10.778,8.219,16.449,5.963c5.486-2.183,2.427-6.949,2.749-10.574
			c0.199-2.262-2.163-3.604-3.514-5.284c-3.037-3.785-6.512-7.389-6.232-12.801c2.852,1.51,5.851,2.795,8.521,4.573
			c7.498,4.987,15.594,7.183,24.61,6.44c3.467-0.286,5.191-1.701,4.567-5.056c-2.562-13.762-3.313-27.963-9.661-40.83
			c2.055-5.456,5.982-7.595,11.683-6.609c8.16,12.757,9.979,27.451,12.25,41.876c1.125,7.145,2.325,14.383,1.989,21.776
			C450.945,177.745,449.885,182.761,446.209,187.05z"/>
		<path fill="#192816" d="M325.702,92.31c0.832-5.485,6.245-8.92,6.55-14.642c5.764-0.958,11.979-3.091,8.92-9.985
			c-1.943-4.381-5.059-9.061-10.67-11.985c-9.993-5.207-20.113-10.179-30.102-15.4c-17.805-9.308-36.534-15.114-56.608-16.458
			c-2.642-0.143-5.284-0.285-7.925-0.425c0.003-0.304-0.025-0.606-0.089-0.905c8.707-0.544,17.415-1.088,26.123-1.632
			c6.574,3.833,14.016,3.547,21.203,4.459c4.106,5.619,9.996,6.706,16.412,6.447c1.063,0.026,2.127,0.052,3.191,0.078
			c0.146,1.831,1.259,2.57,2.873,3.407c13.07,6.777,25.908,14.017,39.097,20.554c10.421,5.166,15.292,15.026,21.804,23.602
			c5.767,7.595-1.201,13.976-1.637,20.962c-7.293-2.537-14.804-2.469-22.299-1.521c-6.454,0.817-10.65,3.099-10.678,11.283
			c-0.036,11.332,3.062,21.916,5.15,32.771c-2.343,0.269-3.744,1.4-1.945,3.549c2.537,3.028,1.828,6.438,1.875,9.807
			c-0.766-1.1-1.737-2.106-2.271-3.307C326.085,133.584,322.377,113.463,325.702,92.31z"/>
		<path fill="#253A1B" d="M364.846,100.386c0.434-6.985,7.399-13.366,1.635-20.961c-6.512-8.575-11.383-18.436-21.804-23.602
			c-13.188-6.537-26.026-13.776-39.097-20.554c-1.614-0.837-2.729-1.576-2.873-3.408c5.197,1.308,10.191,2.716,15.087,5.373
			c8.354,4.536,17.127,8.779,25.897,12.073c17.664,6.635,29.812,17.967,37.466,34.769c-0.378,6.8,4.69,4.481,8.146,4.863
			c8.439-0.258,14.892-6.876,23.31-7.386c0.604-0.037,1.079-2.227,1.611-3.416c10.152,8.201,19.138,17.276,22.734,30.382
			c-5.698-0.985-9.628,1.154-11.683,6.61c-8.916-4.321-17.694-10.051-27.848-9.562C386.031,106.116,375.195,105.373,364.846,100.386
			z"/>
		<path fill="#407237" d="M75.924,280.173c4.208,5.875,5.678,12.864,7.926,19.535c1.841,7.556,4.413,15.023,5.333,22.69
			c1.051,8.749,4.872,16.737,2.016,26.674c-2.969,10.329-9.271,18.099-13.79,27.146c-3.063,6.138-7.184,8.335-13.179,3.527
			c-0.614-18.922,3.71-37.359,5.561-56.04c1.133-11.441,2.814-22.827,4.225-34.241C74.405,286.312,73.844,282.975,75.924,280.173z"
			/>
		<path fill="#2D4722" d="M248.862,417.375c0.638-1.536,1.634-2.721,3.251-3.29c0.832,0.645,1.853,1.146,2.467,1.956
			c6.844,9.029,10.374,9.676,19.727,3.216c3.045-2.103,5.855-4.545,8.775-6.832c2.311-0.848,3.729-3.507,6.587-3.242
			c0.015,12.111,2.651,24.104,1.651,36.269c-0.155,1.871-0.535,4.088,0.238,5.61c5.205,10.256-0.572,19.005-3.494,28.156
			c-8.36-8.229-11.699-19.51-17.438-29.307C263.998,438.591,256.555,427.928,248.862,417.375z"/>
		<path fill="#080907" d="M114.872,353.585c2.844-0.211,4.232,2.45,6.534,3.311l0.002,0.005c1.013,2.244,2.683,3.847,4.861,4.946
			c1.137,4.751,6.965,7.021,6.635,12.548c-13.26,8.216-26.586,16.324-39.752,24.688c-5.818,3.696-12.47,4.564-18.856,6.311
			c-2.212,0.606-4.987,0.664-6.175-2.365c2.232-0.269,4.075-0.989,4.29-3.636c0.542-0.546,1.086-1.091,1.63-1.636
			c1.713-0.046,3.205-0.646,4.333-1.946c9.765-11.229,20.682-21.859,27.245-35.156C108.159,355.503,112.274,356.396,114.872,353.585
			z"/>
		<path fill="#38612F" d="M381.157,84.076c-7.653-16.801-19.802-28.134-37.466-34.769c-8.771-3.294-17.543-7.538-25.897-12.073
			c-4.896-2.657-9.89-4.065-15.087-5.373c-1.064-0.025-2.128-0.051-3.193-0.077c-4.219-5.335-10.32-5.878-16.41-6.447
			c-7.188-0.912-14.629-0.625-21.203-4.459c17.179-1.105,33.58,2.935,49.558,8.397c22.106,7.56,43.646,16.629,64.574,27.077
			c1.125,7.042,8.159,7.457,12.512,10.71c4.035,3.016,9.515,5.607,6.437,10.971C392.497,82.348,387.943,87.131,381.157,84.076z"/>
		<path fill="#253A1B" d="M288.064,479.218c2.922-9.151,8.699-17.9,3.494-28.156c-0.773-1.522-0.396-3.739-0.238-5.61
			c1-12.165-1.637-24.155-1.651-36.269c1.924-1.804,5.435-3.55,5.504-5.424c0.327-8.739,5.593-15.168,9.19-22.385
			c1.125-2.021,2.604-3.917,5.1-2.612c2.314,1.211,0.614,3.228,0.365,5.008c-1.102,7.938-9.062,13.508-7.201,22.604
			c1.918,9.364-1.482,19.303,3.109,28.578c1.188,2.402-0.342,5.85-0.465,8.752c-0.41,9.575-6.453,17.885-5.783,27.604
			c0,0,0.023-0.044,0.021-0.043c-1.489,0.709-1.663,2.019-1.56,3.447l0.08-0.078c-3.609-0.021-3.496,2.467-3.354,4.977
			c0,0,0.101-0.113,0.099-0.111c-0.594,0.605-1.188,1.215-1.778,1.823C289.732,484.416,289.564,480.254,288.064,479.218z"/>
		<path fill="#2D4722" d="M132.903,374.395c0.33-5.524-5.498-7.797-6.635-12.548c0.418-3.649-1.2-5.304-4.861-4.946l-0.002-0.005
			c0.184-7.665-8.021-12.121-7.609-19.977c0.094-1.795-1.26-4.054,0.645-5.137c1.067-0.606,3.277-0.024,4.567,0.721
			c6.633,3.83,13.365,6.617,21.331,6.796c4.09,0.093,6.514,4.436,8.859,7.774c-11.445,0.099-11.253,0.078-9.953,11.444
			c0.928,8.13,2.924,15.523,8.075,22.26c3.211,4.196,3.205,10.004,3.487,15.337C144.579,389.089,140.655,380.163,132.903,374.395z"
			/>
		<path fill="#192816" d="M299.488,471.307c-0.67-9.72,5.373-18.027,5.783-27.604c0.123-2.902,1.653-6.348,0.465-8.752
			c-4.594-9.275-1.191-19.214-3.109-28.578c-1.861-9.097,6.1-14.664,7.201-22.604c0.249-1.78,1.949-3.797-0.365-5.008
			c-2.496-1.305-3.975,0.596-5.1,2.613c-1.627,0.002-3.254,0.003-4.881,0.005c-0.549-1.604-1.101-3.206-1.648-4.809
			c2.786-2.46,6.467-3.2,9.699-2.86c8.139,0.855,10.833,6.413,7.214,14.122c-0.913,1.943-2.336,3.555-2.095,5.923
			c1.051,10.354,2.201,20.704,2.982,31.08c0.445,5.871-4.885,10.842-3.09,17.056l0.02-0.03c-0.229,0.109-0.636,0.212-0.645,0.337
			c-0.023,0.408,0.1,0.824,0.164,1.235C308.613,453.052,304.17,462.234,299.488,471.307z"/>
		<path fill="#2F4E24" d="M64.23,379.745c5.995,4.808,10.116,2.606,13.179-3.527c4.518-9.047,10.821-16.814,13.79-27.146
			c2.856-9.937-0.965-17.925-2.016-26.674c-0.92-7.667-3.492-15.137-5.333-22.69c6.955,4.244,5.512,12.803,9.508,18.634
			c1.606,2.347,1.764,5.633,3.064,8.254c7.83,15.794,0.59,28.996-7.234,41.993c-1.841,3.057-3.954,5.784-3.722,9.554l0,0
			c-6.284,1.276-6.427,6.928-8.152,11.448c-1.552,0.642-2.646,1.729-3.245,3.308c-3.947,0.386-4.341,3.51-4.971,6.449
			c-2.474,2.147-2.886-1.61-4.61-1.607C63.998,391.746,61.062,385.789,64.23,379.745z"/>
		<path fill="#2F4E24" d="M381.157,84.076c6.786,3.055,11.34-1.729,13.819-6.043c3.078-5.363-2.399-7.955-6.437-10.971
			c-4.353-3.253-11.388-3.668-12.513-10.71c9.892,3.779,19.229,8.614,27.947,14.631c0.634,0.534,1.264,1.067,1.896,1.601
			c0.493,0.496,0.987,0.991,1.481,1.486c0.284,5.219-3.554,7.082-7.431,8.167c-4.331,1.212-7.914,3.142-10.623,6.701
			C385.848,88.558,380.779,90.876,381.157,84.076z"/>
		<path fill="#2D4722" d="M389.302,88.939c2.71-3.559,6.292-5.489,10.623-6.701c3.877-1.085,7.715-2.948,7.432-8.167
			c2.818,0.46,5.599,0.989,6.867,4.067c-0.532,1.188-1.009,3.379-1.611,3.416C404.192,82.063,397.742,88.681,389.302,88.939z"/>
		<path fill="#2D4722" d="M235.778,22.511c0.064,0.299,0.093,0.601,0.089,0.905c-5.954,3.19-12.009,2.562-18.106,0.479
			C223.807,23.951,229.668,21.611,235.778,22.511z"/>
		<path fill="#192816" d="M64.487,397.738c1.725-0.003,2.136,3.757,4.61,1.607c1.104,0.017,2.208,0.03,3.312,0.045
			c-0.215,2.646-2.058,3.367-4.29,3.636C66.303,401.68,63.436,401.055,64.487,397.738z"/>
		<path fill="#192816" d="M294.677,479.607c-0.143-2.51-0.256-4.996,3.354-4.977C298.068,477.071,296.803,478.63,294.677,479.607z"
			/>
		<path fill="#2F4E24" d="M186.664,492.263c0.129-1.881,1.101-2.961,3.004-3.156c0.127,0.667,0.252,1.33,0.376,1.995
			C189.439,493.01,188,492.488,186.664,492.263z"/>
		<path fill="#192816" d="M297.95,474.711c-0.104-1.431,0.069-2.738,1.56-3.447C299.41,472.603,299.872,474.197,297.95,474.711z"/>
		<path fill="#2D4722" d="M405.872,72.584c-0.632-0.533-1.262-1.067-1.896-1.601C404.608,71.518,405.24,72.051,405.872,72.584z"/>
		<path fill="#080907" d="M312.086,443.434c-0.064-0.413-0.188-0.829-0.164-1.235c0.008-0.125,0.416-0.228,0.643-0.337
			C312.404,442.384,312.245,442.909,312.086,443.434z"/>
		<path fill="#192816" d="M292.995,481.319c0.593-0.608,1.187-1.218,1.778-1.823C294.182,480.104,293.588,480.711,292.995,481.319z"
			/>
		<path fill="#080907" d="M190.044,491.102c-0.125-0.665-0.249-1.328-0.376-1.997c0.713,0.07,1.428,0.144,2.144,0.214
			C191.223,489.911,190.632,490.507,190.044,491.102z"/>
		<path fill="#2D4722" d="M162.239,82.477c6.73-6.464,13.259-5.338,20.504-0.627c15.096,9.814,23.255,25.644,35.293,38.042
			c4.242,4.369,7.935,10.194,8.015,17.202c0.024,2.061,0.521,4.674,1.83,6.072c7.732,8.258,8.642,19.684,13.67,28.767
			c4.859,8.78,7.9,18.164,10.264,27.106c3.667,13.876,13.576,24.827,15.774,39.168c0.672,4.39,5.751,6.941,10.687,7.614
			c0.947,9.213-3.805,17.332-5.019,26.13c-8.219,7.793-13.78,17.973-22.646,25.191c-2.296,1.871-4.462,3.896-6.689,5.852
			c5.52-10.336,0.254-19.334-2.353-29.201c-1.664-6.293-6.378-11.311-6.438-17.829c-0.141-15.026-4.275-29.324-7.54-43.788
			c-3.449-15.278-5.411-30.781-12.873-45.164c-5.987-11.543-13.187-22.742-17.735-34.639c-3.968-10.382-11.087-16.84-18.019-23.952
			C171.544,100.811,163.967,93.622,162.239,82.477z"/>
		<path fill="#192816" d="M74.068,392.896c0.599-1.574,1.693-2.664,3.245-3.306c6.381-1.206,5.576-7.531,8.152-11.448l0,0
			c7.699-4.637,11.652-12.059,14.587-20.093c4.601-12.593,4.497-12.631,14.819-4.465c-2.597,2.812-6.713,1.918-9.254,7.067
			c-6.563,13.297-17.479,23.93-27.245,35.156c-1.128,1.3-2.619,1.9-4.334,1.946C74.048,396.137,74.059,394.516,74.068,392.896z"/>
		<path fill="#253A1B" d="M182.278,284.102c-2.986-10.77-5.446-22.301-4.773-33.294c0.667-10.873-1.021-21.793,0.962-32.598
			c0.316-1.72-0.367-3.77-1.029-5.499c-4.173-10.893-7.5-21.807-2.621-33.414c0.279-0.664,0.288-1.9-0.13-2.326
			c-4.521-4.6-2.589-10.356-2.457-15.534c0.144-5.533-1.994-8.386-6.855-10.534c-10.268-4.537-10.642-5.784-8.43-17.467
			c0.402-2.115,0.431-4.335,0.359-6.498c-0.188-5.615-1.578-9.521-8.581-10.5c-7.105-0.993-14.466-3.078-20.715-6.506
			c-6.592-3.618-10.918-1.288-15.956,2.151c-4.569,3.12-8.586,7.851-15.14,6.333c-1.704,2.723-3.685,5.156-6.747,6.463
			c-5.448,6.933-9.457,14.71-12.815,22.786c-6.656,16.007-11.939,32.204-13.732,49.806c-1.986,19.491-0.094,38.077,5.783,56.511
			c3.582,0.785,8.779,3.822,8.31,5.398c-2.407,8.079,5.118,11.833,7.098,17.857c2.886,8.799,12.295,13.765,20.551,17.09
			c4.833,1.945,9.427,3.146,12.821,7.292c3.778,4.614,7.544,9.249,11.548,13.664c3.354,3.692,6.847,5.457,12.754,4.794
			c7.444-0.836,13.371-4.062,19.981-6.412c5.515-1.961,9.388-4.178,12.631-8.571C179.695,298.863,184.907,293.581,182.278,284.102z"
			/>
		<path fill="#192816" d="M373.042,154.389c1.103,4.425,2.419,8.811,3.267,13.285c2.611,13.808,14.137,18.754,24.49,24.823
			c3.865,2.266,9.613-2.825,11.303-9.684c0.589-2.387-1.377-6.332,2.48-6.773c4.196-0.48,3.204,4.037,4.619,6.353
			c4.784,7.824,12.734,8.197,20.785,7.958c-4.972,5.601-12.143,8.083-18.04,12.436c-8.546,6.307-15.567,12.188-18.528,23.394
			c-4.034,15.27-10.605,29.865-16.004,44.783c-2.286,6.322-4.372,12.722-6.51,19.099c-4.846,14.461-12.717,27.628-20.756,40.198
			c-6.739,10.542-16.789,19.618-30.233,22.809c-4.638,1.1-5.88,0.144-4.595-4.746c1.181-4.487,2.527-8.838,4.469-13.037
			c0.713-1.539,1.02-3.252-1.047-4.062c-1.539-0.604-2.518,0.396-3.276,1.637c-1.562,2.543-3.688,4.895-4.587,7.647
			c-1.617,4.962-4.679,7.554-9.73,8.276c-1.233,0.178-2.801,0.796-3.472,1.739c-5.524,7.795-13.5,12.741-20.651,18.739
			c-14.332,12.021-27.174,25.911-42.041,37.168c-9.811,7.428-13.96,18.229-21.417,26.891c-3.451,4.009-5.113,9.611-10.546,11.857
			c0.292-4.379,3.247-7.632,4.835-11.464c2.112-0.961,3.224-2.573,3.202-4.923c2.024-5.292,6.927-8.969,8.227-14.666
			c14.271-9.435,24.733-22.376,34.647-36.121c14.457-20.043,34.461-35.181,49.403-55.001c9.502-12.603,15.668-26.814,21.353-40.902
			c4.088-10.135,7.741-21.096,11.678-31.24c5.332-13.742,6.842-28.286,12.347-41.744c3.108-7.601,1.058-16.704,7.205-23.593
			c1.619-1.813,0.502-5.057-1.122-7.593c-4.585-7.161-5.917-15.531-8.206-23.537C362.073,154.392,367.559,154.391,373.042,154.389z"
			/>
		<path fill="#253A1B" d="M356.59,154.394c2.289,8.006,3.621,16.375,8.206,23.537c1.624,2.536,2.741,5.78,1.122,7.593
			c-6.148,6.889-4.096,15.993-7.205,23.593c-5.505,13.458-7.014,28.002-12.346,41.744c-3.936,10.145-7.59,21.105-11.68,31.239
			c-5.684,14.088-11.85,28.303-21.352,40.903c-14.941,19.82-34.947,34.958-49.402,55.001c-9.917,13.745-20.377,26.688-34.648,36.121
			c0.737-2.014,0.874-4.769,2.303-5.923c12.589-10.164,14.69-26.062,21.988-39.085c4.834-8.629,11.068-16.479,16.77-24.611
			c1.135-1.62,2.969-2.168,5-2.31c5.893-0.408,10.202-3.995,13.34-8.359c11.467-15.945,21.621-32.651,29.271-50.869
			c6.703-15.966,11.434-32.706,18.182-48.517c6.752-15.817,8.803-32.78,15.08-48.574c2.348-5.901-0.57-10.509-5.88-13.604
			c-2.719-3.817-5.438-7.635-8.151-11.454c-0.078-1.514-0.158-3.028-0.236-4.542c-0.047-3.373,0.662-6.783-1.875-9.811
			c-1.799-2.149-0.396-3.28,1.945-3.549C340.734,151.533,349.164,152.106,356.59,154.394z"/>
		<path fill="#407237" d="M337.184,160.82c2.717,3.818,5.437,7.636,8.153,11.454c-5.61,13.5-10.558,27.059-14.327,41.372
			c-4.373,16.608-8.681,34.17-20.049,48.062c-6.802,8.312-14.359,16.133-22.38,23.276c-6.238,5.559-9.797,3.906-11.896-4.168
			c-0.81-3.107-1.041-6.387-3.429-8.863c1.216-8.799,5.966-16.917,5.021-26.13c4.285-12.154,4.293-25.045,6.471-37.562
			c1.525,0.5,3.162,0.792,4.562,1.531c12.922,6.819,29.883,1.292,35.694-12.521c3.108-7.39,5.7-15.115,7.294-23.122
			C333.216,169.552,332.973,164.298,337.184,160.82z"/>
		<path fill="#253A1B" d="M221.058,428.791c0.022,2.35-1.09,3.962-3.202,4.923C217.751,431.312,217.721,428.955,221.058,428.791z"/>
		<path fill="#192816" d="M211.351,448.405c2.369,2.538,0.367,2.911-1.627,3.289C209.665,450.3,209.958,449.081,211.351,448.405z"/>
		<path fill="#38612F" d="M283.082,412.425c-2.92,2.287-5.73,4.729-8.775,6.832c-9.353,6.46-12.883,5.813-19.727-3.216
			c-0.614-0.812-1.635-1.312-2.467-1.956c10.165-8.87,17.276-20.96,29.368-27.792c0.486,0.88,1.596,2.313,1.375,2.56
			c-6.668,7.438-5.66,14.705,0.18,22.009C283.296,411.185,283.077,411.894,283.082,412.425z"/>
		<path fill="#2F4E24" d="M283.082,412.425c-0.005-0.531,0.214-1.24-0.048-1.563c-5.839-7.304-6.847-14.569-0.179-22.009
			c0.22-0.244-0.89-1.68-1.375-2.56c2.443-2.104,4.744-4.457,8.168-4.948c3.266,3.81,6.561-1.093,9.834,0.035
			c1.627-0.002,3.254-0.003,4.881-0.005c-3.598,7.216-8.863,13.645-9.19,22.384c-0.069,1.874-3.579,3.62-5.504,5.424
			C286.811,408.918,285.393,411.577,283.082,412.425z"/>
		<path fill="#253A1B" d="M299.482,381.38c-3.273-1.128-6.568,3.772-9.834-0.035c1.771-3.229,4.273-5.207,8.186-4.772
			C298.384,378.174,298.936,379.776,299.482,381.38z"/>
		<path fill="#2F4E24" d="M196.442,476.131c-1.448-5.208,1.436-8.473,5.115-11.381C201.356,469.221,199.607,472.995,196.442,476.131
			z"/>
		<path fill="#2F4E24" d="M201.708,463.418c-0.354-2.307,0.668-3.485,2.969-3.616C204.756,461.884,203.632,462.979,201.708,463.418z
			"/>
		<path fill="#2F4E24" d="M191.499,485.925c-2.284-2.57-0.268-2.911,1.698-3.276C193.25,484.06,192.899,485.263,191.499,485.925z"/>
		<path fill="#407237" d="M337.184,160.82c-4.211,3.478-3.968,8.732-4.884,13.329c-1.594,8.007-4.185,15.732-7.294,23.122
			c-5.812,13.813-22.773,19.34-35.695,12.521c-1.399-0.739-3.037-1.032-4.562-1.531c-0.272-7.646,0.942-15.398-1.606-22.884
			c7.338-5.387,10.758-19.026,6.012-26.967c-9.508-15.904-17.912-32.413-27.5-48.296c-8.971-14.863-19.71-28.255-29.857-42.161
			c-4.925-6.749-10.311-13.145-16.586-18.711c-3.277-2.906-3.215-6.587-1.11-9.543c3.387-4.755,7.094-9.363,14.147-9.146
			c13.027,0.401,25.343,3.708,37.418,8.231c2.027,0.76,4.092,1.608,5.867,2.816c14.91,10.141,29.564,20.676,44.707,30.457
			c7.777,5.024,6.889,13.256,9.467,20.253c-3.325,21.154,0.383,41.275,8.975,60.659c0.533,1.201,1.506,2.207,2.271,3.307
			C337.025,157.792,337.105,159.306,337.184,160.82z"/>
		<path fill="#2D4722" d="M243.792,23.841c20.074,1.343,38.804,7.149,56.608,16.458c9.988,5.221,20.106,10.193,30.102,15.4
			c5.612,2.924,8.727,7.604,10.67,11.985c3.061,6.894-3.156,9.026-8.92,9.985c0.479-7.289-1.562-12.65-8.554-16.782
			c-23.564-13.93-47.122-27.658-74.276-33.572C247.176,26.825,244.238,27.309,243.792,23.841z"/>
		<path fill="#080907" d="M356.59,154.394c-7.426-2.287-15.855-2.861-19.572-11.475c-2.086-10.855-5.187-21.438-5.148-32.771
			c0.025-8.184,4.224-10.466,10.678-11.283c7.495-0.948,15.008-1.016,22.301,1.521c10.353,4.986,21.188,5.729,32.584,5.181
			c10.151-0.489,18.932,5.242,27.848,9.562c6.348,12.867,7.1,27.068,9.663,40.83c0.624,3.355-1.104,4.771-4.569,5.056
			c-9.017,0.743-17.112-1.453-24.61-6.44c-2.672-1.778-5.671-3.063-8.521-4.58c-5.786-4.397-10.061-0.219-14.578,2.572
			c-3.288,0.173-6.68-0.198-9.619,1.82C367.559,154.391,362.073,154.392,356.59,154.394z"/>
		<path fill="#38612F" d="M382.66,152.568c4.52-2.791,8.792-6.969,14.578-2.572c-0.279,5.418,3.193,9.022,6.23,12.807
			c1.351,1.68,3.713,3.021,3.514,5.284c-0.322,3.625,2.737,8.391-2.749,10.574c-5.671,2.256-14.729-0.666-16.449-5.963
			C385.654,166.138,381.59,159.967,382.66,152.568z"/>
		<path fill="#253A1B" d="M283.104,25.337c6.09,0.569,12.191,1.112,16.41,6.447C293.1,32.043,287.21,30.956,283.104,25.337z"/>
		<path fill="#253A1B" d="M74.068,392.896c-0.009,1.619-0.021,3.24-0.03,4.86c-0.542,0.545-1.086,1.09-1.628,1.636
			c-1.104-0.015-2.208-0.028-3.312-0.045C69.728,396.406,70.122,393.282,74.068,392.896z"/>
		<path fill="#253A1B" d="M121.408,356.898c3.661-0.355,5.279,1.297,4.861,4.946C124.091,360.745,122.42,359.145,121.408,356.898z"
			/>
		<path fill="#253A1B" d="M85.465,378.143c-2.576,3.917-1.771,10.242-8.152,11.448C79.038,385.068,79.182,379.419,85.465,378.143z"
			/>
	</g>
</g>
</svg>
