<?xml version="1.0" encoding="utf-8"?>
<!-- Generator: Adobe Illustrator 16.0.0, SVG Export Plug-In . SVG Version: 6.00 Build 0)  -->
<!DOCTYPE svg PUBLIC "-//W3C//DTD SVG 1.1//EN" "http://www.w3.org/Graphics/SVG/1.1/DTD/svg11.dtd">
<svg version="1.1" id="Layer_1" xmlns="http://www.w3.org/2000/svg" xmlns:xlink="http://www.w3.org/1999/xlink" x="0px" y="0px"
	 width="512px" height="512px" viewBox="0 0 512 512" enable-background="new 0 0 512 512" xml:space="preserve">
<g id="species_x5F_07_2_">
	<path fill="#FBAA1A" d="M310.785,332.85c141.865-9.113,139.771-31.426,137.118-36.771c-0.453-0.755-0.755-1.165-0.755-1.165
		c-37.307,0-55.205-17.87-69.604-34.45c-14.399-16.581-35.43-119.927-48.702-133.202c-13.273-13.275-13.799-19.606-66.087-19.606
		s-78.461,160.008-112.951,178.435c-10.116,5.404-66.188,23.481-66.188,23.481l-0.716,0.917
		C78.839,319.668,154.553,342.888,310.785,332.85z"/>
	<path fill="none" d="M77.986,312.593l4.915-2.104C80.984,311.169,79.356,311.873,77.986,312.593z"/>
	<path fill="none" d="M76.479,313.239c-0.243,0.217-0.455,0.433-0.639,0.65c0.621-0.438,1.335-0.871,2.147-1.298L76.479,313.239z"/>
	<path fill="none" d="M302.454,333.358c2.763-0.161,5.535-0.329,8.331-0.51c107.883-6.932,132.512-21.493,136.955-30.423
		C436.291,315.703,412.538,325.045,302.454,333.358z"/>
	<path fill="#FBAA1A" d="M76.494,313.226c0.317-0.179,2.181-1.229,5.235-2.938C79.348,311.248,77.612,312.232,76.494,313.226z"/>
	<path fill="#FDB715" d="M76.484,313.233c-0.002,0.003-0.004,0.005-0.006,0.007l1.507-0.646c1.37-0.721,2.998-1.424,4.915-2.104
		l-4.915,2.104c-0.812,0.427-1.526,0.861-2.147,1.299c-11.147,13.192,85.318,27.755,226.614,19.468
		c110.084-8.313,133.837-17.655,145.286-30.934c2.219-4.459-0.592-7.513-0.592-7.513c-37.306,0-55.205-17.87-69.604-34.45
		c-0.745-0.856-1.508-1.957-2.285-3.253c-22.281,8.331-63.839,20.334-109.589,15.811c-41.949-4.145-71.146-11.049-94.173-17.01
		c-3.278,10.537-22.83,23.217-24.764,24.217c-27.981,14.479-51.822,22.678-65.006,30.061c0.592-0.24,1.213-0.479,1.888-0.717
		L76.484,313.233z"/>
	<path fill="#F89A1D" d="M76.494,313.226c-0.032,0.02-0.054,0.03-0.054,0.03l0,0l0.044-0.021
		C76.488,313.229,76.491,313.228,76.494,313.226z"/>
	<path fill="#FBAA1A" d="M83.616,309.571c-0.675,0.237-1.296,0.476-1.888,0.717c-3.054,1.709-4.918,2.76-5.235,2.938
		c-0.002,0.002-0.006,0.005-0.009,0.009L83.616,309.571z"/>
	<path fill="#F89A1D" d="M83.616,309.571c-0.675,0.237-1.296,0.476-1.888,0.717c-3.054,1.709-4.918,2.76-5.235,2.938
		c-0.002,0.002-0.006,0.005-0.009,0.009L83.616,309.571z"/>
	<polygon fill="#FBAA1A" points="76.484,313.233 76.44,313.256 76.479,313.239 	"/>
	<polygon fill="#F89A1D" points="76.484,313.233 76.44,313.256 76.479,313.239 	"/>
	<path fill="#FBAA1A" d="M447.74,302.426c0.292-0.338,0.579-0.679,0.854-1.021c2.195-4.711-1.446-6.49-1.446-6.49
		S449.959,297.968,447.74,302.426z"/>
	<path fill="#F89A1D" d="M447.74,302.426c0.292-0.338,0.579-0.679,0.854-1.021c2.195-4.711-1.446-6.49-1.446-6.49
		S449.959,297.968,447.74,302.426z"/>
	<path fill="#F89A1D" d="M480.709,298.695c-25.092-4.59-33.561-3.781-33.561-3.781s3.642,1.779,1.446,6.49
		c-0.276,0.343-0.562,0.684-0.854,1.021c-4.443,8.929-29.071,23.491-136.955,30.423c-2.797,0.181-5.568,0.349-8.331,0.51
		C161.158,341.645,64.69,327.085,75.84,313.89c0.184-0.219,0.396-0.435,0.639-0.65l-0.038,0.017l-63.278,32.481
		c0,0-21.663,7.67,45.688,33.28c67.351,25.611,209.655,19.553,258.619,9.102c48.962-10.45,147.138-37.174,174.813-64.849
		C492.283,323.271,521.384,306.137,480.709,298.695z"/>
	<path fill="#FBAA1A" d="M279.245,107.656c0,0,11.706,4.779,14.815,16.436c3.107,11.657,19.494,111.507,19.494,148.229
		c0,36.725,7.682,59.814,7.682,59.814s17.25,38.436,27.479,48.666c0,0,36.384-9.801,46.027-12.837
		c9.646-3.033,30.204-10.001,30.204-10.001s-20.924-22.109-33.747-34.932c-12.821-12.822-33.819-38.773-39.445-58.242
		c-5.626-19.469-43.274-154.688-58.233-155.912C278.562,107.655,279.245,107.656,279.245,107.656z"/>
	<path fill="#FBAA1A" d="M281.156,111.601c-0.903-2.673-3.471-3.732-3.471-3.732c-3.664,1.522-7.567,8.116-7.567,8.116
		s-8.521,17.233-16.106,54.734c-1.48,7.309-3.375,15.617-5.542,24.231c-0.73,0.61-1.81,1.166-3.427,1.51
		c-5.501,1.169-14.861-1.047-16.91,1.001c-2.048,2.049-1.57,4.954-1.572,4.954s10.424-1.599,12.66,0.637
		c1.512,1.511,3.842,5.053,5.195,7.193c-7.093,25.432-15.789,50.052-22.588,56.853c-10.501,10.502-45.437,50.901-56.931,58.857
		c-11.493,7.956-47.086,49.362-55.071,65.283c0,0,90.981,11.06,135.277,3.119c0,0,5.383-56.387,8.91-63.469
		c3.525-7.082,11.66-37.162,11.66-57.869C265.671,252.314,286.064,126.101,281.156,111.601z"/>
	<path fill="#F89A1D" d="M245.492,124.286c-12.823,12.823-33.804,44.879-33.804,44.879c-3.262,7.957-6.428,15.711-9.54,23.219
		c-0.035,0.017-15.846,5.387-15.846,7.472c0,2.087,6.248,2.716,8.917,2.716c0.923,0,1.853-0.048,2.74-0.168
		c-18.026,42.672-34.708,75.573-57.699,85.966c-65.294,29.521-113.779,46.107-122.938,50.204
		c-15.697,7.022-3.263,23.812,6.228,23.812c9.491,0,132.62-58.105,142.823-68.31c10.203-10.202,14.766-23.111,31.449-68.961
		c22.915-62.967,63.96-103.06,78.229-117.33C276.049,107.787,256.275,113.504,245.492,124.286z"/>
	<ellipse fill="#94C581" cx="236.604" cy="212.295" rx="8.574" ry="10.764"/>
	<path fill="#94C581" d="M189.007,206.115c-2.921,6.364-2.327,10.123,0.815,11.757c5.749,2.987,8.835-2.735,8.835-7.81
		s2.408-7.635-1.135-7.635C193.98,202.426,191.125,201.502,189.007,206.115z"/>
</g>
</svg>
